<svg viewBox="0 0 1512 10" fill="none" xmlns="http://www.w3.org/2000/svg">
<path
    d="M1512 1H1509.01V9H1512V10H0V9H1.99219V1H0V0H1512V1ZM2.98828 9H4.98047V1H2.98828V9ZM5.97656 9H7.96875V1H5.97656V9ZM8.96484 9H10.957V1H8.96484V9ZM11.9531 9H13.9453V1H11.9531V9ZM14.9414 9H16.9336V1H14.9414V9ZM17.9297 9H19.9219V1H17.9297V9ZM20.918 9H22.9102V1H20.918V9ZM23.9062 9H25.8984V1H23.9062V9ZM26.8945 9H28.8867V1H26.8945V9ZM29.8828 9H31.875V1H29.8828V9ZM32.8711 9H34.8633V1H32.8711V9ZM35.8594 9H37.8516V1H35.8594V9ZM38.8477 9H40.8398V1H38.8477V9ZM41.8359 9H43.8242V1H41.8359V9ZM44.8203 9H46.8125V1H44.8203V9ZM47.8086 9H49.8008V1H47.8086V9ZM50.7969 9H52.7891V1H50.7969V9ZM53.7852 9H55.7773V1H53.7852V9ZM56.7734 9H58.7656V1H56.7734V9ZM59.7617 9H61.7539V1H59.7617V9ZM62.75 9H64.7422V1H62.75V9ZM65.7383 9H67.7305V1H65.7383V9ZM68.7266 9H70.7188V1H68.7266V9ZM71.7148 9H73.707V1H71.7148V9ZM74.7031 9H76.6953V1H74.7031V9ZM77.6914 9H79.6836V1H77.6914V9ZM80.6797 9H82.6719V1H80.6797V9ZM83.668 9H85.6602V1H83.668V9ZM86.6562 9H88.6484V1H86.6562V9ZM89.6445 9H91.6367V1H89.6445V9ZM92.6328 9H94.625V1H92.6328V9ZM95.6211 9H97.6133V1H95.6211V9ZM98.6094 9H100.602V1H98.6094V9ZM101.598 9H103.59V1H101.598V9ZM104.586 9H106.578V1H104.586V9ZM107.574 9H109.566V1H107.574V9ZM110.562 9H112.555V1H110.562V9ZM113.551 9H115.543V1H113.551V9ZM116.539 9H118.531V1H116.539V9ZM119.527 9H121.52V1H119.527V9ZM122.516 9H124.508V1H122.516V9ZM125.504 9H127.492V1H125.504V9ZM128.488 9H130.48V1H128.488V9ZM131.477 9H133.469V1H131.477V9ZM134.465 9H136.457V1H134.465V9ZM137.453 9H139.445V1H137.453V9ZM140.441 9H142.434V1H140.441V9ZM143.43 9H145.422V1H143.43V9ZM146.418 9H148.41V1H146.418V9ZM149.406 9H151.398V1H149.406V9ZM152.395 9H154.387V1H152.395V9ZM155.383 9H157.375V1H155.383V9ZM158.371 9H160.363V1H158.371V9ZM161.359 9H163.352V1H161.359V9ZM164.348 9H166.34V1H164.348V9ZM167.336 9H169.328V1H167.336V9ZM170.324 9H172.316V1H170.324V9ZM173.312 9H175.305V1H173.312V9ZM176.301 9H178.293V1H176.301V9ZM179.289 9H181.281V1H179.289V9ZM182.277 9H184.27V1H182.277V9ZM185.266 9H187.258V1H185.266V9ZM188.254 9H190.246V1H188.254V9ZM191.242 9H193.234V1H191.242V9ZM194.23 9H196.223V1H194.23V9ZM197.219 9H199.211V1H197.219V9ZM200.207 9H202.199V1H200.207V9ZM203.195 9H205.188V1H203.195V9ZM206.184 9H208.176V1H206.184V9ZM209.172 9H211.16V1H209.172V9ZM212.156 9H214.148V1H212.156V9ZM215.145 9H217.137V1H215.145V9ZM218.133 9H220.125V1H218.133V9ZM221.121 9H223.113V1H221.121V9ZM224.109 9H226.102V1H224.109V9ZM227.098 9H229.09V1H227.098V9ZM230.086 9H232.078V1H230.086V9ZM233.074 9H235.066V1H233.074V9ZM236.062 9H238.055V1H236.062V9ZM239.051 9H241.043V1H239.051V9ZM242.039 9H244.031V1H242.039V9ZM245.027 9H247.02V1H245.027V9ZM248.016 9H250.008V1H248.016V9ZM251.004 9H252.996V1H251.004V9ZM253.992 9H255.984V1H253.992V9ZM256.98 9H258.973V1H256.98V9ZM259.969 9H261.961V1H259.969V9ZM262.957 9H264.949V1H262.957V9ZM265.945 9H267.938V1H265.945V9ZM268.934 9H270.926V1H268.934V9ZM271.922 9H273.914V1H271.922V9ZM274.91 9H276.902V1H274.91V9ZM277.898 9H279.891V1H277.898V9ZM280.887 9H282.879V1H280.887V9ZM283.875 9H285.867V1H283.875V9ZM286.863 9H288.855V1H286.863V9ZM289.852 9H291.844V1H289.852V9ZM292.84 9H294.828V1H292.84V9ZM295.824 9H297.816V1H295.824V9ZM298.812 9H300.805V1H298.812V9ZM301.801 9H303.793V1H301.801V9ZM304.789 9H306.781V1H304.789V9ZM307.777 9H309.77V1H307.777V9ZM310.766 9H312.758V1H310.766V9ZM313.754 9H315.746V1H313.754V9ZM316.742 9H318.734V1H316.742V9ZM319.73 9H321.723V1H319.73V9ZM322.719 9H324.711V1H322.719V9ZM325.707 9H327.699V1H325.707V9ZM328.695 9H330.688V1H328.695V9ZM331.684 9H333.676V1H331.684V9ZM334.672 9H336.664V1H334.672V9ZM337.66 9H339.652V1H337.66V9ZM340.648 9H342.641V1H340.648V9ZM343.637 9H345.629V1H343.637V9ZM346.625 9H348.617V1H346.625V9ZM349.613 9H351.605V1H349.613V9ZM352.602 9H354.594V1H352.602V9ZM355.59 9H357.582V1H355.59V9ZM358.578 9H360.57V1H358.578V9ZM361.566 9H363.559V1H361.566V9ZM364.555 9H366.547V1H364.555V9ZM367.543 9H369.535V1H367.543V9ZM370.531 9H372.523V1H370.531V9ZM373.52 9H375.512V1H373.52V9ZM376.508 9H378.496V1H376.508V9ZM379.492 9H381.484V1H379.492V9ZM382.48 9H384.473V1H382.48V9ZM385.469 9H387.461V1H385.469V9ZM388.457 9H390.449V1H388.457V9ZM391.445 9H393.438V1H391.445V9ZM394.434 9H396.426V1H394.434V9ZM397.422 9H399.414V1H397.422V9ZM400.41 9H402.402V1H400.41V9ZM403.398 9H405.391V1H403.398V9ZM406.387 9H408.379V1H406.387V9ZM409.375 9H411.367V1H409.375V9ZM412.363 9H414.355V1H412.363V9ZM415.352 9H417.344V1H415.352V9ZM418.34 9H420.332V1H418.34V9ZM421.328 9H423.32V1H421.328V9ZM424.316 9H426.309V1H424.316V9ZM427.305 9H429.297V1H427.305V9ZM430.293 9H432.285V1H430.293V9ZM433.281 9H435.273V1H433.281V9ZM436.27 9H438.262V1H436.27V9ZM439.258 9H441.25V1H439.258V9ZM442.246 9H444.238V1H442.246V9ZM445.234 9H447.227V1H445.234V9ZM448.223 9H450.215V1H448.223V9ZM451.211 9H453.203V1H451.211V9ZM454.199 9H456.191V1H454.199V9ZM457.188 9H459.18V1H457.188V9ZM460.176 9H462.164V1H460.176V9ZM463.16 9H465.152V1H463.16V9ZM466.148 9H468.141V1H466.148V9ZM469.137 9H471.129V1H469.137V9ZM472.125 9H474.117V1H472.125V9ZM475.113 9H477.105V1H475.113V9ZM478.102 9H480.094V1H478.102V9ZM481.09 9H483.082V1H481.09V9ZM484.078 9H486.07V1H484.078V9ZM487.066 9H489.059V1H487.066V9ZM490.055 9H492.047V1H490.055V9ZM493.043 9H495.035V1H493.043V9ZM496.031 9H498.023V1H496.031V9ZM499.02 9H501.012V1H499.02V9ZM502.008 9H504V1H502.008V9ZM504.996 9H506.988V1H504.996V9ZM507.984 9H509.977V1H507.984V9ZM510.973 9H512.965V1H510.973V9ZM513.961 9H515.953V1H513.961V9ZM516.949 9H518.941V1H516.949V9ZM519.938 9H521.93V1H519.938V9ZM522.926 9H524.918V1H522.926V9ZM525.914 9H527.906V1H525.914V9ZM528.902 9H530.895V1H528.902V9ZM531.891 9H533.883V1H531.891V9ZM534.879 9H536.871V1H534.879V9ZM537.867 9H539.859V1H537.867V9ZM540.855 9H542.848V1H540.855V9ZM543.844 9H545.836V1H543.844V9ZM546.832 9H548.82V1H546.832V9ZM549.816 9H551.809V1H549.816V9ZM552.805 9H554.797V1H552.805V9ZM555.793 9H557.785V1H555.793V9ZM558.781 9H560.773V1H558.781V9ZM561.77 9H563.762V1H561.77V9ZM564.758 9H566.75V1H564.758V9ZM567.746 9H569.738V1H567.746V9ZM570.734 9H572.727V1H570.734V9ZM573.723 9H575.715V1H573.723V9ZM576.711 9H578.703V1H576.711V9ZM579.699 9H581.691V1H579.699V9ZM582.688 9H584.68V1H582.688V9ZM585.676 9H587.668V1H585.676V9ZM588.664 9H590.656V1H588.664V9ZM591.652 9H593.645V1H591.652V9ZM594.641 9H596.633V1H594.641V9ZM597.629 9H599.621V1H597.629V9ZM600.617 9H602.609V1H600.617V9ZM603.605 9H605.598V1H603.605V9ZM606.594 9H608.586V1H606.594V9ZM609.582 9H611.574V1H609.582V9ZM612.57 9H614.562V1H612.57V9ZM615.559 9H617.551V1H615.559V9ZM618.547 9H620.539V1H618.547V9ZM621.535 9H623.527V1H621.535V9ZM624.523 9H626.516V1H624.523V9ZM627.512 9H629.5V1H627.512V9ZM630.496 9H632.488V1H630.496V9ZM633.484 9H635.477V1H633.484V9ZM636.473 9H638.465V1H636.473V9ZM639.461 9H641.453V1H639.461V9ZM642.449 9H644.441V1H642.449V9ZM645.438 9H647.43V1H645.438V9ZM648.426 9H650.418V1H648.426V9ZM651.414 9H653.406V1H651.414V9ZM654.402 9H656.395V1H654.402V9ZM657.391 9H659.383V1H657.391V9ZM660.379 9H662.371V1H660.379V9ZM663.367 9H665.359V1H663.367V9ZM666.355 9H668.348V1H666.355V9ZM669.344 9H671.336V1H669.344V9ZM672.332 9H674.324V1H672.332V9ZM675.32 9H677.312V1H675.32V9ZM678.309 9H680.301V1H678.309V9ZM681.297 9H683.289V1H681.297V9ZM684.285 9H686.277V1H684.285V9ZM687.273 9H689.266V1H687.273V9ZM690.262 9H692.254V1H690.262V9ZM693.25 9H695.242V1H693.25V9ZM696.238 9H698.23V1H696.238V9ZM699.227 9H701.219V1H699.227V9ZM702.215 9H704.207V1H702.215V9ZM705.203 9H707.195V1H705.203V9ZM708.191 9H710.184V1H708.191V9ZM711.18 9H713.172V1H711.18V9ZM714.168 9H716.156V1H714.168V9ZM717.152 9H719.145V1H717.152V9ZM720.141 9H722.133V1H720.141V9ZM723.129 9H725.121V1H723.129V9ZM726.117 9H728.109V1H726.117V9ZM729.105 9H731.098V1H729.105V9ZM732.094 9H734.086V1H732.094V9ZM735.082 9H737.074V1H735.082V9ZM738.07 9H740.062V1H738.07V9ZM741.059 9H743.051V1H741.059V9ZM744.047 9H746.039V1H744.047V9ZM747.035 9H749.027V1H747.035V9ZM750.023 9H752.016V1H750.023V9ZM753.012 9H755.004V1H753.012V9ZM756 9H757.992V1H756V9ZM758.988 9H760.98V1H758.988V9ZM761.977 9H763.969V1H761.977V9ZM764.965 9H766.957V1H764.965V9ZM767.953 9H769.945V1H767.953V9ZM770.941 9H772.934V1H770.941V9ZM773.93 9H775.922V1H773.93V9ZM776.918 9H778.91V1H776.918V9ZM779.906 9H781.898V1H779.906V9ZM782.895 9H784.887V1H782.895V9ZM785.883 9H787.875V1H785.883V9ZM788.871 9H790.863V1H788.871V9ZM791.859 9H793.852V1H791.859V9ZM794.848 9H796.84V1H794.848V9ZM797.836 9H799.824V1H797.836V9ZM800.82 9H802.812V1H800.82V9ZM803.809 9H805.801V1H803.809V9ZM806.797 9H808.789V1H806.797V9ZM809.785 9H811.777V1H809.785V9ZM812.773 9H814.766V1H812.773V9ZM815.762 9H817.754V1H815.762V9ZM818.75 9H820.742V1H818.75V9ZM821.738 9H823.73V1H821.738V9ZM824.727 9H826.719V1H824.727V9ZM827.715 9H829.707V1H827.715V9ZM830.703 9H832.695V1H830.703V9ZM833.691 9H835.684V1H833.691V9ZM836.68 9H838.672V1H836.68V9ZM839.668 9H841.66V1H839.668V9ZM842.656 9H844.648V1H842.656V9ZM845.645 9H847.637V1H845.645V9ZM848.633 9H850.625V1H848.633V9ZM851.621 9H853.613V1H851.621V9ZM854.609 9H856.602V1H854.609V9ZM857.598 9H859.59V1H857.598V9ZM860.586 9H862.578V1H860.586V9ZM863.574 9H865.566V1H863.574V9ZM866.562 9H868.555V1H866.562V9ZM869.551 9H871.543V1H869.551V9ZM872.539 9H874.531V1H872.539V9ZM875.527 9H877.52V1H875.527V9ZM878.516 9H880.508V1H878.516V9ZM881.504 9H883.492V1H881.504V9ZM884.488 9H886.48V1H884.488V9ZM887.477 9H889.469V1H887.477V9ZM890.465 9H892.457V1H890.465V9ZM893.453 9H895.445V1H893.453V9ZM896.441 9H898.434V1H896.441V9ZM899.43 9H901.422V1H899.43V9ZM902.418 9H904.41V1H902.418V9ZM905.406 9H907.398V1H905.406V9ZM908.395 9H910.387V1H908.395V9ZM911.383 9H913.375V1H911.383V9ZM914.371 9H916.363V1H914.371V9ZM917.359 9H919.352V1H917.359V9ZM920.348 9H922.34V1H920.348V9ZM923.336 9H925.328V1H923.336V9ZM926.324 9H928.316V1H926.324V9ZM929.312 9H931.305V1H929.312V9ZM932.301 9H934.293V1H932.301V9ZM935.289 9H937.281V1H935.289V9ZM938.277 9H940.27V1H938.277V9ZM941.266 9H943.258V1H941.266V9ZM944.254 9H946.246V1H944.254V9ZM947.242 9H949.234V1H947.242V9ZM950.23 9H952.223V1H950.23V9ZM953.219 9H955.211V1H953.219V9ZM956.207 9H958.199V1H956.207V9ZM959.195 9H961.188V1H959.195V9ZM962.184 9H964.176V1H962.184V9ZM965.172 9H967.16V1H965.172V9ZM968.156 9H970.148V1H968.156V9ZM971.145 9H973.137V1H971.145V9ZM974.133 9H976.125V1H974.133V9ZM977.121 9H979.113V1H977.121V9ZM980.109 9H982.102V1H980.109V9ZM983.098 9H985.09V1H983.098V9ZM986.086 9H988.078V1H986.086V9ZM989.074 9H991.066V1H989.074V9ZM992.062 9H994.055V1H992.062V9ZM995.051 9H997.043V1H995.051V9ZM998.039 9H1000.03V1H998.039V9ZM1001.03 9H1003.02V1H1001.03V9ZM1004.02 9H1006.01V1H1004.02V9ZM1007 9H1009V1H1007V9ZM1009.99 9H1011.98V1H1009.99V9ZM1012.98 9H1014.97V1H1012.98V9ZM1015.97 9H1017.96V1H1015.97V9ZM1018.96 9H1020.95V1H1018.96V9ZM1021.95 9H1023.94V1H1021.95V9ZM1024.93 9H1026.93V1H1024.93V9ZM1027.92 9H1029.91V1H1027.92V9ZM1030.91 9H1032.9V1H1030.91V9ZM1033.9 9H1035.89V1H1033.9V9ZM1036.89 9H1038.88V1H1036.89V9ZM1039.88 9H1041.87V1H1039.88V9ZM1042.86 9H1044.86V1H1042.86V9ZM1045.85 9H1047.84V1H1045.85V9ZM1048.84 9H1050.83V1H1048.84V9ZM1051.82 9H1053.82V1H1051.82V9ZM1054.81 9H1056.8V1H1054.81V9ZM1057.8 9H1059.79V1H1057.8V9ZM1060.79 9H1062.78V1H1060.79V9ZM1063.78 9H1065.77V1H1063.78V9ZM1066.77 9H1068.76V1H1066.77V9ZM1069.75 9H1071.75V1H1069.75V9ZM1072.74 9H1074.73V1H1072.74V9ZM1075.73 9H1077.72V1H1075.73V9ZM1078.72 9H1080.71V1H1078.72V9ZM1081.71 9H1083.7V1H1081.71V9ZM1084.7 9H1086.69V1H1084.7V9ZM1087.68 9H1089.68V1H1087.68V9ZM1090.67 9H1092.66V1H1090.67V9ZM1093.66 9H1095.65V1H1093.66V9ZM1096.65 9H1098.64V1H1096.65V9ZM1099.64 9H1101.63V1H1099.64V9ZM1102.62 9H1104.62V1H1102.62V9ZM1105.61 9H1107.61V1H1105.61V9ZM1108.6 9H1110.59V1H1108.6V9ZM1111.59 9H1113.58V1H1111.59V9ZM1114.58 9H1116.57V1H1114.58V9ZM1117.57 9H1119.56V1H1117.57V9ZM1120.55 9H1122.55V1H1120.55V9ZM1123.54 9H1125.54V1H1123.54V9ZM1126.53 9H1128.52V1H1126.53V9ZM1129.52 9H1131.51V1H1129.52V9ZM1132.51 9H1134.5V1H1132.51V9ZM1135.5 9H1137.48V1H1135.5V9ZM1138.48 9H1140.47V1H1138.48V9ZM1141.47 9H1143.46V1H1141.47V9ZM1144.46 9H1146.45V1H1144.46V9ZM1147.45 9H1149.44V1H1147.45V9ZM1150.43 9H1152.43V1H1150.43V9ZM1153.42 9H1155.41V1H1153.42V9ZM1156.41 9H1158.4V1H1156.41V9ZM1159.4 9H1161.39V1H1159.4V9ZM1162.39 9H1164.38V1H1162.39V9ZM1165.38 9H1167.37V1H1165.38V9ZM1168.36 9H1170.36V1H1168.36V9ZM1171.35 9H1173.34V1H1171.35V9ZM1174.34 9H1176.33V1H1174.34V9ZM1177.33 9H1179.32V1H1177.33V9ZM1180.32 9H1182.31V1H1180.32V9ZM1183.3 9H1185.3V1H1183.3V9ZM1186.29 9H1188.29V1H1186.29V9ZM1189.28 9H1191.27V1H1189.28V9ZM1192.27 9H1194.26V1H1192.27V9ZM1195.26 9H1197.25V1H1195.26V9ZM1198.25 9H1200.24V1H1198.25V9ZM1201.23 9H1203.23V1H1201.23V9ZM1204.22 9H1206.21V1H1204.22V9ZM1207.21 9H1209.2V1H1207.21V9ZM1210.2 9H1212.19V1H1210.2V9ZM1213.19 9H1215.18V1H1213.19V9ZM1216.18 9H1218.16V1H1216.18V9ZM1219.16 9H1221.15V1H1219.16V9ZM1222.15 9H1224.14V1H1222.15V9ZM1225.14 9H1227.13V1H1225.14V9ZM1228.12 9H1230.12V1H1228.12V9ZM1231.11 9H1233.11V1H1231.11V9ZM1234.1 9H1236.09V1H1234.1V9ZM1237.09 9H1239.08V1H1237.09V9ZM1240.08 9H1242.07V1H1240.08V9ZM1243.07 9H1245.06V1H1243.07V9ZM1246.05 9H1248.05V1H1246.05V9ZM1249.04 9H1251.04V1H1249.04V9ZM1252.03 9H1254.02V1H1252.03V9ZM1255.02 9H1257.01V1H1255.02V9ZM1258.01 9H1260V1H1258.01V9ZM1261 9H1262.99V1H1261V9ZM1263.98 9H1265.98V1H1263.98V9ZM1266.97 9H1268.96V1H1266.97V9ZM1269.96 9H1271.95V1H1269.96V9ZM1272.95 9H1274.94V1H1272.95V9ZM1275.94 9H1277.93V1H1275.94V9ZM1278.93 9H1280.92V1H1278.93V9ZM1281.91 9H1283.91V1H1281.91V9ZM1284.9 9H1286.89V1H1284.9V9ZM1287.89 9H1289.88V1H1287.89V9ZM1290.88 9H1292.87V1H1290.88V9ZM1293.87 9H1295.86V1H1293.87V9ZM1296.86 9H1298.85V1H1296.86V9ZM1299.84 9H1301.84V1H1299.84V9ZM1302.83 9H1304.82V1H1302.83V9ZM1305.82 9H1307.81V1H1305.82V9ZM1308.8 9H1310.8V1H1308.8V9ZM1311.79 9H1313.79V1H1311.79V9ZM1314.78 9H1316.77V1H1314.78V9ZM1317.77 9H1319.76V1H1317.77V9ZM1320.76 9H1322.75V1H1320.76V9ZM1323.75 9H1325.74V1H1323.75V9ZM1326.73 9H1328.73V1H1326.73V9ZM1329.72 9H1331.71V1H1329.72V9ZM1332.71 9H1334.7V1H1332.71V9ZM1335.7 9H1337.69V1H1335.7V9ZM1338.69 9H1340.68V1H1338.69V9ZM1341.68 9H1343.67V1H1341.68V9ZM1344.66 9H1346.66V1H1344.66V9ZM1347.65 9H1349.64V1H1347.65V9ZM1350.64 9H1352.63V1H1350.64V9ZM1353.63 9H1355.62V1H1353.63V9ZM1356.62 9H1358.61V1H1356.62V9ZM1359.61 9H1361.6V1H1359.61V9ZM1362.59 9H1364.59V1H1362.59V9ZM1365.58 9H1367.57V1H1365.58V9ZM1368.57 9H1370.56V1H1368.57V9ZM1371.56 9H1373.55V1H1371.56V9ZM1374.55 9H1376.54V1H1374.55V9ZM1377.54 9H1379.53V1H1377.54V9ZM1380.52 9H1382.52V1H1380.52V9ZM1383.51 9H1385.5V1H1383.51V9ZM1386.5 9H1388.49V1H1386.5V9ZM1389.48 9H1391.48V1H1389.48V9ZM1392.47 9H1394.46V1H1392.47V9ZM1395.46 9H1397.45V1H1395.46V9ZM1398.45 9H1400.44V1H1398.45V9ZM1401.44 9H1403.43V1H1401.44V9ZM1407.41 9H1409.41V1H1407.41V9ZM1410.4 9H1412.39V1H1410.4V9ZM1413.39 9H1415.38V1H1413.39V9ZM1416.38 9H1418.37V1H1416.38V9ZM1419.37 9H1421.36V1H1419.37V9ZM1422.36 9H1424.35V1H1422.36V9ZM1425.34 9H1427.34V1H1425.34V9ZM1428.33 9H1430.32V1H1428.33V9ZM1431.32 9H1433.31V1H1431.32V9ZM1434.31 9H1436.3V1H1434.31V9ZM1437.3 9H1439.29V1H1437.3V9ZM1440.29 9H1442.28V1H1440.29V9ZM1443.27 9H1445.27V1H1443.27V9ZM1446.26 9H1448.25V1H1446.26V9ZM1449.25 9H1451.24V1H1449.25V9ZM1452.24 9H1454.23V1H1452.24V9ZM1455.23 9H1457.22V1H1455.23V9ZM1458.21 9H1460.21V1H1458.21V9ZM1461.2 9H1463.2V1H1461.2V9ZM1464.19 9H1466.18V1H1464.19V9ZM1467.18 9H1469.17V1H1467.18V9ZM1470.17 9H1472.16V1H1470.17V9ZM1473.15 9H1475.14V1H1473.15V9ZM1476.14 9H1478.13V1H1476.14V9ZM1479.13 9H1481.12V1H1479.13V9ZM1482.12 9H1484.11V1H1482.12V9ZM1485.11 9H1487.1V1H1485.11V9ZM1488.09 9H1490.09V1H1488.09V9ZM1491.08 9H1493.07V1H1491.08V9ZM1494.07 9H1496.06V1H1494.07V9ZM1497.06 9H1499.05V1H1497.06V9ZM1500.05 9H1502.04V1H1500.05V9ZM1503.04 9H1505.03V1H1503.04V9ZM1506.02 9H1508.02V1H1506.02V9ZM1404.43 9H1406.42V1H1404.43V9Z"
    fill="white"
    fill-opacity="0.1"
  />
</svg>
