<svg xmlns="http://www.w3.org/2000/svg" viewBox="0 0 24 24" fill="none"><path d="M9.99995 12C9.99995 9.02506 10.3299 6.36771 10.8434 4.48495C11.1021 3.53641 11.3923 2.84109 11.6726 2.40636C11.8732 2.09533 11.9998 2.01683 12.0326 2.00006C17.5295 2.01761 21.9823 6.47041 21.9999 11.9674C21.9831 12.0001 21.9046 12.1268 21.5936 12.3273C21.1589 12.6076 20.4635 12.8979 19.515 13.1566C17.6323 13.67 14.9749 14 11.9999 14C11.3316 14 10.6793 13.9834 10.0482 13.9517C10.0166 13.3206 9.99995 12.6683 9.99995 12Z" fill="currentColor"/><path d="M8.03867 13.7939C6.68364 13.6467 5.47677 13.4271 4.48489 13.1566C3.53635 12.8979 2.84103 12.6076 2.40629 12.3273C2.09527 12.1268 2.01677 12.0001 2 11.9674C2.0148 7.33262 5.18262 3.44015 9.47087 2.32258C9.26073 2.81339 9.07563 3.36556 8.91386 3.95872C8.34156 6.05718 7.99995 8.89983 7.99995 12C7.99995 12.6091 8.01314 13.2083 8.03867 13.7939Z" fill="currentColor"/><path d="M8.18077 15.8192C8.33654 17.4082 8.58775 18.8456 8.91386 20.0413C9.07563 20.6345 9.26073 21.1866 9.47087 21.6774C5.98036 20.7678 3.23219 18.0196 2.32252 14.5291C2.81333 14.7392 3.3655 14.9243 3.95866 15.0861C5.1544 15.4122 6.59179 15.6634 8.18077 15.8192Z" fill="currentColor"/><path d="M12.0326 22C16.6673 21.9852 20.5598 18.8173 21.6774 14.5291C21.1866 14.7392 20.6344 14.9243 20.0412 15.0861C17.9428 15.6584 15.1001 16 11.9999 16C11.3908 16 10.7916 15.9868 10.2061 15.9613C10.3533 17.3163 10.5729 18.5232 10.8434 19.5151C11.1021 20.4636 11.3923 21.1589 11.6726 21.5937C11.8732 21.9047 11.9998 21.9832 12.0326 22Z" fill="currentColor"/></svg>
