<svg xmlns="http://www.w3.org/2000/svg" viewBox="0 0 24 24" fill="none"><path fill-rule="evenodd" clip-rule="evenodd" d="M16.2255 8.37866C16.2737 7.82848 16.7587 7.42149 17.3089 7.46963L20.0659 7.71084C21.8343 7.86555 23.1423 9.42447 22.9876 11.1928C22.8329 12.9611 21.274 14.2692 19.5057 14.1145L17.7448 13.9605L17.639 15.1699C17.5909 15.7201 17.1058 16.1271 16.5557 16.0789C16.0055 16.0308 15.5985 15.5458 15.6466 14.9956L15.723 14.1229C14.9801 15.4305 13.5747 16.3125 11.9633 16.3125C9.83412 16.3125 8.06461 14.7725 7.70781 12.7456C7.23536 13.3943 6.52085 13.868 5.66813 14.0183L3.9274 14.3253L4.13822 15.5209C4.23412 16.0648 3.87095 16.5835 3.32706 16.6794C2.78316 16.7753 2.26451 16.4121 2.1686 15.8682L1.0152 9.32691C0.969142 9.06572 1.02873 8.79693 1.18085 8.57968C1.33297 8.36243 1.56517 8.2145 1.82636 8.16845L4.55189 7.68786C6.16524 7.40339 7.7095 8.37567 8.18032 9.90146C8.91689 8.57103 10.3349 7.67028 11.9633 7.67028C13.8422 7.67028 15.4409 8.8694 16.0361 10.5441L16.2255 8.37866ZM3.5801 12.3557L5.32083 12.0487C5.98116 11.9323 6.42207 11.3026 6.30563 10.6423C6.1892 9.98196 5.55952 9.54105 4.89919 9.65748L3.15846 9.96442L3.5801 12.3557ZM17.9191 11.9681L19.68 12.1221C20.3479 12.1806 20.9368 11.6864 20.9953 11.0185C21.0537 10.3505 20.5596 9.76167 19.8916 9.70323L18.1308 9.54917L17.9191 11.9681ZM11.9633 9.67028C10.6814 9.67028 9.64221 10.7095 9.64221 11.9914C9.64221 13.2733 10.6814 14.3125 11.9633 14.3125C13.2452 14.3125 14.2844 13.2733 14.2844 11.9914C14.2844 10.7095 13.2452 9.67028 11.9633 9.67028Z" fill="currentColor"/><path d="M7.51352 17.7743C7.63262 17.4615 8.06034 17.4246 8.23126 17.7124L8.79115 18.655C8.85899 18.7693 8.97912 18.8424 9.11175 18.8501L10.2021 18.9138C10.5308 18.9329 10.6969 19.3189 10.4848 19.5708L9.75966 20.4317C9.67634 20.5306 9.646 20.6637 9.67821 20.789L9.95906 21.881C10.0418 22.2025 9.71936 22.479 9.41417 22.3483L8.41978 21.9224C8.29641 21.8695 8.15476 21.8821 8.0426 21.9558L7.13787 22.5503C6.85952 22.7333 6.49261 22.5158 6.51949 22.1838L6.61015 21.0641C6.62064 20.9346 6.56763 20.8082 6.46799 20.7249L5.60857 20.0065C5.35644 19.7958 5.4519 19.3878 5.77135 19.3107L6.8405 19.053C6.96882 19.0221 7.07362 18.9298 7.12058 18.8065L7.51352 17.7743Z" fill="currentColor"/><path d="M14.7666 0.71238C14.9376 0.42459 15.3653 0.461505 15.4844 0.774324L15.8773 1.80646C15.9243 1.92982 16.0291 2.02206 16.1574 2.053L17.2265 2.31075C17.546 2.38776 17.6415 2.79577 17.3893 3.00651L16.5299 3.72487C16.4303 3.80816 16.3773 3.93463 16.3877 4.06406L16.4784 5.18378C16.5053 5.51576 16.1384 5.73326 15.86 5.55033L14.9553 4.95576C14.8431 4.88205 14.7015 4.8695 14.5781 4.92235L13.5837 5.34831C13.2785 5.47903 12.9561 5.20253 13.0388 4.88099L13.3197 3.78897C13.3519 3.6637 13.3216 3.53059 13.2382 3.43166L12.5131 2.57075C12.301 2.3189 12.467 1.93294 12.7958 1.91375L13.8861 1.8501C14.0188 1.84236 14.1389 1.76927 14.2067 1.65505L14.7666 0.71238Z" fill="currentColor"/><path d="M9.99895 4.50016C9.99895 5.32859 9.32737 6.00016 8.49895 6.00016C7.67052 6.00016 6.99895 5.32859 6.99895 4.50016C6.99895 3.67173 7.67052 3.00016 8.49895 3.00016C9.32737 3.00016 9.99895 3.67173 9.99895 4.50016Z" fill="currentColor"/><path d="M16.9989 19.5002C16.9989 20.3286 16.3274 21.0002 15.4989 21.0002C14.6705 21.0002 13.9989 20.3286 13.9989 19.5002C13.9989 18.6717 14.6705 18.0002 15.4989 18.0002C16.3274 18.0002 16.9989 18.6717 16.9989 19.5002Z" fill="currentColor"/></svg>
