<svg xmlns="http://www.w3.org/2000/svg" viewBox="0 0 24 24" fill="none">
<path d="M14.5 3.75H9.5C7.84315 3.75 6.5 5.09315 6.5 6.75V17.25C6.5 18.9069 7.84315 20.25 9.5 20.25H14.5C16.1569 20.25 17.5 18.9069 17.5 17.25V6.75C17.5 5.09315 16.1569 3.75 14.5 3.75Z" stroke="currentColor" stroke-width="1.5" stroke-linecap="round" stroke-linejoin="round"/><path d="M6.5 18.25H5.75C4.09315 18.25 2.75 16.9069 2.75 15.25V8.75C2.75 7.09315 4.09315 5.75 5.75 5.75H6.5" stroke="currentColor" stroke-width="1.5" stroke-linecap="round" stroke-linejoin="round"/><path d="M17.5 5.75H18.25C19.9069 5.75 21.25 7.09315 21.25 8.75V15.25C21.25 16.9069 19.9069 18.25 18.25 18.25H17.5" stroke="currentColor" stroke-width="1.5" stroke-linecap="round" stroke-linejoin="round"/>
</svg>
