<svg viewBox="0 0 24 24" fill="none" xmlns="http://www.w3.org/2000/svg"><path fill-rule="evenodd" clip-rule="evenodd" d="M8.26225 3.00973C8.0986 3.00324 7.93188 3 7.76208 3C5.79046 3 4.2212 3.49473 3.05424 4.48421C1.88726 5.47369 1.30379 6.76841 1.30379 8.36842C1.30379 9.7263 1.9219 10.7895 3.15814 11.5579C3.85086 12 4.92722 12.4 6.38726 12.7579L8.26225 13.2242V10.3881L7.21853 10.1369C6.38726 9.93683 5.75849 9.70523 5.33221 9.44213C4.59686 9 4.22919 8.4105 4.22919 7.6737C4.22919 7 4.50893 6.4579 5.06844 6.04737C5.62795 5.63684 6.45121 5.43157 7.53828 5.43157C7.79125 5.43157 8.0326 5.44058 8.26225 5.45857V3.00973ZM8.26225 20.9965V18.5978C8.20248 18.5993 8.14233 18.6 8.08173 18.6C6.29134 18.6 5.03381 18.142 4.30912 17.2263C3.9148 16.721 3.67501 15.9947 3.58976 15.0473H0.824219C0.898821 16.7316 1.46631 18.1447 2.5267 19.2868C3.5871 20.4289 5.39081 21 7.93788 21C8.0473 21 8.15538 20.9988 8.26225 20.9965ZM11.7762 15.0473C11.8615 15.9947 12.1011 16.721 12.4953 17.2263C13.2197 18.142 14.4766 18.6 16.2663 18.6C17.3315 18.6 18.2689 18.371 19.0785 17.9131C19.8881 17.4553 20.2929 16.7474 20.2929 15.7895C20.2929 15.0631 19.968 14.5106 19.3182 14.1316C18.9027 13.9001 18.0825 13.6315 16.8575 13.3264L14.5725 12.7579C13.1131 12.4 12.0372 12 11.3448 11.5579C10.1091 10.7895 9.49135 9.7263 9.49135 8.36842C9.49135 6.76841 10.0746 5.47369 11.241 4.48421C12.4074 3.49473 13.976 3 15.9467 3C18.5246 3 20.3835 3.74736 21.5232 5.24211C22.2369 6.18947 22.5831 7.21052 22.5618 8.30527H19.8454C19.7922 7.66312 19.5632 7.07894 19.1583 6.55264C18.4979 5.80525 17.3528 5.43157 15.723 5.43157C14.6364 5.43157 13.8135 5.63684 13.2543 6.04737C12.6951 6.4579 12.4154 7 12.4154 7.6737C12.4154 8.4105 12.7829 9 13.518 9.44213C13.944 9.70523 14.5725 9.93683 15.4034 10.1369L17.3049 10.5947C19.3714 11.0895 20.7562 11.5685 21.4593 12.0316C22.5778 12.758 23.137 13.9001 23.137 15.4579C23.137 16.9631 22.5592 18.2631 21.4034 19.3579C20.2476 20.4526 18.4873 21 16.1224 21C13.5765 21 11.7736 20.4289 10.7137 19.2868C9.65373 18.1447 9.0865 16.7316 9.01195 15.0473H11.7762Z" fill="currentColor"/></svg>
