<svg viewBox="0 0 122 36" fill="none" xmlns="http://www.w3.org/2000/svg">
<path
    fill-rule="evenodd"
    clip-rule="evenodd"
    d="M13.9724 2.12782C16.1491 -1.1941 21.5045 -0.503766 22.6742 3.34401C22.7829 3.68548 22.8721 4.03587 22.9554 4.38156L23.1981 5.39767L23.2024 5.41196C23.553 7.03703 24.3129 8.61429 25.461 9.84798L25.6952 10.0909L25.7051 10.1009L25.9336 10.3225C26.4836 10.82 27.1569 11.1717 27.8966 11.4486C28.3228 11.6081 28.7607 11.7391 29.2016 11.8602L30.5279 12.2103L30.535 12.2118L31.9684 12.6219C34.2406 13.1334 36.0703 15.3337 35.9588 17.8225L35.9574 17.8211C35.9168 19.9108 34.5049 21.9005 32.4824 22.5144C32.4774 22.5162 32.4719 22.5182 32.4667 22.5201C32.4634 22.5211 32.4599 22.5233 32.4567 22.5244L32.4553 22.5229C32.2404 22.5978 31.8202 22.7052 31.4345 22.7988C31.0101 22.9017 30.6054 22.9962 30.4208 23.0474L30.408 23.0503L30.3937 23.0531C26.921 23.7914 23.9441 26.7145 23.3909 30.2488L23.388 30.2717L23.0811 31.7251C22.2465 36.8165 15.0195 37.6343 13.1786 32.6869L13.1757 32.6769L13.1715 32.6669C13.1579 32.6243 13.1352 32.5601 13.1086 32.4854C13.0847 32.4182 13.0569 32.3376 13.0387 32.2782L13.033 32.2625L13.0301 32.2467C12.9941 32.0894 12.9596 31.9319 12.9273 31.7737C12.624 30.3158 12.4753 28.9792 11.8551 27.7364L11.8494 27.725C10.7214 25.2865 8.27279 23.573 5.63039 23.126L5.61897 23.1246L5.60898 23.1217C5.03993 22.9966 4.30576 22.876 3.63163 22.6787C2.95347 22.4802 2.25933 22.1849 1.70995 21.6655C-1.12782 19.2538 -0.289439 14.428 3.16049 13.1364L3.50171 13.0221C3.90607 12.8966 5.20612 12.6275 5.57757 12.5433L5.59327 12.5405C7.32889 12.2111 9.03399 11.4146 10.3204 10.1481L10.3261 10.1438C11.6335 8.89936 12.5115 7.219 12.8773 5.4777L12.8802 5.46341L12.8845 5.44912C12.9537 5.2033 13.0091 4.94978 13.0658 4.6831C13.1217 4.42034 13.1798 4.14041 13.25 3.86135C13.3915 3.29847 13.5917 2.70694 13.9724 2.12782ZM19.1649 4.34154C18.2382 3.46539 16.7358 3.84052 16.2767 5.08183L16.2695 5.10041L16.261 5.11899C14.1632 9.50051 10.9969 13.1673 6.70116 15.5531L6.69973 15.5516C6.54115 15.6438 6.15716 15.8473 5.79743 16.0375C5.41132 16.2418 5.06213 16.4289 4.94938 16.502L4.94225 16.5063C4.35177 16.875 4.11671 17.6852 4.36546 18.3742C4.51138 18.6751 4.59524 18.8145 4.70953 18.9287C4.83064 19.0495 5.01008 19.1693 5.39768 19.3731C9.7405 21.5902 13.3417 24.9206 15.8098 29.0998C16.056 29.5096 16.3346 30.0355 16.5551 30.4203C16.6709 30.6224 16.7745 30.793 16.862 30.9177C16.9056 30.9796 16.9407 31.0227 16.9663 31.0506C16.9724 31.0572 16.977 31.0628 16.9805 31.0663L16.9977 31.0749L17.0291 31.0992C17.8703 31.7428 19.0284 31.4467 19.4262 30.4489L19.4333 30.4303L19.4419 30.4132C20.6496 28.0237 22.2503 25.7405 24.1104 23.9192C25.6241 22.4247 27.3609 21.1226 29.3343 20.142C29.7454 19.9232 30.2846 19.6699 30.6664 19.4732C30.8725 19.3669 31.0496 19.2695 31.186 19.1816C31.2539 19.1379 31.3074 19.0992 31.3459 19.0673C31.3642 19.0521 31.378 19.0397 31.3874 19.0301C31.3961 19.0212 31.4002 19.0159 31.4002 19.0159L31.4159 18.993L31.4345 18.973C32.0393 18.3188 31.842 17.154 31.0804 16.7721L31.0675 16.7664L31.0547 16.7578C30.9532 16.6985 30.5844 16.5277 30.1652 16.3362C29.7665 16.1541 29.3408 15.9619 29.1701 15.8789C28.1157 15.4056 27.2268 14.7005 26.4247 13.9453C26.022 13.5661 25.637 13.1691 25.2626 12.7806C24.8857 12.3896 24.5202 12.0088 24.1504 11.6473L24.1447 11.6415C22.6665 10.1429 21.3314 8.43758 20.3299 6.46523C20.1007 6.0422 19.8577 5.524 19.656 5.12756C19.5503 4.91968 19.4535 4.73967 19.3662 4.59879C19.2724 4.44746 19.213 4.38143 19.192 4.36441L19.1777 4.3544L19.1649 4.34154Z"
    fill="white"
  />
<path
    fill-rule="evenodd"
    clip-rule="evenodd"
    d="M86.9216 10.7112C88.7341 10.7112 90.4884 11.1493 91.5702 11.793V27.0133C91.5702 30.9938 89.3478 33.3643 85.4882 33.3643C83.6173 33.3642 81.7758 32.8962 80.6355 32.2525L81.3951 30.5547C82.3014 31.0522 83.705 31.4621 85.0499 31.4622C87.9153 31.4622 89.026 29.7062 89.0261 27.3062V26.253C88.3243 26.6625 87.2718 26.9547 85.898 26.9547C82.097 26.9546 79.699 23.9401 79.699 19.1402C79.699 14.0767 82.2142 10.7112 86.9216 10.7112ZM86.7746 12.2618C83.6174 12.2622 82.2732 14.9254 82.2731 19.0516C82.2731 23.0613 83.5589 25.3454 86.5704 25.3455C87.5644 25.3455 88.4413 25.0521 89.0261 24.7009V12.7005C88.4413 12.4081 87.6222 12.2618 86.7746 12.2618Z"
    fill="white"
  />
<path
    fill-rule="evenodd"
    clip-rule="evenodd"
    d="M54.91 10.7112C59.1788 10.7112 61.1376 14.165 61.1376 18.8772C61.1374 23.6184 59.1787 27.0718 54.91 27.0719C50.6412 27.0719 48.6825 23.6184 48.6824 18.8772C48.6824 14.165 50.6411 10.7112 54.91 10.7112ZM54.91 12.3504C52.1615 12.3504 51.2551 15.3064 51.2551 18.8186C51.2552 22.3306 52.1616 25.3455 54.91 25.3455C57.6583 25.3454 58.5648 22.3306 58.5649 18.8186C58.5649 15.3064 57.6584 12.3504 54.91 12.3504Z"
    fill="white"
  />
<path
    fill-rule="evenodd"
    clip-rule="evenodd"
    d="M101.054 10.7112C105.323 10.7114 107.282 14.1651 107.282 18.8772C107.282 23.6183 105.323 27.0717 101.054 27.0719C96.7856 27.0719 94.8269 23.6184 94.8268 18.8772C94.8268 14.165 96.7855 10.7112 101.054 10.7112ZM101.054 12.3504C98.3059 12.3504 97.3995 15.3064 97.3995 18.8186C97.3996 22.3306 98.306 25.3455 101.054 25.3455C103.802 25.3452 104.709 22.3305 104.709 18.8186C104.709 15.3065 103.803 12.3506 101.054 12.3504Z"
    fill="white"
  />
<path
    d="M69.7737 10.7112C70.3584 10.7112 71.0023 10.7691 71.1485 10.7984L70.5632 12.7305C70.0955 12.555 69.5402 12.4662 68.9556 12.4661C68.2539 12.4661 67.5224 12.5836 66.9668 12.8763V26.7789H64.3941V11.823C65.739 11.1499 67.5224 10.7112 69.7737 10.7112Z"
    fill="white"
  />
<path d="M76.2725 26.7789H73.6998V11.0027H76.2725V26.7789Z" fill="white" />
<path
    d="M115.889 10.7112C120.129 10.7113 122 12.5553 122 15.8918V26.7789H119.427V15.8918C119.427 13.5212 118.462 12.3506 115.889 12.3504C114.808 12.3504 113.93 12.5251 113.111 12.8763V26.7789H110.539V11.823C112 11.1499 113.931 10.7112 115.889 10.7112Z"
    fill="white"
  />
<path
    d="M74.9862 5.12042C75.8341 5.12042 76.5366 5.76501 76.5366 6.55526C76.5362 7.3452 75.8338 7.98868 74.9862 7.98868C74.1386 7.98852 73.4375 7.3451 73.4371 6.55526C73.4371 5.76511 74.1384 5.12058 74.9862 5.12042Z"
    fill="white"
  />
</svg>
