<svg viewBox="0 0 153 25" fill="none" xmlns="http://www.w3.org/2000/svg">
<path
    fill-rule="evenodd"
    clip-rule="evenodd"
    d="M107.485 5.64999C109.206 5.61149 110.885 6.19583 112.211 7.29452C113.57 8.47925 114.29 10.1916 114.29 12.2467C114.322 13.924 113.761 15.559 112.71 16.8648C111.591 18.1928 109.927 18.9391 108.192 18.8922C107.074 18.8358 105.995 18.462 105.082 17.8141V24.7994H101.878V7.04647C103.609 6.14306 105.532 5.66429 107.485 5.64999ZM107.241 8.32089H107.156C106.437 8.32167 105.728 8.49077 105.085 8.81405V14.8199C105.66 15.7141 106.65 16.2537 107.712 16.2516C107.791 16.2515 107.872 16.2489 107.951 16.2428C108.772 16.2275 109.537 15.8247 110.016 15.1568C110.613 14.3152 110.92 13.3012 110.888 12.2691C110.927 11.2409 110.585 10.2336 109.927 9.44296C109.239 8.6933 108.257 8.28314 107.241 8.32089Z"
    fill="white"
  />
<path
    fill-rule="evenodd"
    clip-rule="evenodd"
    d="M9.58161 0.243738C11.1772 -0.081228 12.8219 -0.081264 14.4176 0.243738C15.9522 0.557962 17.41 1.17103 18.7076 2.04843C20.6375 3.35041 22.1485 5.18431 23.0572 7.32772C23.3638 8.05277 23.5982 8.80659 23.7564 9.57772C24.0815 11.1733 24.0814 12.8181 23.7564 14.4137C23.4422 15.9484 22.8292 17.4069 21.9517 18.7047C20.6497 20.6347 18.815 22.1457 16.6715 23.0543C15.9466 23.3607 15.1932 23.5943 14.4224 23.7525C13.6259 23.9159 12.8146 23.999 12.0015 23.9996C11.1892 23.9996 10.3785 23.9178 9.58259 23.7555C8.04799 23.4411 6.59023 22.8282 5.29255 21.9508C3.36258 20.6488 1.85159 18.8149 0.942942 16.6715C0.636359 15.9464 0.401954 15.1927 0.243723 14.4215C-0.0812602 12.8259 -0.0812221 11.1811 0.243723 9.58554C0.558499 8.04954 1.17342 6.59002 2.05232 5.29159C3.35433 3.36172 5.18822 1.85057 7.33161 0.94198C8.05659 0.635447 8.81056 0.401958 9.58161 0.243738ZM9.88533 7.32089C9.37443 7.31996 8.87489 7.47306 8.45173 7.75936C8.04001 8.03675 7.71761 8.42763 7.52302 8.88436C7.3894 9.20009 7.32032 9.53957 7.32087 9.88241V14.1529C7.31987 14.664 7.473 15.1632 7.75935 15.5865C8.03667 15.9982 8.42672 16.3215 8.88337 16.5162C9.19914 16.6498 9.53951 16.718 9.8824 16.7174H14.1568C14.6678 16.7183 15.1672 16.5662 15.5904 16.2799C16.0022 16.0025 16.3245 15.6117 16.5191 15.1549C16.6528 14.8392 16.7218 14.4997 16.7213 14.1568V9.88534C16.7223 9.37448 16.57 8.87491 16.2838 8.45175C16.0064 8.03998 15.6155 7.71669 15.1588 7.52206C14.8431 7.38842 14.5035 7.32037 14.1607 7.32089H9.88533Z"
    fill="white"
  />
<path
    d="M95.8394 5.61483C97.3378 5.61726 98.7935 6.11855 99.9761 7.03964L98.8228 9.24569C98.647 9.04844 97.4958 8.0455 96.2525 8.0455C95.8699 8.03498 95.493 8.13955 95.1695 8.34432C94.8831 8.52594 94.7098 8.84178 94.7105 9.18124C94.7105 9.99351 95.6599 10.5303 96.7593 11.1519C97.5449 11.5546 98.2772 12.0539 98.939 12.6383C99.6146 13.2439 100.001 14.1093 100.003 15.0172C100.039 16.1236 99.5691 17.1863 98.7261 17.9029C97.8928 18.5993 96.708 18.9673 95.2994 18.9674C93.5475 18.9626 91.8443 18.3891 90.4459 17.3326L91.6217 15.0396C92.3841 15.7835 93.8846 16.5533 95.0767 16.5533C95.466 16.5656 95.8501 16.4614 96.1802 16.2545C96.5418 15.9982 96.7453 15.5722 96.7174 15.1295C96.717 14.4351 95.7797 13.8836 94.6949 13.2437C93.8869 12.807 93.1298 12.2812 92.439 11.6754C91.693 10.9597 91.3307 10.1975 91.3306 9.34237C91.331 8.85885 91.4361 8.38063 91.6392 7.94198C91.8483 7.48977 92.1469 7.08458 92.5172 6.75155C93.3971 5.99225 94.5278 5.58827 95.689 5.61679C95.739 5.61678 95.7895 5.61484 95.8394 5.61483Z"
    fill="white"
  />
<path
    d="M37.7935 5.59921C39.2902 5.60154 40.7436 6.10299 41.9244 7.02401L40.7906 9.23104C40.5159 8.96076 40.2065 8.72838 39.8707 8.53964C39.3713 8.23281 38.8017 8.05798 38.2164 8.03182C37.834 8.02144 37.4567 8.12495 37.1334 8.32968C36.8468 8.51124 36.6736 8.82805 36.6744 9.16757C36.6747 9.97965 37.6239 10.5167 38.7232 11.1383C39.5086 11.5409 40.241 12.0403 40.9029 12.6246C41.5784 13.2302 41.9644 14.0948 41.9654 15.0025C42.0023 16.1094 41.5324 17.1726 40.689 17.8892C39.857 18.5854 38.6723 18.9537 37.2633 18.9537L37.2496 18.9527C35.5002 18.9528 33.7982 18.3839 32.399 17.3326L33.5748 15.0396C34.3372 15.7834 35.837 16.5532 37.0289 16.5533C37.4183 16.5657 37.8032 16.4615 38.1334 16.2545C38.4948 15.9982 38.6974 15.572 38.6695 15.1295C38.6691 14.4351 37.7317 13.8836 36.6461 13.2437C35.8375 12.8073 35.0806 12.2809 34.3892 11.6754C33.6425 10.9596 33.2799 10.1976 33.2799 9.34237C33.2802 8.85648 33.3851 8.37632 33.5885 7.93514C33.7973 7.4809 34.0964 7.07364 34.4674 6.73886C35.3459 5.97833 36.4761 5.57302 37.6373 5.60116C37.6901 5.60116 37.7419 5.59921 37.7935 5.59921Z"
    fill="white"
  />
<path
    fill-rule="evenodd"
    clip-rule="evenodd"
    d="M48.9595 5.64999C50.9423 5.65003 52.3134 6.10026 53.151 7.02792C53.8833 7.83939 54.2251 9.01375 54.2252 10.7232V17.3707C53.5906 17.8492 52.8735 18.207 52.1099 18.4264C50.9559 18.766 49.7571 18.9305 48.5543 18.9146C46.7652 18.9146 45.2974 18.4415 44.3082 17.5465C43.863 17.1458 43.5119 16.6511 43.2808 16.0982C43.0553 15.5519 42.941 14.9656 42.9449 14.3746C42.9335 13.734 43.0947 13.1024 43.4107 12.5455C43.7078 12.048 44.1191 11.6285 44.6109 11.3228C45.6475 10.708 46.8361 10.3974 48.0406 10.4254C48.8928 10.4254 50.4559 10.7142 51.1744 11.2574V9.96444C51.1743 8.84179 50.2957 8.22323 48.7017 8.22323C47.5034 8.23834 46.3205 8.49653 45.2242 8.98104L44.2906 6.71054C45.7337 6.01483 47.3148 5.65234 48.9166 5.64999H48.9595ZM48.566 12.6773C47.9936 12.6625 47.429 12.8179 46.9439 13.1226C46.5057 13.3967 46.2398 13.8778 46.2408 14.3951C46.2215 14.9903 46.4741 15.562 46.9263 15.9488C47.4584 16.3552 48.1163 16.5604 48.7847 16.5289C48.8419 16.5307 48.9004 16.5318 48.9576 16.5318C49.7226 16.5308 50.4769 16.3538 51.1627 16.0142V13.5865C50.4153 13.0154 49.506 12.6965 48.566 12.6773Z"
    fill="white"
  />
<path
    fill-rule="evenodd"
    clip-rule="evenodd"
    d="M83.7359 5.65194C85.6375 5.65202 87.2145 6.33882 88.2965 7.63729C89.2726 8.80884 89.8101 10.4548 89.8101 12.2711V13.4976H80.2799C80.3889 14.4882 80.9909 15.3569 81.8795 15.8062C82.7593 16.2135 83.7234 16.405 84.692 16.3658C84.7512 16.3676 84.8119 16.3687 84.8717 16.3687C86.1557 16.3669 87.4023 15.9337 88.4117 15.1392L89.3453 17.3726C88.7779 17.8053 88.1407 18.1377 87.4615 18.356C86.34 18.7322 85.1638 18.9214 83.981 18.9146C81.9328 18.9146 80.1944 18.2953 78.9556 17.1246C77.7081 15.9461 77.0484 14.284 77.0484 12.318C77.0171 10.5412 77.6953 8.82494 78.9322 7.55038C79.5357 6.94662 80.2559 6.47226 81.0484 6.15585C81.9035 5.81661 82.8162 5.64536 83.7359 5.65194ZM83.7584 8.15096C82.9267 8.12814 82.1142 8.40485 81.4693 8.93124C80.8411 9.49652 80.4217 10.2579 80.2799 11.0914H86.6002C86.6009 10.3302 86.3237 9.5951 85.8209 9.02401C85.2906 8.4498 84.5392 8.13096 83.7584 8.15096Z"
    fill="white"
  />
<path
    d="M135.023 5.64999C136.544 5.66099 138.022 6.15965 139.239 7.07284L138.134 9.38534C137.3 8.69086 136.255 8.30078 135.17 8.27987C134.203 8.27462 133.274 8.66262 132.596 9.35409C131.841 10.1552 131.437 11.225 131.473 12.3258C131.455 13.3822 131.839 14.4062 132.548 15.1891C133.218 15.9144 134.161 16.3254 135.148 16.3228C136.432 16.2982 137.669 15.8302 138.648 14.9976L139.655 17.1998C139.186 17.6386 138.641 17.9907 138.049 18.2398C136.987 18.6987 135.84 18.929 134.684 18.9146H134.655C132.915 18.9144 131.249 18.2119 130.033 16.9664C128.817 15.7207 128.153 14.0368 128.193 12.2955C128.193 8.50725 131.129 5.65017 135.023 5.64999Z"
    fill="white"
  />
<path
    fill-rule="evenodd"
    clip-rule="evenodd"
    d="M121.229 5.64999C123.215 5.64999 124.59 6.1002 125.435 7.02792C126.176 7.84257 126.521 9.0164 126.521 10.7232V17.3707C125.886 17.8491 125.17 18.2071 124.407 18.4264C123.253 18.7659 122.054 18.9295 120.851 18.9137C119.062 18.9134 117.595 18.4413 116.605 17.5465C116.16 17.1458 115.81 16.6509 115.579 16.0982C115.353 15.5515 115.239 14.9652 115.243 14.3736C115.232 13.7335 115.393 13.102 115.71 12.5455C116.007 12.0479 116.418 11.6285 116.91 11.3228C117.947 10.7081 119.135 10.3974 120.339 10.4254C121.191 10.4254 122.754 10.7143 123.472 11.2574V9.96444C123.472 8.84183 122.594 8.22327 121.001 8.22323C119.802 8.23832 118.619 8.4965 117.522 8.98104L116.591 6.71054C118.032 6.01493 119.611 5.65241 121.21 5.64999H121.229ZM120.864 12.6783C120.291 12.6635 119.727 12.8181 119.242 13.1226C118.804 13.3966 118.538 13.8778 118.539 14.3951C118.52 14.9904 118.771 15.5621 119.224 15.9488C119.757 16.3554 120.417 16.5617 121.086 16.5299C121.142 16.5318 121.199 16.5328 121.256 16.5328C122.021 16.5317 122.776 16.3547 123.461 16.0152V13.5865C122.716 13.0115 121.805 12.6933 120.864 12.6783Z"
    fill="white"
  />
<path
    fill-rule="evenodd"
    clip-rule="evenodd"
    d="M146.822 5.65194C148.724 5.65205 150.3 6.33874 151.382 7.63729C152.358 8.80884 152.895 10.4548 152.895 12.2711V13.4976H143.367C143.475 14.4882 144.077 15.357 144.965 15.8062C145.845 16.2125 146.809 16.4031 147.777 16.3629C147.837 16.3648 147.898 16.3658 147.958 16.3658C149.242 16.364 150.489 15.9308 151.498 15.1363L152.43 17.3707C151.863 17.8034 151.226 18.1359 150.547 18.3541C149.425 18.7312 148.249 18.9197 147.066 18.9137C145.018 18.9134 143.28 18.2958 142.042 17.1256C140.795 15.9471 140.134 14.2849 140.134 12.3189C140.101 10.5422 140.779 8.82557 142.016 7.55136C142.62 6.94747 143.34 6.47236 144.133 6.15585C144.988 5.81659 145.902 5.64538 146.822 5.65194ZM146.843 8.15096C146.012 8.12818 145.199 8.40574 144.555 8.93221C143.927 9.49757 143.509 10.2589 143.367 11.0924H149.686C149.689 10.3311 149.413 9.59462 148.909 9.02401C148.378 8.44951 147.625 8.13089 146.843 8.15096Z"
    fill="white"
  />
<path
    d="M63.7349 5.64901C64.5115 5.61682 65.2737 5.86398 65.8843 6.3453C66.2617 6.67283 66.5607 7.08143 66.7584 7.54061C67.6389 6.88153 69.275 5.64999 71.2203 5.64999C72.5213 5.64999 73.5171 6.01435 74.1802 6.73202C74.8646 7.47429 75.2124 8.61007 75.2125 10.1119V18.5474H72.0142V10.6529C72.0142 9.9285 71.8707 9.37864 71.5865 9.01815C71.2615 8.63736 70.7748 8.43327 70.2759 8.46932C69.2228 8.533 68.2369 9.00978 67.5318 9.7955V18.5474L67.5308 18.5484H64.3209V10.5211C64.3209 9.15502 63.6853 8.46156 62.4312 8.46151C61.8854 8.48899 61.3559 8.65857 60.8951 8.95272C60.5046 9.17854 60.1542 9.46795 59.859 9.80917V18.5474H56.6324V6.01718H59.8424V7.31893C60.8871 6.29678 62.2751 5.70132 63.7349 5.64901Z"
    fill="white"
  />
</svg>
