<svg viewBox="0 0 115 24" fill="none" xmlns="http://www.w3.org/2000/svg">
<path
    d="M5.65454 1.48294C8.05787 1.48294 10.393 2.28416 12.2884 3.75704L17.6801 7.97443C18.4079 8.54402 18.996 9.27095 19.3999 10.1002C19.8039 10.9294 20.013 11.8393 20.0116 12.7609C20.0101 13.6825 19.7981 14.5916 19.3915 15.4196C18.985 16.2476 18.3945 16.9727 17.6649 17.54L12.2896 21.7221C10.396 23.1977 8.06061 23.9996 5.6558 24C4.15352 23.996 2.71422 23.3988 1.65384 22.3395C0.593459 21.2802 -0.00134203 19.8454 2.27373e-06 18.35V7.12919C-0.000673201 5.63444 0.594251 4.20044 1.65428 3.14172C2.71432 2.08301 4.15292 1.48727 5.65454 1.48294ZM36.5315 1.48294C38.0313 1.48959 39.4675 2.08744 40.5256 3.14563C41.5836 4.20383 42.1775 5.63617 42.1772 7.12919V18.3487C42.1788 19.8438 41.5845 21.2784 40.5246 22.3377C39.4647 23.397 38.0258 23.9944 36.5239 23.9987C34.1192 23.9986 31.7839 23.1972 29.8901 21.7221L24.511 17.54C23.7821 16.9717 23.1926 16.2457 22.7872 15.4171C22.3818 14.5884 22.1711 13.6789 22.1711 12.7572C22.1711 11.8355 22.3818 10.9259 22.7872 10.0973C23.1926 9.26869 23.7821 8.54273 24.511 7.97443L29.8977 3.75704C31.7922 2.28358 34.1273 1.4831 36.5315 1.48294ZM7.22896 5.2186C6.65889 5.21959 6.11246 5.44546 5.70935 5.84671C5.30625 6.24797 5.07935 6.7919 5.07834 7.35936V18.1211C5.07765 18.684 5.30028 19.2245 5.69781 19.6249C6.09535 20.0254 6.63564 20.2534 7.20116 20.2593C8.77315 20.2637 10.301 19.7419 11.539 18.7776L16.6881 14.7829C17.0006 14.5401 17.2534 14.2296 17.4272 13.875C17.601 13.5204 17.6914 13.131 17.6914 12.7364C17.6914 12.3419 17.601 11.9525 17.4272 11.5979C17.2534 11.2433 17.0006 10.9328 16.6881 10.69L11.539 6.69022C10.3058 5.73726 8.78895 5.21996 7.2277 5.21985L7.22896 5.2186ZM34.957 5.20979C33.395 5.21306 31.8786 5.73392 30.647 6.69022L25.489 10.6875L25.4979 10.69C25.1854 10.9328 24.9326 11.2433 24.7588 11.5979C24.585 11.9525 24.4946 12.3419 24.4946 12.7364C24.4946 13.131 24.585 13.5204 24.7588 13.875C24.9326 14.2296 25.1854 14.5401 25.4979 14.7829L30.6381 18.7776C31.8762 19.7418 33.404 20.2636 34.976 20.2593C35.5432 20.256 36.0859 20.0291 36.4854 19.6284C36.8849 19.2276 37.1087 18.6856 37.1077 18.1211V7.35182C37.107 6.78414 36.8802 6.23988 36.4771 5.83835C36.074 5.43683 35.5273 5.21079 34.957 5.20979ZM70.4334 18.7764C70.4334 21.0404 71.4948 22.1863 73.7693 22.1875C74.8004 22.1875 75.9831 22.0064 76.6806 21.6442V7.42603H79.3493V22.7913C78.1059 23.4554 75.8618 23.9987 73.7389 23.9987C69.8269 23.9987 67.7647 22.3385 67.7647 18.6858V7.42603H70.4334V18.7764ZM94.8951 7.12416C96.4708 7.12416 97.8961 7.51659 98.9879 8.24108L98.2904 9.81081C97.4412 9.26744 96.3192 8.87501 95.2578 8.87501C93.3776 8.87501 92.4981 10.0221 92.4981 11.4409C92.4981 15.1527 99.4731 13.6446 99.4731 19.199C99.4731 21.8253 97.229 23.9987 93.8944 23.9987C92.2871 23.9987 90.5269 23.5761 89.4971 22.8818L90.254 21.1913C91.2244 21.7951 92.4678 22.1271 93.6202 22.1271C95.5307 22.1271 96.7741 20.9197 96.7741 19.3197C96.7741 15.335 89.861 16.935 89.8597 11.5617C89.8597 9.05613 91.8928 7.12416 94.8951 7.12416ZM108.753 7.12416C112.665 7.12416 115 9.65987 115 14.7917V15.0935L104.719 16.6029C104.962 19.9537 106.66 22.097 109.754 22.097C111.24 22.097 112.817 21.6743 113.726 21.131L114.424 22.8516C113.271 23.5157 111.391 23.9987 109.481 23.9987C104.81 23.9987 102.142 20.7989 102.142 15.5162C102.142 10.4145 104.598 7.12416 108.753 7.12416ZM57.5019 2.62628C62.416 2.62628 64.6601 5.22237 64.6601 8.90519C64.6601 12.3767 62.3541 15.2143 57.0483 15.2143C56.3204 15.2143 55.5926 15.1237 55.0164 15.0332V23.6969H52.2871V3.7432C53.6518 3.07908 55.561 2.62628 57.5019 2.62628ZM86.2143 23.6969H83.5443V0H86.213V23.6969H86.2143ZM108.69 8.78445C105.991 8.78445 104.596 11.3202 104.596 15.003V15.1539L112.42 13.9464C112.359 10.656 111.237 8.78445 108.69 8.78445ZM57.5019 4.28657C56.5921 4.28657 55.6823 4.46769 55.0152 4.70919V13.3729C55.561 13.4634 56.3192 13.5238 57.047 13.5238C60.6861 13.5238 61.9598 11.4711 61.9598 8.84482C61.9598 6.03742 60.6558 4.28657 57.5019 4.28657Z"
    fill="white"
  />
</svg>
