<svg viewBox="0 0 172 24" fill="none" xmlns="http://www.w3.org/2000/svg">
<path
    d="M161.15 11.4209C161.15 13.9528 162.497 15.165 164.518 15.165C166.484 15.165 167.885 13.899 167.885 11.4209V4.66016H171.09V17.5088C171.09 22.1416 168.154 24 164.464 24C161.366 24 158.807 22.5724 158.053 19.4209H161.259C161.798 20.6599 162.848 21.2256 164.464 21.2256C166.646 21.2256 167.885 20.1753 167.885 17.5898V15.9189C167.077 17.3735 165.676 18.1553 163.925 18.1553C160.854 18.1551 157.945 16.1615 157.945 11.4209V4.66016H161.15V11.4209Z"
    fill="white"
  />
<path
    fill-rule="evenodd"
    clip-rule="evenodd"
    d="M21.0039 4.31055C25.179 4.31055 28.0889 7.13906 28.0889 11.4219V17.9668H25.1523V15.3545C24.3442 17.3206 22.5394 18.3174 20.4385 18.3174C17.2062 18.3173 13.8125 16.0003 13.8125 11.4482C13.8127 7.21964 16.7753 4.31077 21.0039 4.31055ZM20.9775 7.30078C18.6343 7.30078 17.0451 8.97027 17.0449 11.3135C17.0449 13.6569 18.6341 15.3271 20.9775 15.3271C23.3209 15.3271 24.8828 13.6569 24.8828 11.3135C24.8826 8.97029 23.3208 7.30082 20.9775 7.30078Z"
    fill="white"
  />
<path
    fill-rule="evenodd"
    clip-rule="evenodd"
    d="M80.1885 4.31055C84.3903 4.31059 87.2996 7.27333 87.2998 11.3135V12.4453H76.3906C76.8216 14.3846 78.303 15.4082 80.1885 15.4082C81.6159 15.4082 82.6665 15.0043 83.3398 14.1426H86.7607C85.764 16.6743 83.3398 18.3174 80.1885 18.3174C75.9865 18.3174 73.0234 15.3539 73.0234 11.3135C73.0236 7.2733 75.9866 4.31055 80.1885 4.31055ZM80.1885 7.21973C78.3838 7.21973 76.9835 8.13588 76.4717 9.88672H83.9053C83.3935 8.10898 81.9393 7.21976 80.1885 7.21973Z"
    fill="white"
  />
<path
    fill-rule="evenodd"
    clip-rule="evenodd"
    d="M132.431 4.31055C136.605 4.31077 139.515 7.13923 139.515 11.4219V17.9668H136.578V15.3545C135.77 17.3206 133.965 18.3174 131.864 18.3174C128.632 18.3173 125.238 16.0003 125.238 11.4482C125.238 7.21948 128.202 4.31055 132.431 4.31055ZM132.403 7.30078C130.06 7.30078 128.471 8.97027 128.471 11.3135C128.471 13.6569 130.06 15.3271 132.403 15.3271C134.747 15.3271 136.309 13.6569 136.309 11.3135C136.308 8.97029 134.747 7.30082 132.403 7.30078Z"
    fill="white"
  />
<path
    d="M62.1475 0C66.4571 0.000117675 69.7698 2.37074 71.0088 5.95312H67.1846C66.2419 4.25624 64.4099 3.20518 62.1475 3.20508C58.6458 3.20508 56.2754 5.71041 56.2754 9.1582C56.2754 12.606 58.6458 15.1377 62.1475 15.1377C64.8947 15.1376 66.9144 13.8718 67.7764 11.4746H61.0693V8.4043H71.4941V10.0469C71.0901 14.8683 67.319 18.3163 62.1475 18.3164C56.6525 18.3164 52.7734 14.4376 52.7734 9.1582C52.7734 3.87877 56.6525 0 62.1475 0Z"
    fill="white"
  />
<path
    d="M37.0967 9.45508L40.3018 4.66016H44.0996L39.3594 11.1787L44.3154 17.9668H40.4365L36.9883 12.8486L33.5684 17.9668H29.7969L34.6992 11.1787L30.0127 4.66016H33.8916L37.0967 9.45508Z"
    fill="white"
  />
<path
    d="M95.2432 4.31055C98.7178 4.31055 101.061 6.22291 101.062 10.29V10.3711H97.8828V10.2363C97.8828 8.08155 96.8054 7.30078 95.2432 7.30078C93.6811 7.3009 92.6036 8.08171 92.6035 10.2363V17.9668H89.3984V10.2363C89.3985 6.2231 91.7687 4.31068 95.2432 4.31055Z"
    fill="white"
  />
<path
    d="M117.573 4.31055C120.725 4.31065 123.148 6.19617 123.148 10.3711V17.9668H119.943V10.3711C119.943 8.18943 118.812 7.30088 117.25 7.30078C115.715 7.30078 114.583 8.21624 114.583 10.3711V17.9668H111.378V10.3711C111.378 8.21646 110.22 7.30096 108.685 7.30078C107.122 7.30078 105.99 8.18931 105.99 10.3711V17.9668H102.785V10.3711C102.785 6.19605 105.21 4.31055 108.361 4.31055C110.354 4.31067 111.997 5.14584 112.967 6.70801C113.91 5.14572 115.553 4.31055 117.573 4.31055Z"
    fill="white"
  />
<path
    d="M148.736 4.31055C152.669 4.31055 155.309 6.57356 155.309 11.0449V17.9668H152.104V11.0449C152.104 8.51295 150.757 7.30078 148.736 7.30078C146.716 7.30082 145.369 8.51298 145.369 11.0449V17.9668H142.164V11.0449C142.164 6.60053 144.804 4.31058 148.736 4.31055Z"
    fill="white"
  />
<path
    d="M13.9531 3.55469H8.7002V17.9658H5.25293V3.55469H0V0.349609H13.9531V3.55469Z"
    fill="white"
  />
</svg>
