<svg viewBox="0 0 56 28" fill="none" xmlns="http://www.w3.org/2000/svg">
<path
    d="M47.7875 10.4077C51.247 9.98357 55.0276 11.8816 55.6978 15.5164C56.1396 17.9126 55.9134 20.3353 55.9587 22.7694C55.9867 24.2725 56.188 26.1741 55.3982 27.4634C53.9012 28.4091 53.0216 28.0544 51.962 26.7957C51.5444 23.5755 52.5651 16.4718 51.1895 13.9818C50.7667 13.2165 50.3384 12.9258 49.5124 12.6852C47.5897 12.2725 45.9799 13.2482 45.6399 15.1826C45.2024 17.6716 45.5439 20.5059 45.4485 23.0451C45.3999 24.3348 45.5448 25.578 45.322 26.8481C44.936 27.3806 44.4656 27.8098 43.793 27.9396C40.4327 28.5884 41.4109 23.2071 41.3241 21.0854C41.1044 15.7133 41.5472 11.3098 47.7875 10.4077Z"
    fill="white"
  />
<path
    d="M37.4379 10.3131C39.0862 10.4258 39.0129 11.982 37.9597 12.5177C36.6841 13.1661 30.6107 15.7881 30.7341 17.5513C30.8536 19.2499 34.2647 21.997 35.705 22.9391C37.3584 24.0206 40.0043 24.6609 38.0702 27.4713C37.8158 27.841 36.8605 27.9113 36.3908 27.8815C33.4914 27.3016 27.5226 21.6439 27.1487 18.6234C26.7464 15.3707 34.663 10.6384 37.4379 10.3131Z"
    fill="white"
  />
<path
    d="M2.0733 5.17366C4.63499 5.22687 4.09496 8.47607 4.06484 10.2528C5.34338 10.2634 6.89179 10.1446 8.06956 10.5444L8.08095 10.5866C8.23272 11.1692 8.49343 11.9545 7.82232 12.3001C6.90484 12.7724 5.07518 12.5975 4.04661 12.6134C4.01668 14.4298 4.05165 16.2774 4.04433 18.089C4.03043 21.5517 3.63176 24.8099 7.99436 25.555C9.04971 25.6871 8.94207 27.0972 7.94765 27.3859C6.57272 27.7849 4.80465 27.3848 3.52252 26.8174C1.31635 25.847 0.0976659 23.5631 0.0453077 21.1994C-0.0552549 16.655 0.0380021 12.0256 0.0726515 7.47396C0.0819874 6.25759 0.499735 5.54608 1.62669 5.18506C1.77534 5.17582 1.92436 5.17184 2.0733 5.17366Z"
    fill="white"
  />
<path
    d="M24.273 0.0398763C25.3887 0.217163 26.034 0.853757 26.0777 1.99495C26.1405 3.63838 26.1134 5.28335 26.1119 6.92822L26.1141 22.1746C26.1138 23.3305 26.1706 25.3021 25.9752 26.3822C25.5377 27.0756 25.0713 27.329 24.3152 27.542C23.7254 27.5226 23.3131 27.4981 22.8124 27.1489C22.4318 26.8844 22.1765 26.4755 22.1049 26.0176C21.95 25.0514 21.9898 23.2969 21.9898 22.2726L21.9864 7.59017C21.9864 5.89172 21.9662 4.20125 22.0274 2.50309C22.0795 1.05763 22.3789 0.257333 23.9517 0.00227865C24.0591 0.0107363 24.1666 0.0230688 24.273 0.0398763Z"
    fill="white"
  />
<path
    d="M13.6967 0C16.4294 0.309212 15.7144 3.70671 15.7121 5.76611L15.7076 14.7747C15.7075 17.2885 15.5292 20.7502 16.112 23.1043C16.6147 25.1344 17.5755 25.0211 19.1301 25.6826C19.3369 25.7791 19.4163 26.0664 19.4434 26.2728C19.6167 27.5949 18.5735 27.4964 17.6729 27.5295C11.5527 27.4517 11.7872 23.3816 11.7815 18.6735L11.7792 6.06803C11.7792 4.82614 11.7504 3.58377 11.802 2.34245C11.8672 0.770705 12.0924 0.301343 13.6967 0Z"
    fill="white"
  />
</svg>
