<svg  viewBox="0 0 1501 150" fill="none" xmlns="http://www.w3.org/2000/svg">
<path d="M1500.76 74.7159C1500.76 90.7197 1497.69 104.285 1491.53 115.412C1485.38 126.539 1477.04 134.991 1466.53 140.767C1456.07 146.544 1444.32 149.432 1431.3 149.432C1418.24 149.432 1406.47 146.52 1396.01 140.696C1385.54 134.872 1377.23 126.42 1371.08 115.341C1364.97 104.214 1361.91 90.6724 1361.91 74.7159C1361.91 58.7121 1364.97 45.1468 1371.08 34.0199C1377.23 22.893 1385.54 14.4413 1396.01 8.66478C1406.47 2.88826 1418.24 0 1431.3 0C1444.32 0 1456.07 2.88826 1466.53 8.66478C1477.04 14.4413 1485.38 22.893 1491.53 34.0199C1497.69 45.1468 1500.76 58.7121 1500.76 74.7159ZM1464.83 74.7159C1464.83 65.2462 1463.48 57.2443 1460.78 50.7102C1458.13 44.1761 1454.29 39.2282 1449.27 35.8665C1444.3 32.5047 1438.31 30.8239 1431.3 30.8239C1424.34 30.8239 1418.35 32.5047 1413.33 35.8665C1408.32 39.2282 1404.46 44.1761 1401.76 50.7102C1399.11 57.2443 1397.78 65.2462 1397.78 74.7159C1397.78 84.1856 1399.11 92.1875 1401.76 98.7216C1404.46 105.256 1408.32 110.204 1413.33 113.565C1418.35 116.927 1424.34 118.608 1431.3 118.608C1438.31 118.608 1444.3 116.927 1449.27 113.565C1454.29 110.204 1458.13 105.256 1460.78 98.7216C1463.48 92.1875 1464.83 84.1856 1464.83 74.7159Z" fill="currentColor"/>
<path d="M1341.41 1.98864V147.443H1306.25V1.98864H1341.41Z" fill="currentColor"/>
<path d="M1213.92 147.443H1160.16V1.98864H1213.85C1228.67 1.98864 1241.43 4.90057 1252.13 10.7244C1262.88 16.5009 1271.17 24.8343 1276.99 35.7244C1282.81 46.5672 1285.72 59.5407 1285.72 74.6449C1285.72 89.7964 1282.81 102.817 1276.99 113.707C1271.21 124.598 1262.95 132.955 1252.2 138.778C1241.45 144.555 1228.69 147.443 1213.92 147.443ZM1195.31 117.472H1212.57C1220.72 117.472 1227.6 116.098 1233.24 113.352C1238.92 110.559 1243.21 106.037 1246.09 99.7869C1249.03 93.4896 1250.5 85.1089 1250.5 74.6449C1250.5 64.1809 1249.03 55.8475 1246.09 49.6449C1243.16 43.3949 1238.83 38.8968 1233.1 36.1506C1227.41 33.357 1220.41 31.9602 1212.07 31.9602H1195.31V117.472Z" fill="currentColor"/>
<path d="M1103.04 1.98864H1138.12V95.8097C1138.12 106.652 1135.54 116.098 1130.38 124.148C1125.22 132.15 1118.02 138.352 1108.79 142.756C1099.56 147.112 1088.83 149.29 1076.62 149.29C1064.26 149.29 1053.46 147.112 1044.23 142.756C1035 138.352 1027.82 132.15 1022.71 124.148C1017.6 116.098 1015.04 106.652 1015.04 95.8097V1.98864H1050.2V92.7557C1050.2 97.7746 1051.28 102.249 1053.46 106.179C1055.69 110.109 1058.79 113.187 1062.77 115.412C1066.74 117.637 1071.36 118.75 1076.62 118.75C1081.87 118.75 1086.46 117.637 1090.39 115.412C1094.37 113.187 1097.47 110.109 1099.7 106.179C1101.92 102.249 1103.04 97.7746 1103.04 92.7557V1.98864Z" fill="currentColor"/>
<path d="M874.929 30.5398V1.98864H997.869V30.5398H953.764V147.443H919.105V30.5398H874.929Z" fill="currentColor"/>
<path d="M826.279 45.5966C825.805 40.3883 823.698 36.34 819.958 33.4517C816.264 30.5161 810.985 29.0483 804.12 29.0483C799.574 29.0483 795.786 29.6402 792.756 30.8239C789.726 32.0076 787.453 33.6411 785.938 35.7244C784.423 37.7604 783.641 40.1042 783.594 42.7557C783.499 44.9337 783.925 46.8513 784.872 48.5085C785.867 50.1657 787.287 51.6335 789.134 52.9119C791.028 54.143 793.3 55.232 795.952 56.179C798.603 57.126 801.586 57.9546 804.901 58.6648L817.401 61.5057C824.598 63.0682 830.942 65.1515 836.435 67.7557C841.975 70.3599 846.615 73.4612 850.355 77.0597C854.143 80.6581 857.008 84.8011 858.949 89.4886C860.89 94.1761 861.885 99.4318 861.932 105.256C861.885 114.441 859.565 122.325 854.972 128.906C850.379 135.488 843.774 140.53 835.156 144.034C826.586 147.538 816.241 149.29 804.12 149.29C791.951 149.29 781.345 147.467 772.301 143.821C763.258 140.175 756.226 134.635 751.208 127.202C746.189 119.768 743.608 110.369 743.466 99.0057H777.131C777.415 103.693 778.67 107.599 780.895 110.724C783.12 113.849 786.174 116.217 790.057 117.827C793.987 119.437 798.532 120.241 803.693 120.241C808.428 120.241 812.453 119.602 815.767 118.324C819.129 117.045 821.709 115.27 823.509 112.997C825.308 110.724 826.231 108.12 826.279 105.185C826.231 102.438 825.379 100.095 823.722 98.1534C822.065 96.1648 819.508 94.4602 816.051 93.0398C812.642 91.572 808.286 90.2225 802.983 88.9915L787.784 85.4403C775.19 82.5521 765.27 77.8883 758.026 71.4489C750.781 64.9621 747.183 56.2027 747.23 45.1705C747.183 36.1742 749.598 28.2907 754.475 21.5199C759.352 14.7491 766.099 9.4697 774.716 5.68183C783.333 1.89394 793.158 0 804.19 0C815.459 0 825.237 1.91761 833.523 5.75284C841.856 9.54072 848.319 14.8674 852.912 21.733C857.505 28.5985 859.849 36.553 859.943 45.5966H826.279Z" fill="currentColor"/>
<path d="M651.278 45.5966C650.805 40.3883 648.698 36.34 644.957 33.4517C641.264 30.5161 635.985 29.0483 629.119 29.0483C624.574 29.0483 620.786 29.6402 617.756 30.8239C614.725 32.0076 612.453 33.6411 610.937 35.7244C609.422 37.7604 608.641 40.1042 608.594 42.7557C608.499 44.9337 608.925 46.8513 609.872 48.5085C610.866 50.1657 612.287 51.6335 614.133 52.9119C616.027 54.143 618.3 55.232 620.952 56.179C623.603 57.126 626.586 57.9546 629.901 58.6648L642.401 61.5057C649.597 63.0682 655.942 65.1515 661.435 67.7557C666.974 70.3599 671.615 73.4612 675.355 77.0597C679.143 80.6581 682.008 84.8011 683.949 89.4886C685.89 94.1761 686.884 99.4318 686.932 105.256C686.884 114.441 684.564 122.325 679.971 128.906C675.379 135.488 668.774 140.53 660.156 144.034C651.586 147.538 641.24 149.29 629.119 149.29C616.951 149.29 606.345 147.467 597.301 143.821C588.257 140.175 581.226 134.635 576.207 127.202C571.188 119.768 568.608 110.369 568.466 99.0057H602.131C602.415 103.693 603.669 107.599 605.895 110.724C608.12 113.849 611.174 116.217 615.057 117.827C618.987 119.437 623.532 120.241 628.693 120.241C633.428 120.241 637.453 119.602 640.767 118.324C644.129 117.045 646.709 115.27 648.508 112.997C650.308 110.724 651.231 108.12 651.278 105.185C651.231 102.438 650.379 100.095 648.721 98.1534C647.064 96.1648 644.508 94.4602 641.051 93.0398C637.642 91.572 633.286 90.2225 627.983 88.9915L612.784 85.4403C600.189 82.5521 590.27 77.8883 583.026 71.4489C575.781 64.9621 572.183 56.2027 572.23 45.1705C572.183 36.1742 574.597 28.2907 579.474 21.5199C584.351 14.7491 591.098 9.4697 599.716 5.68183C608.333 1.89394 618.158 0 629.19 0C640.459 0 650.237 1.91761 658.523 5.75284C666.856 9.54072 673.319 14.8674 677.912 21.733C682.505 28.5985 684.848 36.553 684.943 45.5966H651.278Z" fill="currentColor"/>
<path d="M458.789 147.443V1.98864H493.945V118.892H554.457V147.443H458.789Z" fill="currentColor"/>
<path d="M335.352 147.443V1.98864H436.772V30.5398H370.508V60.3693H431.587V88.9915H370.508V118.892H436.772V147.443H335.352Z" fill="currentColor"/>
<path d="M223.278 1.98864L249.84 47.9403H250.977L277.823 1.98864H317.17L273.278 74.7159L318.59 147.443H278.249L250.977 100.994H249.84L222.568 147.443H182.511L227.61 74.7159L183.647 1.98864H223.278Z" fill="currentColor"/>
<path d="M165.625 1.98864V147.443H130.469V1.98864H165.625Z" fill="currentColor"/>
<path d="M0 147.443V1.98864H60.0852C70.9754 1.98864 80.3741 4.11932 88.2812 8.38069C96.2358 12.5947 102.367 18.4896 106.676 26.0653C110.985 33.5938 113.139 42.3532 113.139 52.3438C113.139 62.3816 110.937 71.1648 106.534 78.6932C102.178 86.1742 95.9517 91.9744 87.8551 96.0938C79.7585 100.213 70.1468 102.273 59.0199 102.273H21.946V74.5739H52.4858C57.7888 74.5739 62.2159 73.6506 65.767 71.804C69.3655 69.9574 72.0881 67.3769 73.9347 64.0625C75.7812 60.7008 76.7045 56.7945 76.7045 52.3438C76.7045 47.8456 75.7812 43.9631 73.9347 40.696C72.0881 37.3816 69.3655 34.8248 65.767 33.0256C62.1686 31.2263 57.7415 30.3267 52.4858 30.3267H35.1563V147.443H0Z" fill="currentColor"/>
</svg>
