<svg viewBox="0 0 56 32" fill="none" xmlns="http://www.w3.org/2000/svg">
<path fill-rule="evenodd" clip-rule="evenodd" d="M42.1758 14.0603C42.4788 14.0818 42.8064 14.0821 43.1589 14.0581C44.4481 13.9705 45.4282 13.5782 46.0441 12.9594C46.1891 12.8137 46.3138 12.6555 46.4177 12.4858C46.703 12.0196 46.8308 11.4664 46.7863 10.8472C46.7756 10.6987 46.7557 10.558 46.7265 10.4248C48.9011 10.4482 51.0928 11.1298 52.8671 12.7045C54.863 14.4758 55.7974 16.9031 55.971 19.3159C56.1446 21.7292 55.5666 24.2599 53.8407 26.2836C52.1041 28.3198 49.6751 29.291 47.2311 29.457C44.7865 29.6232 42.2399 28.9917 40.2272 27.207C38.9643 26.0873 38.1279 24.7058 37.6394 23.233C38.0313 22.5058 38.2063 21.5946 38.1391 20.5278C38.1377 20.5057 38.1362 20.4834 38.1346 20.461C38.0567 19.3783 37.7591 18.5042 37.2695 17.8494C37.5494 16.347 38.1782 14.8903 39.251 13.6298C39.4187 13.4328 39.593 13.2456 39.7731 13.0682C40.2183 13.5878 41.0163 13.9784 42.1758 14.0603ZM40.6143 16.019C40.3977 15.892 40.1255 15.8364 39.8049 15.8582C38.9821 15.9142 38.5478 16.4316 38.6098 17.2936L39.0679 23.661C39.1299 24.5229 39.6342 24.9766 40.4569 24.9206C40.7765 24.899 41.0375 24.8075 41.2335 24.6534C41.5423 24.4107 41.6899 24.0124 41.652 23.4853L41.1939 17.1179C41.156 16.5918 40.9535 16.2178 40.6143 16.019ZM41.6762 11.6481C42.3693 11.264 43.1044 10.9761 43.8601 10.7762C44.1163 10.8816 44.2271 11.0287 44.2431 11.2518C44.2742 11.6828 43.8215 12.0307 43.0475 12.0833C42.5063 12.1201 42.0126 11.9991 41.6762 11.6481ZM42.1167 20.2575C42.3181 23.0558 44.1491 24.6698 46.8733 24.4846C49.5915 24.2998 51.1796 22.4535 50.9783 19.6553C50.777 16.857 48.9395 15.2374 46.2213 15.4222C43.5031 15.6069 41.9154 17.4593 42.1167 20.2575ZM48.3454 19.8342C48.4542 21.3456 47.8106 22.3592 46.7257 22.433C45.6409 22.5066 44.8583 21.59 44.7496 20.0786C44.6404 18.5611 45.2902 17.5471 46.3689 17.4738C47.4476 17.4005 48.2362 18.3167 48.3454 19.8342ZM46.517 19.551C46.4246 19.6033 46.309 19.6893 46.2006 19.8164C46.1493 19.8765 46.1092 19.9346 46.0781 19.9872C46.0784 19.9875 46.0786 19.9879 46.079 19.9882C46.1163 20.0346 46.1629 20.0849 46.2201 20.1357C46.3473 20.2486 46.4763 20.3187 46.5764 20.3578C46.6698 20.3056 46.7876 20.2186 46.8974 20.0897C46.9467 20.0317 46.9856 19.9757 47.0159 19.9247C46.9777 19.877 46.9297 19.825 46.8706 19.7726C46.7448 19.6611 46.6177 19.5912 46.5184 19.5516C46.5179 19.5514 46.5174 19.5512 46.517 19.551Z" fill="white"/>
<path fill-rule="evenodd" clip-rule="evenodd" d="M34.1307 14.5182C34.1525 14.5175 34.1747 14.5163 34.197 14.5148L37.9208 14.2617C38.6156 14.2145 39.0338 13.814 38.9867 13.1584C38.9395 12.5029 38.4557 12.1637 37.7732 12.2101L35.7476 12.3477C36.9165 11.3547 38.295 10.9641 39.4478 10.8858C40.6719 10.8026 42.1984 11.0337 43.5611 11.9933C43.4114 12.0392 43.2396 12.0703 43.0482 12.0834C42.4692 12.1227 41.9446 11.9815 41.6088 11.5712C41.2265 11.1092 40.8865 10.9799 40.3989 11.013C39.9917 11.0407 39.666 11.2356 39.4944 11.5333C39.3964 11.7035 39.3486 11.9072 39.3648 12.1324C39.3792 12.3327 39.4368 12.5362 39.5426 12.7303C39.5564 12.7563 39.5708 12.7821 39.5861 12.8077C40.0578 13.5993 41.241 14.1886 43.1596 14.0582C43.928 14.0059 44.5866 13.8455 45.1237 13.5933C45.5291 14.2006 45.7943 14.8361 45.9605 15.4455C44.6532 15.59 43.6276 16.1366 42.9631 16.9978C42.3578 17.7823 42.0522 18.8279 42.1065 20.0687C42.1092 20.1311 42.1129 20.1941 42.1175 20.2575C42.1219 20.3189 42.1271 20.3797 42.133 20.4399C42.2557 21.6769 42.7059 22.6708 43.4161 23.3655C44.1968 24.1291 45.2919 24.5311 46.6117 24.497C46.484 25.5294 46.1001 26.669 45.2415 27.698C43.9547 29.2402 42.218 29.7979 40.8154 29.8931C39.4128 29.9885 37.6132 29.6712 36.118 28.3181C35.0724 27.3717 34.5257 26.2346 34.2649 25.1889C35.5894 25.0895 36.6111 24.5997 37.2742 23.7829C37.8893 23.0252 38.1959 21.9861 38.1492 20.716C38.1461 20.632 38.1415 20.5471 38.1353 20.4611C38.1323 20.4191 38.1289 20.3775 38.1252 20.3363C38.011 19.0519 37.5798 18.0706 36.8798 17.4112C36.1054 16.6818 35.002 16.3463 33.6348 16.4303C33.6967 15.8195 33.8464 15.1666 34.1307 14.5182ZM34.0136 23.1343L33.6802 18.5003C34.7386 18.5535 35.4055 19.2921 35.5024 20.64C35.609 22.1209 35.0961 22.9409 34.0136 23.1343ZM38.453 20.5035C38.5886 20.5647 38.7223 20.6155 38.8525 20.6575L39.0686 23.661C39.1306 24.5229 39.6348 24.9766 40.4576 24.9207C41.2804 24.8647 41.7148 24.3473 41.6528 23.4854L41.4366 20.4819C41.5596 20.4227 41.6847 20.3543 41.8102 20.2754C41.6746 20.2142 41.5409 20.1634 41.4107 20.1215L41.1946 17.1179C41.1326 16.256 40.6284 15.8023 39.8056 15.8583C38.9828 15.9142 38.5484 16.4317 38.6105 17.2936L38.8266 20.2971C38.7036 20.3563 38.5785 20.4247 38.453 20.5035ZM46.2384 17.4877L46.5944 22.4371C45.5785 22.4305 44.8546 21.528 44.7504 20.0786C44.6456 18.6237 45.2385 17.6316 46.2384 17.4877Z" fill="white"/>
<path fill-rule="evenodd" clip-rule="evenodd" d="M25.8935 14.4254C26.1182 14.834 26.5327 15.0356 27.0972 14.9972L30.9917 14.7325C31.6865 14.6853 32.1047 14.2848 32.0575 13.6292C32.0567 13.6181 32.0559 13.6071 32.0548 13.5961C31.9939 12.9623 31.5151 12.6352 30.8441 12.6808L28.2417 12.8577L28.2036 12.3283C29.0688 11.8841 29.969 11.6824 30.7623 11.6284L32.6808 11.498L32.8072 13.255C32.8145 13.3564 32.8279 13.4523 32.8473 13.5423C32.8883 13.7329 32.9559 13.8975 33.0483 14.0343C33.15 14.1851 33.2817 14.3022 33.4408 14.3836C33.648 14.4895 33.9011 14.5348 34.1957 14.5148L37.9195 14.2617C38.6143 14.2145 39.0325 13.814 38.9854 13.1584C38.9726 12.9808 38.9283 12.8262 38.8561 12.6964C39.2783 12.9481 39.688 13.2428 40.08 13.5852C41.3576 14.7008 42.1637 16.0749 42.6291 17.5112C42.2315 18.247 42.0478 19.1526 42.1123 20.1907C42.1136 20.2129 42.1146 20.2352 42.1162 20.2576C42.1917 21.3076 42.4973 22.1908 42.9928 22.8748C42.7337 24.3182 42.1513 25.7418 41.1152 26.9913C39.3873 29.0752 36.9548 30.0029 34.5763 30.1646L32.1079 30.3324C30.7054 30.4276 28.9057 30.1104 27.4106 28.7572C26.4639 27.9005 25.9263 26.8875 25.6395 25.9275C25.655 25.9265 25.6704 25.9256 25.686 25.9244C26.6182 25.8611 27.4119 25.6008 28.0187 25.1825C28.4067 24.915 28.7184 24.583 28.9411 24.1967C29.0695 23.9736 29.1684 23.7324 29.2351 23.4752C29.3223 23.1392 29.3546 22.7759 29.3267 22.3893L29.0071 17.9461C28.9451 17.0842 28.4408 16.6305 27.6181 16.6864C27.5454 16.6914 27.4758 16.6999 27.4092 16.712C26.7224 16.8364 26.3664 17.336 26.423 18.1218L26.7221 22.2796C26.7885 23.2023 26.3677 23.7372 25.5327 23.794C25.4599 23.7988 25.3898 23.7998 25.3223 23.7968L24.9322 18.3756C24.851 17.2474 25.0208 15.7805 25.8935 14.4254ZM39.6165 24.7409C39.8379 24.8812 40.1202 24.9436 40.4563 24.9207C41.2791 24.8648 41.7135 24.3473 41.6515 23.4854L41.1933 17.118C41.1313 16.256 40.6271 15.8024 39.8043 15.8583C39.4663 15.8812 39.1946 15.982 38.9951 16.1525C38.7091 16.3973 38.5727 16.7857 38.6092 17.2936L39.0673 23.661C39.104 24.1708 39.2959 24.5377 39.6165 24.7409ZM37.8993 12.2058C37.0452 11.834 36.1585 11.6128 35.2783 11.5081L35.3407 12.3752L37.7719 12.2101C37.815 12.2072 37.8579 12.2056 37.8993 12.2058ZM30.3611 24.1001C30.4232 24.962 30.9274 25.4158 31.7502 25.3599L34.2185 25.1921C35.9943 25.0714 37.2328 24.255 37.8011 22.893C37.827 22.831 37.8515 22.7679 37.8746 22.7036C38.1049 22.0625 38.1951 21.3104 38.134 20.4611C38.0728 19.6106 37.8767 18.8887 37.5578 18.3008C37.5434 18.2743 37.5287 18.248 37.5138 18.222C36.7709 16.9254 35.4115 16.3092 33.5883 16.4332L31.12 16.6009C30.2972 16.6568 29.8629 17.1744 29.9249 18.0363L30.3611 24.1001ZM33.3698 18.5036L32.5592 18.5587L32.8951 23.2264L33.7056 23.1714C33.8336 23.1627 33.955 23.1467 34.0697 23.1234C34.4757 23.0411 34.7984 22.8671 35.035 22.5996C35.1162 22.5076 35.1873 22.4048 35.2481 22.2908C35.4655 21.8835 35.5511 21.3344 35.5011 20.64C35.4566 20.0204 35.2921 19.5293 35.0239 19.1746C34.9461 19.0717 34.8596 18.9802 34.7649 18.9004C34.4889 18.668 34.1429 18.5343 33.7373 18.5039C33.6197 18.4951 33.4971 18.4949 33.3698 18.5036Z" fill="white"/>
<path fill-rule="evenodd" clip-rule="evenodd" d="M17.0462 15.1567C17.2563 15.5448 17.6967 15.7893 18.2055 15.7547C18.693 15.7216 18.9672 15.5322 19.2405 15.0744L20.6131 12.7853L20.6679 12.7815L22.4258 14.8275C22.7933 15.2539 23.1238 15.4205 23.5931 15.3886C24.3061 15.3401 24.7657 14.8331 24.7168 14.1533C24.6911 13.7951 24.5665 13.5108 24.2739 13.1891L23.2715 12.0879C23.7395 12.1375 24.2266 12.2388 24.7138 12.4085C25.0027 12.261 25.2953 12.1404 25.5866 12.0433L25.7085 13.7382C25.7705 14.6001 26.2744 15.054 27.0971 14.9981L30.9916 14.7335C31.6864 14.6863 32.1047 14.2857 32.0575 13.6302C32.0495 13.5199 32.0297 13.4185 31.9982 13.3265C33.0188 14.2665 33.5548 15.3892 33.8119 16.4223C33.7383 16.4249 33.6635 16.429 33.5883 16.4341L31.1199 16.6019C30.3467 16.6544 29.9169 17.1143 29.9194 17.8849C29.9195 17.9343 29.9211 17.9852 29.9248 18.0372L30.3611 24.1011C30.4054 24.717 30.6759 25.1243 31.1267 25.2863C31.3067 25.351 31.5153 25.3767 31.7501 25.3608L33.9432 25.2115C33.5515 26.4114 32.8735 27.5149 31.9179 28.4353C30.2444 30.0471 28.086 30.7589 26.044 30.8977C24.002 31.0365 21.7627 30.6235 19.8747 29.2538C18.8419 28.5043 18.0371 27.5539 17.4792 26.4772C17.5283 26.4777 17.5787 26.4762 17.6304 26.4727C18.4532 26.4168 18.8875 25.8993 18.8255 25.0374L18.429 19.5259L19.7271 19.4376C20.3483 19.3954 20.7607 19.0592 20.7943 18.5051C20.7976 18.4503 20.7972 18.3933 20.793 18.3343C20.7459 17.6788 20.2743 17.3387 19.5795 17.386L16.2793 17.6103C16.3585 16.8287 16.5815 15.9784 17.0462 15.1567ZM21.5747 22.917C21.7184 24.9139 23.3639 26.0832 25.6859 25.9254C28.0079 25.7676 29.4703 24.3873 29.3267 22.3903L29.007 17.9471C28.9815 17.5935 28.8821 17.3084 28.7163 17.0992C28.4781 16.7985 28.1032 16.6544 27.618 16.6874C26.7952 16.7433 26.3609 17.2607 26.4229 18.1227L26.722 22.2806C26.7292 22.3807 26.7311 22.4759 26.7269 22.5668C26.6927 23.3135 26.2771 23.7443 25.5327 23.7949C24.7882 23.8455 24.3157 23.475 24.1748 22.7403C24.1577 22.6508 24.1455 22.5561 24.1383 22.456L23.8391 18.2981C23.7771 17.4362 23.2729 16.9825 22.4501 17.0384C21.9649 17.0714 21.6147 17.2649 21.4219 17.595C21.2877 17.8245 21.2296 18.1202 21.2551 18.4738L21.5747 22.917ZM34.0683 18.5554L34.3198 22.0507C34.3439 22.3872 34.3485 22.7221 34.3335 23.0539C34.1459 23.1171 33.9363 23.1567 33.7055 23.1723L32.895 23.2274L32.5591 18.5596L33.3697 18.5045C33.6217 18.4874 33.8555 18.5045 34.0683 18.5554ZM31.1811 12.692C30.1895 12.0495 29.1243 11.7747 28.1595 11.7129L28.2416 12.8587L30.844 12.6818C30.9627 12.6737 31.0757 12.6771 31.1811 12.692Z" fill="white"/>
<path fill-rule="evenodd" clip-rule="evenodd" d="M14.2713 15.9605C14.4129 15.9915 14.5692 16.0016 14.7389 15.9901C15.0812 15.9668 15.3563 15.8637 15.5563 15.6891C15.7188 15.5472 15.8319 15.3583 15.8913 15.1266C15.9245 14.9968 15.941 14.8537 15.9398 14.6979C15.9395 14.6513 15.9376 14.6036 15.934 14.5548L15.7967 12.646L17.9881 12.4971L17.2195 13.711C16.9927 14.0672 16.9086 14.337 16.9143 14.6317C16.9148 14.6587 16.916 14.686 16.918 14.7136C16.9367 14.9732 17.0424 15.2033 17.2079 15.3809C17.4352 15.6249 17.7755 15.7699 18.158 15.7569C18.1737 15.7563 18.1898 15.7556 18.2058 15.7546C18.6933 15.7215 18.9676 15.532 19.2408 15.0743L20.6134 12.7852L20.6682 12.7814L22.4261 14.8273C22.7936 15.2537 23.1241 15.4203 23.5934 15.3884C24.0613 15.3566 24.4199 15.1273 24.5974 14.7813C25.346 15.7758 25.7088 16.9243 25.7858 17.9947C25.896 19.5266 25.4451 21.2373 24.1495 22.5733C24.145 22.535 24.1415 22.4959 24.1386 22.4559L23.8395 18.2979C23.8353 18.2395 23.8288 18.183 23.8206 18.1283C23.7075 17.3768 23.2175 16.9861 22.4504 17.0383C21.6834 17.0903 21.2537 17.5436 21.2493 18.3031C21.249 18.3583 21.2512 18.4152 21.2554 18.4736L21.5751 22.9168C21.6048 23.33 21.6986 23.7077 21.8496 24.0455C21.9744 24.3246 22.1379 24.5763 22.3362 24.7985C22.7135 25.2211 23.2164 25.5364 23.8167 25.7271C23.7324 26.8404 23.3632 28.1126 22.4144 29.2498C21.1276 30.7919 19.3908 31.3496 17.9883 31.4449C16.5857 31.5403 14.786 31.223 13.2909 29.8699C12.2315 28.911 11.6843 27.7563 11.4276 26.6993C12.2079 26.4267 12.7835 25.9893 13.128 25.4243C13.264 25.2015 13.364 24.9587 13.4264 24.6984C13.4943 24.4151 13.5177 24.1111 13.4946 23.7891C13.4002 22.4779 12.5875 21.7718 10.9576 21.5046C10.8219 21.4823 10.6804 21.4631 10.5333 21.4468L9.63829 21.3491C9.30245 21.312 9.03765 21.2657 8.83653 21.2012C8.69701 20.8814 8.58765 20.5546 8.50645 20.2264C8.67381 20.0569 8.95917 19.9374 9.36325 19.9099C9.91781 19.8723 10.338 20.0084 10.6559 20.4259C10.7353 20.529 10.8157 20.6169 10.8991 20.6909C11.1769 20.9375 11.4878 21.0282 11.9097 20.9996C12.5553 20.9496 12.9536 20.526 12.9116 19.9433C12.9106 19.9289 12.9094 19.9148 12.908 19.9008C12.8901 19.7198 12.8428 19.5693 12.7631 19.4105C12.6695 19.2251 12.5528 19.0559 12.4145 18.9035C11.7616 18.1842 10.6293 17.8416 9.19085 17.9393C8.90109 17.959 8.62381 17.9993 8.36133 18.0587C8.49301 16.853 8.98893 15.5983 10.012 14.5618C11.0052 13.5554 12.1799 13.0737 13.2163 12.8729L13.3499 14.7304C13.3534 14.7792 13.3584 14.8267 13.3647 14.873C13.4471 15.4739 13.7658 15.8499 14.2713 15.9605ZM13.3428 18.5642C13.3296 18.6505 13.3263 18.743 13.3333 18.8411C13.3403 18.938 13.3568 19.0281 13.3821 19.111C13.528 19.5886 13.9652 19.829 14.5468 19.7895L15.845 19.7012L16.2415 25.2127C16.3036 26.0747 16.808 26.5284 17.6308 26.4726C18.4536 26.4167 18.8879 25.8991 18.8259 25.0372L18.4293 19.5257L19.7275 19.4375C20.3091 19.3979 20.7074 19.1006 20.7835 18.608C20.7966 18.5225 20.8004 18.4311 20.7933 18.3342C20.7863 18.2361 20.7695 18.1449 20.7441 18.0612C20.5998 17.5854 20.1706 17.3457 19.5799 17.3859L14.3992 17.7378C13.8084 17.778 13.4176 18.0735 13.3428 18.5642Z" fill="white"/>
<path fill-rule="evenodd" clip-rule="evenodd" d="M5.71204 16.0647C5.94764 16.3991 6.33591 16.5612 6.84719 16.5264C7.66996 16.4705 8.10431 15.9531 8.04231 15.0911L7.95626 13.8953L9.21175 13.81C10.0526 13.7528 10.7681 13.4947 11.3105 13.0771C11.959 13.1809 12.6218 13.35 13.2684 13.6037L13.3495 14.7304C13.4115 15.5923 13.9157 16.046 14.7385 15.9901C15.3024 15.9518 15.6839 15.6967 15.8481 15.2623C16.3777 15.7884 16.8493 16.4231 17.2337 17.1848L17.2365 17.1903L17.2392 17.1958C17.2947 17.3064 17.3474 17.4192 17.3973 17.5341L14.3988 17.7379C14.3255 17.7428 14.2553 17.7518 14.1885 17.7645C14.1655 17.7688 14.1429 17.7736 14.1208 17.7789C13.7797 17.8598 13.5325 18.0459 13.4121 18.3203C13.406 18.3341 13.4002 18.3481 13.3949 18.3623C13.3419 18.5015 13.32 18.6618 13.3329 18.8411C13.3397 18.9351 13.3554 19.0227 13.3794 19.1036C13.3796 19.104 13.3797 19.1046 13.3799 19.1051C13.5239 19.5866 13.9624 19.8292 14.5464 19.7895L15.8445 19.7013L16.2411 25.2128C16.3031 26.0748 16.8073 26.5284 17.6301 26.4725C17.8315 26.4588 18.0097 26.4175 18.1629 26.3502C17.7735 27.6072 17.0537 28.7668 15.9985 29.7147C14.2978 31.2424 12.1593 31.8412 10.2245 31.9726C7.32294 32.1698 3.61529 31.3419 1.83532 28.0069C1.39804 27.1944 1.1438 26.3108 1.07924 25.4137C1.02974 24.7256 1.08963 24.0772 1.23984 23.4764C0.991525 22.8113 0.841629 22.1111 0.790134 21.3954C0.613001 18.9334 1.58868 16.7087 3.30665 15.175C3.93802 14.6113 4.63184 14.1707 5.35519 13.8352L5.45817 15.2667C5.48165 15.5931 5.56852 15.8608 5.71204 16.0647ZM10.5741 26.9166C11.5049 26.756 12.2329 26.4116 12.7303 25.9228C13.2371 25.4248 13.5044 24.7767 13.5028 24.0204C13.5026 23.9444 13.4997 23.8673 13.4941 23.7892C13.4536 23.2252 13.28 22.7731 12.9657 22.4197C12.7209 22.1447 12.3909 21.9294 11.9719 21.7678C11.9694 21.7668 11.9669 21.7659 11.9644 21.7649C11.9066 21.7428 11.8473 21.7217 11.7861 21.7016C11.7769 21.6985 11.7676 21.6955 11.7583 21.6925C11.4479 21.5927 11.0945 21.518 10.697 21.4666C10.6431 21.4596 10.5884 21.453 10.5329 21.4469L9.63783 21.3491C9.58679 21.3435 9.53735 21.3376 9.48959 21.3316C9.48399 21.3308 9.47839 21.3301 9.47279 21.3294C9.47015 21.3291 9.46751 21.3287 9.46487 21.3284C9.46279 21.3281 9.46071 21.3278 9.45871 21.3275C9.45039 21.3264 9.44215 21.3254 9.43391 21.3243C9.29143 21.305 9.16399 21.2833 9.05087 21.2583C9.04559 21.2571 9.04031 21.2559 9.03503 21.2547C8.99007 21.2446 8.94743 21.2339 8.90711 21.2226C8.90599 21.2223 8.90479 21.222 8.90367 21.2216C8.62535 21.1431 8.45527 21.0357 8.37759 20.8797C8.34991 20.8242 8.33399 20.7626 8.32903 20.6939C8.31863 20.5487 8.35839 20.411 8.44871 20.2923C8.46127 20.2758 8.47487 20.2596 8.48935 20.2439C8.60727 20.1161 8.78959 20.0148 9.03671 19.9571C9.03863 19.9567 9.04047 19.9563 9.04239 19.9559C9.13079 19.9355 9.22743 19.9207 9.33231 19.9123C9.34239 19.9115 9.35255 19.9107 9.36279 19.91C9.51527 19.8996 9.65759 19.9024 9.79039 19.9206C9.79095 19.9207 9.79151 19.9207 9.79207 19.9208C9.84535 19.9281 9.89711 19.9379 9.94743 19.9504C9.94775 19.9505 9.94807 19.9506 9.94839 19.9507C10.088 19.9853 10.2161 20.0403 10.3337 20.1185C10.3632 20.1381 10.392 20.1592 10.4201 20.1818C10.4997 20.2456 10.574 20.3215 10.6435 20.4106C10.6439 20.4111 10.6443 20.4116 10.6447 20.4122C10.6483 20.4167 10.6519 20.4214 10.6554 20.426C10.6605 20.4326 10.6656 20.4392 10.6706 20.4456C10.6718 20.4471 10.6731 20.4487 10.6743 20.4502C10.6962 20.478 10.7183 20.5045 10.7405 20.53C10.7459 20.5363 10.7513 20.5424 10.7568 20.5486C11.0588 20.8876 11.3857 21.0219 11.8479 21.0029C11.8543 21.0027 11.8608 21.0024 11.8673 21.002C11.8812 21.0014 11.8952 21.0005 11.9093 20.9995C12.3759 20.9635 12.7133 20.7322 12.8487 20.3868C12.9006 20.2543 12.9229 20.1049 12.9112 19.9433C12.8968 19.743 12.8485 19.5816 12.7626 19.4106C12.723 19.3321 12.6793 19.2565 12.6315 19.1839C12.5953 19.129 12.5569 19.0757 12.5162 19.0242C12.513 19.0201 12.5098 19.016 12.5065 19.012C12.2993 18.7531 12.0348 18.5381 11.7201 18.3694C11.7113 18.3647 11.7026 18.3601 11.6939 18.3555C11.456 18.231 11.19 18.1325 10.8989 18.0612C10.8974 18.0608 10.896 18.0605 10.8945 18.0602C10.6201 17.9932 10.3234 17.9504 10.0069 17.9325C10.0054 17.9324 10.0041 17.9323 10.0027 17.9323C9.75391 17.9184 9.49295 17.92 9.22087 17.9373C9.21071 17.938 9.20055 17.9387 9.19039 17.9394C8.92607 17.9573 8.67207 17.9924 8.43031 18.0436C7.65312 18.2081 7.00208 18.5388 6.53919 19.0003C6.04832 19.4896 5.769 20.1261 5.77522 20.8675C5.77574 20.9296 5.77827 20.9925 5.78284 21.056C5.82188 21.5986 6.00774 22.0543 6.32957 22.4184C6.51851 22.6321 6.75429 22.8142 7.03473 22.9636C7.08395 22.9899 7.13454 23.0151 7.18649 23.0393C7.1964 23.0439 7.20636 23.0485 7.21637 23.053C7.60156 23.2279 8.06007 23.3483 8.58727 23.4119C8.61543 23.4152 8.64375 23.4184 8.67231 23.4216L9.56735 23.5193C9.58399 23.5211 9.60047 23.5229 9.61671 23.5247C9.61879 23.525 9.62087 23.5252 9.62295 23.5255C9.63119 23.5264 9.63943 23.5273 9.64759 23.5283C9.82175 23.5484 9.97519 23.5701 10.1097 23.5948C10.1391 23.6002 10.1675 23.6056 10.1951 23.6113C10.2303 23.6186 10.2641 23.626 10.2965 23.6338C10.2974 23.634 10.2984 23.6342 10.2993 23.6344C10.6151 23.7104 10.7981 23.8124 10.8865 23.9664C10.9243 24.0321 10.9448 24.1072 10.951 24.1938C10.9617 24.3429 10.9145 24.4821 10.8161 24.6026C10.7683 24.6612 10.7083 24.7154 10.6369 24.7641C10.5109 24.8501 10.3496 24.9191 10.1571 24.9656C10.1556 24.966 10.154 24.9664 10.1524 24.9667C10.0318 24.9955 9.89911 25.0156 9.75535 25.0253C9.74511 25.026 9.73495 25.0267 9.72487 25.0272C9.61655 25.0334 9.51031 25.0332 9.40687 25.026C9.40703 25.026 9.40679 25.026 9.40687 25.026C9.35295 25.0222 9.29927 25.0164 9.24703 25.0088C9.24551 25.0086 9.24407 25.0084 9.24263 25.0081C9.09111 24.9856 8.94735 24.9462 8.81439 24.888C8.76327 24.8656 8.71375 24.8404 8.66599 24.8124C8.62103 24.786 8.57767 24.7571 8.53607 24.7255C8.53575 24.7253 8.53543 24.7251 8.53519 24.7248C8.53455 24.7244 8.53391 24.7239 8.53327 24.7234C8.47287 24.6773 8.41615 24.6256 8.36351 24.5681C8.35671 24.5607 8.34999 24.5532 8.34327 24.5455C8.33407 24.5349 8.32495 24.5241 8.31599 24.5132C8.27663 24.4656 8.23767 24.4216 8.19903 24.3808C7.8762 24.0412 7.57022 23.9342 7.16057 23.9519C7.14498 23.9526 7.12924 23.9534 7.11334 23.9544C7.11092 23.9546 7.10848 23.9548 7.10605 23.9549C6.67964 23.984 6.34256 24.1964 6.17828 24.5182C6.09602 24.6793 6.05708 24.8678 6.07195 25.0744C6.08061 25.1948 6.10484 25.3163 6.14578 25.4363C6.17295 25.5159 6.20748 25.5948 6.2497 25.6723C6.31053 25.7872 6.38588 25.8983 6.47581 26.0041C6.47864 26.0075 6.48147 26.0108 6.48432 26.014C6.6844 26.2464 6.95524 26.4528 7.2976 26.6172C7.58159 26.7535 7.91479 26.8608 8.29759 26.93C8.29943 26.9304 8.30127 26.9307 8.30311 26.931C8.57495 26.9799 8.87191 27.0095 9.19391 27.0166C9.19423 27.0166 9.19455 27.0166 9.19495 27.0166C9.40783 27.0212 9.63183 27.0161 9.86679 27.0001C9.87695 26.9994 9.88711 26.9988 9.89727 26.998C10.1334 26.981 10.3592 26.9537 10.5741 26.9166Z" fill="white"/>
<path fill-rule="evenodd" clip-rule="evenodd" d="M44.1071 11.661C44.2054 11.5406 44.2527 11.4006 44.2419 11.2515C44.2357 11.1649 44.2151 11.0905 44.1775 11.0248C44.0891 10.8709 43.906 10.7688 43.5902 10.6929C43.5892 10.6926 43.5883 10.6924 43.5874 10.6922C43.555 10.6845 43.5212 10.677 43.486 10.6698C43.4584 10.6641 43.4299 10.6586 43.4007 10.6532C43.2661 10.6286 43.1127 10.6068 42.9385 10.5867C42.9303 10.5858 42.9221 10.5848 42.9138 10.5839C42.9117 10.5837 42.9097 10.5834 42.9076 10.5832C42.8913 10.5814 42.8749 10.5795 42.8583 10.5777L41.9631 10.4799C41.9347 10.4769 41.9063 10.4737 41.8782 10.4702C41.351 10.4066 40.8924 10.2863 40.5072 10.1114C40.4972 10.1069 40.4873 10.1023 40.4774 10.0977C40.4255 10.0735 40.3748 10.0483 40.3256 10.0221C40.0451 9.87264 39.8094 9.69056 39.6205 9.4768C39.2987 9.1128 39.1127 8.65696 39.0737 8.11448C39.0691 8.05088 39.0667 7.98804 39.0661 7.92591C39.0599 7.18452 39.3392 6.54806 39.8301 6.0587C40.293 5.59724 40.944 5.26658 41.7211 5.10204C41.963 5.05085 42.2169 5.01574 42.4813 4.99778C42.4915 4.99708 42.5016 4.99641 42.5117 4.99577C42.7838 4.9784 43.0448 4.97686 43.2935 4.99074C43.295 4.99081 43.2963 4.99089 43.2977 4.99097C43.6143 5.00884 43.911 5.05167 44.1854 5.11858C44.1869 5.11893 44.1883 5.11928 44.1898 5.11964C44.4809 5.19095 44.7469 5.2894 44.9847 5.4139C44.9935 5.4185 45.0023 5.42312 45.011 5.42778C45.3257 5.5965 45.5901 5.81157 45.7975 6.07042C45.8007 6.07447 45.8039 6.07854 45.8071 6.08262C45.8478 6.13414 45.8863 6.18738 45.9224 6.24233C45.9702 6.31494 46.0139 6.3905 46.0535 6.46898C46.1393 6.64005 46.1877 6.80145 46.2021 7.00176C46.2137 7.16332 46.1915 7.31266 46.1395 7.44518C46.0042 7.79062 45.6668 8.02184 45.2002 8.058C45.186 8.05896 45.172 8.05976 45.1582 8.06048C45.1517 8.0608 45.1452 8.06104 45.1388 8.06136C44.6765 8.08032 44.3497 7.94605 44.0476 7.60698C44.0422 7.60087 44.0367 7.5947 44.0314 7.58846C44.0091 7.56296 43.9871 7.53634 43.9651 7.50858C43.9639 7.50706 43.9627 7.50553 43.9615 7.504C43.9564 7.49754 43.9514 7.49102 43.9463 7.48445C43.9427 7.47978 43.9392 7.47516 43.9356 7.47058C43.9352 7.47006 43.9348 7.46955 43.9344 7.46904C43.8649 7.37994 43.7905 7.30402 43.711 7.2402C43.6828 7.21762 43.654 7.19654 43.6246 7.17693C43.507 7.09866 43.3789 7.04374 43.2393 7.00908C43.239 7.009 43.2387 7.00891 43.2383 7.00883C43.188 6.99638 43.1363 6.98657 43.083 6.97923C43.0824 6.97915 43.0818 6.97907 43.0812 6.97899C42.9484 6.96085 42.8061 6.95807 42.6537 6.96843C42.6435 6.96913 42.6333 6.96988 42.6232 6.9707C42.5183 6.97915 42.4217 6.99393 42.3332 7.01426C42.3314 7.01469 42.3295 7.01512 42.3276 7.01556C42.0805 7.07326 41.8981 7.1745 41.7803 7.30227C41.7657 7.31802 41.7522 7.33417 41.7396 7.3507C41.6493 7.46938 41.6095 7.60721 41.6199 7.75234C41.6249 7.82101 41.6408 7.88265 41.6684 7.93814C41.7461 8.09408 41.9163 8.20152 42.1946 8.28008C42.1957 8.2804 42.1968 8.28064 42.1979 8.28096C42.2383 8.29232 42.281 8.30304 42.3259 8.3132C42.3311 8.3144 42.3364 8.3156 42.3417 8.31672C42.4548 8.34176 42.5823 8.36336 42.7248 8.38264C42.733 8.38376 42.7413 8.38488 42.7496 8.386C42.7516 8.38624 42.7537 8.38648 42.7557 8.3868C42.7583 8.38712 42.7611 8.38744 42.7637 8.38784C42.7692 8.38856 42.7748 8.38928 42.7804 8.39C42.8283 8.39608 42.8776 8.40192 42.9287 8.40752L43.8238 8.50528C43.8793 8.51144 43.934 8.518 43.9879 8.52496C44.3855 8.57648 44.7388 8.65112 45.0491 8.75088C45.0585 8.75392 45.0678 8.75696 45.0771 8.76C45.1381 8.78008 45.1975 8.8012 45.2553 8.82336C45.2578 8.82432 45.2603 8.82528 45.2628 8.82624C45.6819 8.98784 46.0119 9.20304 46.2566 9.47816C46.5709 9.83144 46.7445 10.2828 46.7851 10.8469C46.7907 10.925 46.7935 11.0028 46.7937 11.0788C46.7953 11.8351 46.528 12.4831 46.0212 12.9812C45.5239 13.4701 44.7959 13.8145 43.865 13.975C43.6501 14.0122 43.4243 14.0394 43.1881 14.0564C43.178 14.0571 43.1679 14.0571 43.1577 14.0578C42.9227 14.0738 42.6987 14.0797 42.4858 14.075C42.4855 14.075 42.4851 14.075 42.4847 14.075C42.1627 14.0679 41.8659 14.0382 41.5939 13.9894C41.5922 13.9891 41.5903 13.9888 41.5885 13.9885C41.2057 13.9193 40.8725 13.8118 40.5885 13.6756C40.2461 13.5112 39.9753 13.3048 39.7752 13.0725C39.7723 13.0692 39.7695 13.0658 39.7667 13.0626C39.6767 12.9567 39.6017 12.8457 39.5409 12.7307C39.4987 12.6533 39.4639 12.5743 39.4367 12.4946C39.3957 12.3747 39.3718 12.2533 39.3631 12.1329C39.3483 11.9262 39.3869 11.7377 39.4691 11.5766C39.6335 11.2548 39.9708 11.0424 40.3972 11.0134C40.3996 11.0133 40.4018 11.013 40.4043 11.0129C40.4201 11.0118 40.4359 11.011 40.4515 11.0103C40.8611 10.9926 41.1671 11.0996 41.4899 11.4393C41.5286 11.48 41.5678 11.5241 41.6071 11.5717C41.6161 11.5826 41.6249 11.5934 41.6342 11.6039C41.6408 11.6115 41.6475 11.619 41.6543 11.6265C41.7071 11.6841 41.7638 11.7358 41.8241 11.7818C41.8247 11.7823 41.8254 11.7828 41.826 11.7833C41.8263 11.7834 41.8267 11.7837 41.8269 11.7839C41.8686 11.8155 41.9119 11.8445 41.9568 11.8709C42.0046 11.8989 42.0541 11.924 42.1052 11.9464C42.2383 12.0046 42.382 12.0439 42.5335 12.0666C42.535 12.0668 42.5364 12.067 42.5379 12.0672C42.5902 12.0749 42.6434 12.0806 42.6974 12.0843C42.6975 12.0844 42.6972 12.0843 42.6974 12.0843C42.8007 12.0916 42.9075 12.0918 43.0157 12.0857C43.0259 12.085 43.0361 12.0837 43.0463 12.083C43.1901 12.0732 43.3227 12.054 43.4433 12.0252C43.4448 12.0248 43.4464 12.0245 43.448 12.0241C43.6405 11.9776 43.8019 11.9086 43.9278 11.8226C43.9991 11.7738 44.0591 11.7196 44.1071 11.661ZM51.1487 7.95971C51.2111 7.52698 51.2257 7.09137 51.1948 6.66244C51.1297 5.75774 50.8854 4.9625 50.5301 4.25421L50.5273 4.24874L50.5246 4.24327C48.6643 0.556964 44.7627 -0.154092 42.1235 0.0252755C40.2405 0.153249 38.2143 0.790006 36.5975 2.23338C35.5355 3.18158 34.7571 4.39386 34.3594 5.76301C34.7009 5.9613 34.9049 6.33614 34.9429 6.86422L35.3395 12.3758L37.7715 12.2106C37.885 12.2028 37.9927 12.2057 38.0943 12.219C38.5611 12.2802 38.8882 12.5606 38.9691 13.0292C38.9695 13.032 38.9699 13.0347 38.9704 13.0375C38.9769 13.0766 38.9819 13.1172 38.985 13.1589C39.0042 13.4265 38.9456 13.6515 38.8226 13.8274C38.8053 13.8522 38.7868 13.8758 38.7671 13.8986C38.7022 13.9731 38.624 14.037 38.5338 14.0897C38.503 14.1077 38.4708 14.1243 38.4373 14.1396C38.2894 14.2072 38.1154 14.2488 37.9191 14.2622L34.844 14.471C34.9279 14.6734 35.0223 14.8725 35.1273 15.0674C35.9738 16.6522 37.2558 17.6706 38.6795 18.2818L38.6086 17.2933C38.5646 16.6817 38.7703 16.2443 39.1875 16.0214C39.3193 15.951 39.4721 15.902 39.6448 15.8758C39.696 15.8681 39.7491 15.8616 39.8037 15.8579C40.1006 15.8378 40.3559 15.8846 40.5641 15.9925C40.8731 16.1525 41.0779 16.4484 41.1594 16.8646C41.1751 16.9447 41.1863 17.0286 41.1927 17.1176L41.3263 18.9756C41.6013 19.009 41.8751 19.0317 42.146 19.0447C42.247 18.2815 42.5063 17.6174 42.9049 17.0729C43.035 16.8953 43.1799 16.7303 43.339 16.5789C43.3485 16.5698 43.3581 16.5609 43.3677 16.5519C44.0681 15.8993 45.0371 15.5022 46.2201 15.4218C46.6258 15.3942 47.0118 15.4076 47.3757 15.4583C48.2611 15.5818 49.0156 15.9308 49.6029 16.4755C51.2176 14.8552 51.9353 12.6988 51.7777 10.5083C51.7162 9.65312 51.5171 8.78432 51.1487 7.95971ZM47.6075 17.9362C47.2757 17.607 46.8508 17.4406 46.3677 17.4734C45.6111 17.5249 45.0654 18.0399 44.8447 18.8662C45.7743 18.6959 46.717 18.4016 47.6075 17.9362Z" fill="white"/>
<path fill-rule="evenodd" clip-rule="evenodd" d="M30.8426 12.6812C31.404 12.643 31.8309 12.8658 31.991 13.3107C32.0255 13.4068 32.0477 13.5132 32.0561 13.6296C32.1032 14.2851 31.685 14.6856 30.9902 14.7329L28.0413 14.9333C28.316 15.9368 28.8593 17.0112 29.8551 17.9125C29.8766 17.9318 29.898 17.951 29.9195 17.9699C29.8923 17.3335 30.1456 16.8946 30.6335 16.7038C30.7756 16.6482 30.9377 16.6135 31.1185 16.6013L33.5868 16.4335C33.8447 16.416 34.0933 16.4133 34.3322 16.4252C34.8111 16.449 35.2509 16.5318 35.6483 16.6719C36.0532 16.8148 36.4141 17.0173 36.7271 17.2781C37.2935 17.75 37.7032 18.4127 37.9345 19.2577L38.2763 19.2345C38.4269 19.2242 38.5834 19.2085 38.7444 19.1862L38.609 17.2938C38.5469 16.4319 38.9813 15.9144 39.804 15.8585C40.6268 15.8026 41.1311 16.2562 41.1931 17.1182L41.2753 18.2713C41.6309 18.0447 41.9782 17.7699 42.3057 17.438C43.3238 16.4065 43.8199 15.159 43.9545 13.9588C43.7038 14.0058 43.4386 14.0393 43.1581 14.0584C41.487 14.1719 40.3731 13.7397 39.802 13.1031C39.6962 12.9852 39.6097 12.8602 39.5411 12.7305C39.4352 12.5364 39.3777 12.3329 39.3633 12.1326C39.3626 12.1225 39.3612 12.1124 39.3608 12.1023C39.3346 11.5436 39.7051 11.1228 40.2595 11.0294C40.304 11.0218 40.3505 11.0164 40.3974 11.0132C40.885 10.9801 41.225 11.1094 41.6073 11.5714C41.9431 11.9817 42.4676 12.1229 43.0467 12.0836C43.3702 12.0616 43.6369 11.988 43.8363 11.8783C43.7419 11.466 43.6033 11.0549 43.4169 10.6562C43.2583 10.6265 43.0735 10.6009 42.8584 10.5774L41.9633 10.4797C41.2403 10.4019 40.6421 10.2202 40.1811 9.93975C39.5124 9.53311 39.1318 8.91895 39.0739 8.11423C39.0544 7.84315 39.0717 7.58514 39.1233 7.34189C39.1831 7.05989 39.2885 6.79788 39.4341 6.55884C39.5555 6.3595 39.7049 6.17614 39.8792 6.0105C39.7021 4.80046 39.1691 3.36167 37.8932 2.20698C36.3981 0.853847 34.5984 0.536552 33.1959 0.631874C31.7933 0.727195 30.0566 1.28483 28.7698 2.82702C27.8699 3.90554 27.4913 5.10552 27.3828 6.17625L30.36 5.97391C31.0548 5.92669 31.5263 6.26672 31.5735 6.92227C31.5777 6.98126 31.5781 7.03818 31.5748 7.09298C31.5411 7.64718 31.1288 7.98334 30.5076 8.02551L27.9052 8.20239L28.0065 9.61063L30.5053 9.44079C30.7654 9.42311 30.9916 9.46767 31.1695 9.56935C31.2564 9.61903 31.3318 9.68247 31.3939 9.75895C31.5052 9.89631 31.5738 10.0759 31.5895 10.2943C31.6319 10.883 31.2659 11.2434 30.6381 11.2861L28.1393 11.4559L28.2402 12.8581L30.8426 12.6812ZM32.8057 13.2554C32.8677 14.1173 33.3727 14.571 34.1955 14.515L37.9192 14.2619C38.614 14.2147 39.0323 13.8142 38.9851 13.1586C38.9379 12.5031 38.4542 12.1639 37.7716 12.2103L35.3396 12.3755L34.9431 6.86397C34.8811 6.00203 34.3764 5.54846 33.5536 5.60437C32.7308 5.66029 32.2965 6.17778 32.3585 7.03971L32.8057 13.2554ZM35.1923 19.4441C35.0223 19.1203 34.7879 18.8774 34.4972 18.7188C34.1832 18.5474 33.8035 18.4743 33.3683 18.5039L32.5577 18.559L32.6139 19.3402C33.2958 19.4944 33.9596 19.5278 34.5525 19.4875L35.1923 19.4441Z" fill="white"/>
<path fill-rule="evenodd" clip-rule="evenodd" d="M26.4677 6.23802C26.0671 6.26524 25.7586 6.40185 25.5546 6.63433C25.3397 6.8794 25.2407 7.23103 25.2725 7.67335L25.7094 13.7374C25.7415 14.1836 25.8916 14.5203 26.1436 14.7336C26.3784 14.9323 26.7013 15.0243 27.0981 14.9973L30.9925 14.7327C31.6873 14.6855 32.1056 14.2849 32.0584 13.6294C32.0348 13.3008 31.9013 13.0513 31.6882 12.8904C31.4761 12.7303 31.1854 12.6579 30.8449 12.681L28.2425 12.8579L28.1414 11.4554L30.6402 11.2855C30.6755 11.2831 30.71 11.2797 30.7436 11.2753C31.3078 11.2016 31.6316 10.8494 31.5917 10.2937C31.5517 9.73865 31.1705 9.43441 30.6113 9.43649C30.5773 9.43657 30.5427 9.43785 30.5074 9.44025L28.0086 9.61009L27.9073 8.20185L30.5097 8.02497C30.8502 8.00185 31.1279 7.89039 31.3149 7.70315C31.5029 7.51498 31.5993 7.25027 31.5756 6.92171C31.5285 6.26615 31.0569 5.92612 30.3621 5.97335L26.4677 6.23802ZM36.3566 8.68649C36.5552 7.98226 36.6174 7.26458 36.5683 6.58239C36.4596 5.07097 35.781 3.40401 34.2518 2.23478C32.8108 1.13295 31.1992 0.919642 30.0044 1.00084L26.1099 1.26552C24.7073 1.36084 22.9706 1.91848 21.6838 3.46067C20.4252 4.96905 20.1865 6.71499 20.2798 8.01265L20.3681 9.23865L20.5264 9.44761L20.5752 9.44433L21.9485 6.99652C22.1617 6.61463 22.3738 6.41408 22.7567 6.3467C22.8125 6.3369 22.8718 6.32991 22.9353 6.32559C23.3576 6.2969 23.7597 6.46079 24.0105 6.73927C24.1579 6.90286 24.253 7.10599 24.2693 7.33286C24.2798 7.47796 24.2728 7.61182 24.2442 7.74324C24.2035 7.93069 24.119 8.11321 23.9788 8.31633L22.2158 10.8821L22.2193 10.9307L24.2748 13.1883C24.4681 13.4009 24.5875 13.597 24.6541 13.8089C24.6883 13.9178 24.709 14.031 24.7177 14.1525C24.7365 14.4127 24.6801 14.6475 24.5641 14.841C24.3771 15.1531 24.0341 15.3579 23.594 15.3878C23.5295 15.3922 23.467 15.3927 23.4073 15.3894C23.0326 15.3688 22.7437 15.1944 22.4267 14.8267L20.6688 12.7807L20.6231 12.7836L20.7161 14.0766C20.784 15.0192 21.0592 16.1725 21.7653 17.2402C21.9486 17.125 22.1789 17.0561 22.451 17.0376C22.9417 17.0043 23.3184 17.1519 23.5563 17.4595C23.6947 17.6385 23.7859 17.8716 23.8247 18.1546C23.831 18.2007 23.8365 18.2485 23.8401 18.2973L23.9054 19.2136C24.7881 19.6992 25.711 19.9171 26.5567 19.9712L26.4238 18.1219C26.4203 18.0731 26.4181 18.0249 26.4178 17.9783C26.4131 17.3458 26.6984 16.9209 27.2245 16.7569C27.3437 16.7197 27.4755 16.6963 27.6189 16.6866C27.9945 16.6611 28.3034 16.7413 28.5345 16.9185C28.7809 17.1075 28.9385 17.4063 28.9929 17.8033C28.9993 17.8495 29.0044 17.8975 29.0079 17.9463L29.145 19.8547L30.0519 19.793L29.9257 18.0364C29.9183 17.9327 29.9177 17.8335 29.9245 17.74C29.9303 17.6591 29.9413 17.5821 29.9575 17.5091C30.078 16.9651 30.4827 16.6444 31.1209 16.6011L33.5892 16.4333C34.6037 16.3643 35.4743 16.5242 36.1753 16.9032C36.6898 16.0799 36.9577 15.1863 37.0393 14.3213L34.1965 14.515C33.4825 14.5635 33.0087 14.2277 32.8553 13.5748C32.832 13.4755 32.8163 13.3691 32.8081 13.2551L32.3606 7.03915C32.3565 6.98075 32.3545 6.92395 32.3549 6.86875C32.3593 6.10922 32.7887 5.65594 33.5557 5.6038C34.3228 5.55167 34.8129 5.94246 34.9261 6.694C34.9343 6.74861 34.9399 6.80551 34.9441 6.86391L35.3415 12.3754L36.8915 12.2697C36.807 11.9221 36.6911 11.5759 36.5413 11.2378C36.6029 10.7974 36.6138 10.3647 36.5843 9.95441C36.5544 9.53857 36.4804 9.11137 36.3566 8.68649ZM34.4357 18.6853C34.1345 18.5376 33.7769 18.4761 33.3706 18.5037L32.5601 18.5588L32.6271 19.4932C33.2197 19.3347 33.8407 19.0792 34.4357 18.6853Z" fill="white"/>
<path fill-rule="evenodd" clip-rule="evenodd" d="M22.4396 14.8419C22.8017 15.2565 23.1297 15.4186 23.5931 15.3871C23.9278 15.3643 24.2067 15.2405 24.4033 15.0452C24.6256 14.8245 24.7428 14.5124 24.7169 14.1518C24.6921 13.8075 24.576 13.5315 24.3072 13.2249L24.3046 13.222C24.2946 13.2106 24.2843 13.1991 24.2739 13.1876L22.219 10.9301L22.2155 10.8815L23.9785 8.31577C24.0106 8.26921 24.0398 8.22377 24.0662 8.17905C24.0672 8.17745 24.0681 8.17593 24.069 8.17433C24.2365 7.88916 24.2909 7.63524 24.269 7.3323C24.2546 7.13187 24.1787 6.94998 24.0596 6.79751C23.8144 6.48357 23.3862 6.29436 22.9349 6.32503C22.4556 6.35761 22.2125 6.54249 21.9781 6.94359C21.9773 6.94499 21.9765 6.94639 21.9757 6.94779C21.9665 6.96351 21.9573 6.97957 21.9482 6.99595L20.5749 9.44377L20.5261 9.44705L18.8955 7.29531L18.8927 7.29159C18.8417 7.22402 18.7893 7.16201 18.7355 7.10557C18.4398 6.79558 18.0999 6.65363 17.6936 6.68125C17.2299 6.71276 16.8602 6.92844 16.6555 7.25445C16.5265 7.45982 16.463 7.70898 16.4828 7.98346C16.5043 8.28257 16.593 8.53305 16.8275 8.83433C16.8293 8.83665 16.8311 8.83897 16.8329 8.84129C16.873 8.89249 16.9173 8.94513 16.9662 8.99977L18.8382 11.0989L18.8417 11.1475L17.2193 13.7098C17.1942 13.7492 17.1709 13.7876 17.1492 13.8251L17.1469 13.829C16.9566 14.1591 16.8968 14.4189 16.9179 14.7122C16.9434 15.0665 17.1308 15.3656 17.4109 15.5516C17.6301 15.6971 17.9059 15.7735 18.2054 15.7532C18.693 15.7201 18.9672 15.5306 19.2405 15.0729L20.613 12.7838L20.6679 12.78L22.4258 14.8259C22.4283 14.8289 22.4309 14.8318 22.4334 14.8347C22.4353 14.8369 22.4372 14.839 22.4391 14.8412L22.4396 14.8419ZM22.5261 17.0331C22.501 17.0339 22.4757 17.0351 22.4501 17.0369C21.6273 17.0928 21.193 17.6103 21.255 18.4723L21.365 20.001C21.3177 19.9837 21.2705 19.9657 21.2231 19.9471C20.2681 20.4865 19.3196 20.6742 18.5632 20.7257C18.5473 20.7268 18.5315 20.7278 18.5157 20.7287L18.429 19.5243L19.7271 19.4361C19.8628 19.4269 19.9885 19.4036 20.1024 19.3672C20.562 19.2202 20.8308 18.8581 20.793 18.3328C20.7458 17.6773 20.2743 17.3372 19.5795 17.3845L14.3991 17.7366C13.8129 17.7764 13.4235 18.0678 13.3445 18.5517C12.5551 17.6313 12.0256 16.4474 11.9252 15.0516C11.8272 13.6898 12.1648 12.5419 12.6633 11.5922C12.5734 11.4642 12.4871 11.3326 12.405 11.1973C12.4432 10.945 12.4533 10.6785 12.4332 10.3996C12.371 9.53513 12.0596 8.82681 11.5615 8.31793C11.5364 8.29225 11.5108 8.26713 11.4848 8.24249C11.2615 4.52935 14.1561 1.92485 17.3358 1.70875C18.3167 1.64209 19.2056 1.79495 19.992 2.09495C20.9177 1.58387 21.8389 1.40271 22.5772 1.35254C25.0415 1.18505 28.3777 2.6708 29.1266 6.05672L26.4673 6.23745C25.7845 6.28386 25.3693 6.64815 25.2832 7.26338C25.2655 7.3895 25.2617 7.52616 25.2722 7.67279L25.7085 13.7367C25.7173 13.8598 25.7353 13.9746 25.7618 14.0807C25.9211 14.7178 26.3923 15.0443 27.0975 14.9964L29.701 14.8195C29.6222 15.7019 29.3544 16.5796 28.8807 17.379C28.6745 16.8891 28.2362 16.6436 27.6184 16.6856C26.7956 16.7415 26.3613 17.2591 26.4233 18.121L26.5315 19.6249C25.7189 20.0598 24.8414 20.2941 23.9874 20.357L23.8392 18.2966C23.8291 18.1567 23.8074 18.0276 23.7745 17.9097C23.7346 17.7661 23.6781 17.639 23.6061 17.5293C23.3863 17.1944 23.0217 17.0215 22.5393 17.0328C22.5349 17.0329 22.5305 17.033 22.5261 17.0331ZM29.5501 12.768C29.4335 12.2774 29.263 11.8195 29.0488 11.3931L28.1411 11.4548L28.242 12.8569L29.5501 12.768ZM28.9287 9.54697C29.0884 9.09121 29.1973 8.61209 29.2476 8.11017L27.907 8.20129L28.0083 9.60953L28.9287 9.54697ZM13.3498 14.729C13.3554 14.807 13.3646 14.8817 13.3774 14.9529C13.5057 15.6689 13.9905 16.0397 14.7388 15.9888C15.4872 15.9379 15.9141 15.5052 15.9386 14.7788C15.9411 14.7066 15.9395 14.6315 15.9339 14.5535L15.4758 8.18609C15.4725 8.14049 15.468 8.09609 15.4623 8.05281C15.3596 7.27761 14.8661 6.87341 14.0868 6.92638C13.3075 6.97934 12.8767 7.44635 12.886 8.22793C12.8865 8.27153 12.8884 8.31617 12.8917 8.36169L13.3498 14.729ZM14.7732 19.7728C15.1269 19.9925 15.5015 20.1769 15.8897 20.3238L15.8449 19.6999L14.7732 19.7728Z" fill="white"/>
<path fill-rule="evenodd" clip-rule="evenodd" d="M13.1078 11.3664L12.8917 8.36291C12.8297 7.50102 13.2641 6.98353 14.0868 6.92761C14.9096 6.8717 15.4138 7.3254 15.4758 8.18731L15.6919 11.1908C15.8222 11.2328 15.9558 11.2836 16.0914 11.3448C15.9659 11.4236 15.8408 11.492 15.7178 11.5512L15.9346 14.5544C15.9966 15.4164 15.5616 15.9344 14.7388 15.9903C13.9161 16.0462 13.4118 15.5925 13.3498 14.7306L13.1338 11.7268C13.0035 11.6849 12.8698 11.6341 12.7342 11.5729C12.8598 11.494 12.9849 11.4256 13.1078 11.3664ZM12.1651 12.0107C12.2551 11.8149 12.3243 11.606 12.3712 11.3852C12.4363 11.0788 12.4583 10.7495 12.4333 10.4009C12.3761 9.60571 12.108 8.94267 11.6778 8.44547C11.0538 7.7243 10.0887 7.35183 8.93072 7.43052L7.91602 7.49949C8.02456 6.42876 8.40304 5.22879 9.30296 4.15027C10.5898 2.60808 12.3265 2.05044 13.729 1.95512C15.1316 1.8598 16.9313 2.17709 18.4264 3.53021C19.8888 4.85368 20.3752 6.55034 20.4686 7.84801L20.5825 9.43147L20.5752 9.44467L20.5264 9.44795L18.8953 7.29618C18.5634 6.85515 18.1751 6.64976 17.6936 6.68249C16.9379 6.73385 16.4317 7.27452 16.4828 7.9847C16.4861 8.03011 16.4909 8.07435 16.4975 8.11787C16.5424 8.41179 16.6704 8.67043 16.9662 9.00099L18.8382 11.1001L18.8418 11.1487L17.2201 13.7107C17.0306 14.0084 16.9401 14.2459 16.919 14.4878C16.9124 14.562 16.913 14.6363 16.9186 14.7132C16.964 15.3445 17.5229 15.8008 18.2054 15.7544C18.693 15.7213 18.9673 15.5319 19.2406 15.0741L20.613 12.785L20.6679 12.7812L20.8377 12.9788L20.9266 14.2154C20.9952 15.168 20.8848 16.3622 20.3234 17.5266C20.125 17.4146 19.8721 17.3658 19.5795 17.3857L14.3991 17.738C13.7043 17.7852 13.2868 18.1852 13.3339 18.8408C13.3811 19.4964 13.8648 19.8356 14.5474 19.7892L15.8449 19.7015L15.9278 20.8544C15.6423 20.9096 15.3634 20.9444 15.0966 20.9625C14.3598 21.0126 13.5134 20.9488 12.6591 20.6808C12.8403 20.495 12.9336 20.2394 12.9122 19.943C12.8978 19.7427 12.8494 19.5812 12.7637 19.4102C12.2312 18.3552 10.9495 17.8272 9.22248 17.9372C8.65136 16.9555 8.41872 15.9257 8.35712 15.0696L8.27112 13.8739L9.21208 13.8102C9.82488 13.7685 10.3712 13.6198 10.8324 13.3808C11.0291 13.2788 11.2104 13.1603 11.3747 13.0265C11.715 12.7496 11.9827 12.4072 12.1651 12.0107ZM8.1344 11.974L8.5452 11.946C9.40456 11.8876 9.88544 11.4219 9.8252 10.5843C9.76536 9.75267 9.2224 9.35651 8.38136 9.41363L7.95229 9.44283L8.1344 11.974ZM18.447 19.7758C18.5654 19.6897 18.6822 19.598 18.7969 19.5006L18.429 19.5256L18.447 19.7758Z" fill="white"/>
<path fill-rule="evenodd" clip-rule="evenodd" d="M5.01081 9.05016C4.94879 8.18824 5.38314 7.67073 6.20591 7.61481L8.93016 7.43009C10.4242 7.32856 11.5971 7.97759 12.1306 9.15792C12.2958 9.52328 12.3995 9.93992 12.4327 10.4005C12.4328 10.4025 12.433 10.4041 12.4332 10.4061C12.4659 10.8716 12.4146 11.3026 12.289 11.6907C11.9992 12.5857 11.3142 13.2518 10.3542 13.5843C10.2662 13.6147 10.1761 13.6423 10.0837 13.6671C9.81144 13.7401 9.51984 13.7888 9.21152 13.8098L7.95603 13.895L8.04208 15.0908C8.10408 15.9528 7.66973 16.4702 6.84696 16.5262C6.02418 16.5821 5.51996 16.1284 5.45794 15.2665L5.01081 9.05016ZM7.8194 11.9945L8.54464 11.9456C8.55072 11.9452 8.55688 11.9443 8.56296 11.9438C8.75096 11.9298 8.92064 11.8958 9.07008 11.8426C9.13088 11.821 9.18832 11.7962 9.24232 11.7681C9.6544 11.5543 9.86584 11.1561 9.82464 10.5838C9.82448 10.5818 9.8244 10.5794 9.82424 10.5773C9.81368 10.4365 9.7892 10.3082 9.75168 10.1926C9.63824 9.84241 9.40552 9.60816 9.07864 9.49224C9.02104 9.47184 8.96064 9.45512 8.89736 9.44208C8.74144 9.40984 8.56848 9.40049 8.3808 9.41321L7.63729 9.46329L7.8194 11.9945ZM11.7422 18.3805C11.1584 18.061 10.3983 17.9032 9.5076 17.9238C9.4036 17.9262 9.2984 17.9312 9.19088 17.9386C8.8628 17.9609 8.55008 18.0094 8.25744 18.0825C7.78076 18.2015 7.35583 18.3852 6.99806 18.6247C6.17582 19.1754 5.70821 20.0217 5.78262 21.0558C5.79258 21.1944 5.8122 21.3266 5.84116 21.4538C4.74042 21.3062 3.54989 20.8663 2.50742 19.9229C1.04508 18.5994 0.55867 16.9028 0.465305 15.6051L0.0181026 9.38944C-0.0752628 8.09176 0.163454 6.34584 1.42206 4.83747C2.70886 3.29528 4.44559 2.73764 5.84815 2.64232L8.57248 2.45717C10.6229 2.31782 12.8123 2.84157 14.5835 4.33015C15.5411 5.13496 16.2439 6.1109 16.7138 7.17009C16.5458 7.39 16.4597 7.67084 16.4822 7.98427C16.5076 8.33632 16.6261 8.62104 16.9657 9.00056L17.3594 9.4416C17.3886 9.64744 17.4106 9.85392 17.4254 10.0607C17.5853 12.2826 16.9025 14.5126 15.2801 16.2141C14.434 17.1015 13.4395 17.7349 12.3866 18.153C12.3064 18.3125 12.2175 18.4713 12.1194 18.6286C12.0035 18.5374 11.8776 18.4546 11.7422 18.3805ZM10.5578 20.3093C10.253 19.9822 9.86304 19.8753 9.36328 19.9092C8.64408 19.9581 8.3004 20.2991 8.3288 20.6937C8.346 20.9326 8.49648 21.0858 8.81008 21.1918C9.39968 21.0025 9.99688 20.7181 10.5578 20.3093ZM13.3542 14.7874C13.4344 15.6117 13.9342 16.0445 14.7382 15.9898C15.561 15.9339 15.9961 15.4159 15.9341 14.554L15.4753 8.18688C15.4133 7.32497 14.909 6.87127 14.0862 6.92718C13.937 6.93732 13.8007 6.96221 13.6777 7.002C13.1223 7.18166 12.8404 7.65688 12.8911 8.36248L13.3493 14.7302C13.3506 14.7497 13.3523 14.7683 13.3542 14.7874Z" fill="white"/>
<path fill-rule="evenodd" clip-rule="evenodd" d="M42.4849 14.0727C42.6973 14.0773 42.9206 14.0721 43.1547 14.0562C44.4439 13.9686 45.424 13.5763 46.0399 12.9574C46.0482 12.949 46.0565 12.9406 46.0647 12.9322C47.9594 12.8092 49.7908 13.3086 51.2012 14.5603C52.6113 15.8118 53.3334 17.5777 53.4705 19.4837C53.6076 21.3898 53.1452 23.2358 51.9265 24.6648C50.7024 26.1002 48.9496 26.8396 47.048 26.9689C45.1447 27.0982 43.302 26.6038 41.8839 25.3465C41.642 25.132 41.4205 24.9025 41.2187 24.6597C41.5347 24.4178 41.6862 24.0165 41.6479 23.4834L41.1897 17.116C41.1515 16.5845 40.9451 16.2082 40.5996 16.011C40.7643 15.7439 40.9503 15.4874 41.1584 15.2429C41.5503 14.7824 41.9967 14.3932 42.4849 14.0727ZM43.2804 23.229C44.1163 24.1325 45.3547 24.5855 46.8691 24.4826C48.3867 24.3795 49.552 23.7584 50.2504 22.743C50.8029 21.9396 51.0631 20.8893 50.9742 19.6533C50.8851 18.4159 50.4761 17.409 49.8125 16.6866C48.9755 15.7755 47.7333 15.3171 46.2171 15.4202C44.701 15.5232 43.5365 16.1451 42.8381 17.1606C42.2843 17.9657 42.0235 19.0182 42.1126 20.2556C42.202 21.4982 42.6127 22.5073 43.2804 23.229ZM48.1085 21.4288C47.8379 22.0246 47.3549 22.3879 46.7215 22.431C46.0901 22.4739 45.5611 22.1813 45.2078 21.6312C44.954 21.2362 44.7909 20.7083 44.7455 20.0766C44.7 19.445 44.786 18.9006 44.9798 18.475C45.2515 17.878 45.735 17.5146 46.3647 17.4718C46.9945 17.429 47.5254 17.7234 47.8798 18.2779C48.1326 18.6732 48.2959 19.2006 48.3413 19.8322C48.3865 20.4613 48.3015 21.0041 48.1085 21.4288ZM46.4434 19.9582C46.4523 19.9588 46.4612 19.9592 46.4699 19.9594C46.4959 19.9602 46.5207 19.9597 46.5436 19.9581C46.5666 19.9566 46.5911 19.9537 46.6168 19.9494C46.6254 19.948 46.6341 19.9465 46.6429 19.9447C46.6067 19.9425 46.5731 19.9426 46.5427 19.9447C46.5123 19.9468 46.4789 19.9511 46.4434 19.9582Z" fill="black"/>
<path fill-rule="evenodd" clip-rule="evenodd" d="M37.3065 14.3026C37.1802 14.4151 37.0591 14.5395 36.9446 14.6767C36.3747 15.3598 36.1482 16.1457 36.1055 16.8684C36.3897 17.0144 36.6469 17.1954 36.8755 17.4107C37.5979 18.0913 38.0341 19.1148 38.1309 20.4606C38.2307 21.847 37.9256 22.9746 37.2699 23.7824C37.0871 24.0074 36.8772 24.2077 36.6412 24.3817C36.7827 25.1027 37.1196 25.8662 37.7935 26.476C38.6595 27.2597 39.7251 27.468 40.6321 27.4064C41.5391 27.3447 42.5646 26.9942 43.3099 26.1011C43.8758 25.4229 44.1031 24.6433 44.148 23.9247C43.8787 23.7682 43.6327 23.581 43.4117 23.365C42.6669 22.6365 42.2082 21.5789 42.1131 20.257C42.0179 18.9333 42.3229 17.8212 42.9587 16.9973C43.1455 16.755 43.3611 16.5377 43.6033 16.3472C43.4563 15.6407 43.1195 14.8979 42.4609 14.3018C42.3636 14.2138 42.2639 14.133 42.162 14.0591C41.2411 13.9925 40.5489 13.7307 40.0813 13.3643C39.9251 13.3585 39.7715 13.3614 39.6223 13.3714C39.4089 13.386 39.1889 13.4165 38.9675 13.4663C38.8811 13.9381 38.4944 14.2219 37.9164 14.2612L37.3065 14.3026ZM39.0643 23.6604C39.1263 24.5224 39.6305 24.9761 40.4532 24.9202C41.276 24.8642 41.7103 24.3467 41.6483 23.4848L41.1903 17.1174C41.1282 16.2555 40.624 15.8018 39.8012 15.8578C38.9784 15.9137 38.5441 16.4311 38.6061 17.293L39.0643 23.6604Z" fill="black"/>
<path fill-rule="evenodd" clip-rule="evenodd" d="M28.824 14.8783C28.6244 15.0309 28.4351 15.2099 28.261 15.4186C27.9281 15.8175 27.7124 16.2515 27.582 16.6876C27.5932 16.6867 27.6044 16.6858 27.6157 16.6851C28.4384 16.6291 28.9427 17.0828 29.0047 17.9447L29.3244 22.3879C29.3735 23.0705 29.235 23.681 28.9387 24.1952C28.7172 24.5798 28.4073 24.9105 28.0218 25.1773C28.1969 25.7873 28.5248 26.4045 29.0881 26.9143C29.954 27.6979 31.0197 27.9063 31.9267 27.8447L34.395 27.677C36.2501 27.5509 37.9811 26.8462 39.1807 25.3995C39.3514 25.1935 39.5058 24.9794 39.6445 24.7581C39.3057 24.5591 39.1033 24.1853 39.0655 23.6595L38.6074 17.2921C38.568 16.745 38.7287 16.3366 39.0617 16.0971C38.871 15.8704 38.6611 15.6558 38.4311 15.4549C37.8635 14.9593 37.232 14.5986 36.5628 14.3523L34.1939 14.5133C33.8994 14.5334 33.6456 14.4881 33.4384 14.3822C33.2588 14.2903 33.114 14.1527 33.0079 13.9727L32.0157 14.0401C31.8944 14.4495 31.5236 14.6948 30.9893 14.7311L28.824 14.8783ZM30.4882 24.6715C30.6955 25.1571 31.1326 25.4003 31.7478 25.3585L34.2161 25.1907C35.5568 25.0996 36.5912 24.6119 37.2622 23.7923C37.9241 22.9839 38.2324 21.8523 38.1322 20.4596C38.0188 18.8829 37.4396 17.7485 36.4797 17.0898C35.7324 16.5769 34.7544 16.3523 33.586 16.4318L31.1176 16.5995C30.5024 16.6414 30.1044 16.9412 29.9686 17.4501C29.9228 17.6219 29.9068 17.8174 29.9225 18.0349L30.3587 24.0987C30.3744 24.3162 30.4182 24.5077 30.4882 24.6715ZM34.0673 23.122C33.9526 23.1453 33.8312 23.1613 33.7032 23.17L32.8927 23.2251L32.5568 18.5573L33.3674 18.5022C33.4948 18.4935 33.6173 18.4937 33.7349 18.5025C34.23 18.5396 34.6362 18.7305 34.9347 19.0671C35.002 19.1431 35.064 19.2265 35.1201 19.3172C35.3303 19.6567 35.4605 20.0988 35.4993 20.6386C35.5429 21.2447 35.4828 21.7401 35.3223 22.1271C35.2974 22.1871 35.2702 22.2443 35.2406 22.299C35.0021 22.7393 34.6088 23.0122 34.0673 23.122Z" fill="black"/>
<path fill-rule="evenodd" clip-rule="evenodd" d="M22.1905 14.5566C21.3029 14.6326 20.3139 14.9881 19.5897 15.8561C19.1778 16.3496 18.9454 16.8969 18.8319 17.4351L19.5757 17.3846C20.2705 17.3374 20.742 17.6774 20.7892 18.333C20.7934 18.3919 20.7938 18.4489 20.7905 18.5037C20.7569 19.0578 20.3445 19.394 19.7233 19.4362L18.8164 19.4979L19.0745 23.0852C19.1963 24.7781 19.9907 26.2609 21.3403 27.2401C22.6442 28.1861 24.2598 28.5189 25.8613 28.4101C27.4628 28.3012 29.0151 27.753 30.1707 26.6399C30.5844 26.2415 30.9236 25.7925 31.1855 25.3054C30.6971 25.1595 30.4039 24.7434 30.3576 24.0995L29.9214 18.0356C29.9176 17.9837 29.9157 17.933 29.9155 17.8835C29.9131 17.113 30.3433 16.6528 31.1165 16.6002L31.2507 16.5911C31.0613 16.0734 30.7527 15.563 30.2742 15.1299C30.1412 15.0095 30.0034 14.9027 29.8623 14.8084L27.0937 14.9966C26.5983 15.0302 26.2185 14.8791 25.981 14.5655C25.6033 14.7418 25.2404 14.9888 24.9198 15.3237C24.7641 15.2009 24.6031 15.095 24.4387 15.0042C24.2408 15.2232 23.9469 15.3629 23.5892 15.3872C23.1199 15.4191 22.7894 15.2525 22.4219 14.8261L22.1905 14.5566ZM24.2229 22.4624C24.2229 22.4624 24.2229 22.4615 24.2229 22.4598V22.4624ZM26.6318 22.2961C26.632 22.2978 26.6321 22.2986 26.6321 22.2986L26.6318 22.2961ZM22.5911 25.0535C23.3219 25.6929 24.3989 26.011 25.6824 25.9238C26.966 25.8366 27.9869 25.3758 28.619 24.6438C29.1305 24.0516 29.3874 23.2818 29.3232 22.3887L29.0035 17.9455C28.9415 17.0836 28.4373 16.6298 27.6146 16.6858C26.7918 16.7417 26.3574 17.2592 26.4194 18.1211L26.7186 22.279C26.7423 22.6094 26.7037 22.89 26.6058 23.1167C26.4305 23.5234 26.0652 23.7569 25.5291 23.7933C24.9931 23.8297 24.5979 23.6479 24.366 23.269C24.2367 23.0577 24.1582 22.785 24.1345 22.4546L23.8353 18.2967C23.7733 17.4348 23.269 16.9811 22.4463 17.037C21.6235 17.093 21.1892 17.6104 21.2512 18.4724L21.5709 22.9156C21.6351 23.8086 21.9998 24.5362 22.5911 25.0535Z" fill="black"/>
<path fill-rule="evenodd" clip-rule="evenodd" d="M14.2681 15.9586C14.4097 15.9896 14.5659 15.9997 14.7357 15.9882C15.3514 15.9464 15.7496 15.646 15.885 15.1364L16.998 15.0607C17.1846 15.5026 17.6537 15.7899 18.2023 15.7526C18.6898 15.7195 18.9641 15.53 19.2374 15.0723L19.3398 14.9016L19.3975 14.8976C20.1686 14.8452 21.1202 14.9884 21.946 15.6199C22.4817 16.0295 22.8407 16.55 23.053 17.1044C22.877 17.0442 22.6742 17.0208 22.447 17.0363C21.68 17.0884 21.2505 17.5416 21.2461 18.3012C21.2458 18.3564 21.2477 18.4132 21.2519 18.4716L21.4691 21.4902C21.3434 21.5562 21.2162 21.6135 21.0883 21.6629L21.3187 24.8656C21.381 25.7299 21.215 26.7753 20.4839 27.6516C19.7386 28.5447 18.7131 28.8952 17.8062 28.9568C16.8992 29.0184 15.8334 28.8101 14.9676 28.0264C14.1181 27.2576 13.8041 26.2448 13.7419 25.3805L13.5115 22.1779C13.0634 22.0717 12.6082 21.8772 12.1861 21.557C11.9632 21.3879 11.7698 21.199 11.6043 20.9957C11.6987 21.0045 11.799 21.0049 11.9065 20.9976C12.5521 20.9476 12.9503 20.5241 12.9084 19.9414C12.894 19.7411 12.8456 19.5797 12.7598 19.4086C12.6662 19.2232 12.5495 19.054 12.4113 18.9016C12.0443 18.4973 11.5258 18.212 10.8867 18.057C11.0037 17.4352 11.2903 16.8228 11.7968 16.3096C12.3092 15.7905 12.918 15.5028 13.5027 15.3597C13.6571 15.6778 13.9178 15.882 14.2681 15.9586ZM14.5436 19.7876L15.8418 19.6993L16.2382 25.2108C16.3003 26.0728 16.8045 26.5265 17.6273 26.4706C18.4501 26.4147 18.8844 25.8972 18.8224 25.0352L18.4258 19.5237L19.724 19.4355C20.4066 19.3891 20.837 18.9878 20.7899 18.3322C20.7427 17.6767 20.2712 17.3366 19.5764 17.3839L14.396 17.736C13.7012 17.7832 13.2829 18.1836 13.3301 18.8392C13.3773 19.4948 13.861 19.834 14.5436 19.7876Z" fill="black"/>
<path fill-rule="evenodd" clip-rule="evenodd" d="M5.96982 16.3225C6.19594 16.4788 6.49074 16.5488 6.84439 16.5248C7.49622 16.4805 7.90426 16.1465 8.01481 15.5811C8.34305 15.5168 8.67561 15.4741 9.00873 15.4515C11.0102 15.3155 13.351 15.8208 14.6542 17.7187L14.396 17.7363C13.7012 17.7835 13.2829 18.184 13.3301 18.8396C13.3369 18.9336 13.3526 19.0211 13.3766 19.1019C13.3768 19.1024 13.377 19.103 13.3771 19.1036C13.5211 19.585 13.9596 19.8276 14.5436 19.7879L15.4015 19.7296C15.4026 19.7437 15.4038 19.7579 15.4048 19.772C15.4404 20.2668 15.3744 20.7686 15.1999 21.2401C15.6806 21.9548 15.927 22.7744 15.9877 23.6179C16.1038 25.2324 15.5432 26.7576 14.3158 27.8602C13.1555 28.9024 11.6167 29.3778 10.0429 29.4848C7.60351 29.6505 5.15132 28.9217 4.04066 26.8398C3.76856 26.336 3.61233 25.7919 3.57279 25.2424C3.52223 24.5397 3.6647 23.9063 3.94429 23.3676C3.56008 22.7238 3.33918 21.9954 3.28369 21.2241C3.16346 19.5531 3.81593 18.0689 4.97812 17.0313C5.28488 16.7575 5.61778 16.522 5.96982 16.3225ZM5.90272 21.6817C6.0459 22.1065 6.30531 22.4588 6.67296 22.7348C6.78299 22.8174 6.90272 22.8932 7.03193 22.962C7.46117 23.1908 7.99502 23.343 8.62561 23.4151C8.64017 23.4168 8.65481 23.4184 8.66945 23.42L9.56457 23.5177C9.59177 23.5207 9.61849 23.5236 9.64481 23.5267C9.90545 23.5568 10.1197 23.5905 10.2937 23.6322C10.2946 23.6324 10.2955 23.6326 10.2965 23.6328C10.6608 23.7204 10.8484 23.8428 10.9178 24.0394C10.9314 24.0778 10.9406 24.119 10.9455 24.1634C10.9466 24.1728 10.9475 24.1824 10.9482 24.1922C10.9792 24.6232 10.5266 24.9711 9.75249 25.0237C9.74233 25.0244 9.73217 25.0251 9.72201 25.0256C9.61377 25.0318 9.50745 25.0316 9.40409 25.0244C9.40425 25.0244 9.40393 25.0244 9.40409 25.0244C9.07729 25.0015 8.77897 24.9086 8.53793 24.7274C8.53609 24.726 8.53425 24.7247 8.53233 24.7232C8.53169 24.7228 8.53113 24.7223 8.53049 24.7218C8.52361 24.7165 8.51681 24.7112 8.51001 24.7059C8.45729 24.6639 8.40737 24.6175 8.36073 24.5665C8.35393 24.5591 8.34713 24.5515 8.34049 24.5439C8.33129 24.5333 8.32217 24.5225 8.31321 24.5116C7.93085 24.0496 7.59083 23.9202 7.10325 23.9533C6.46332 23.9968 6.0246 24.4536 6.06915 25.0728C6.07411 25.1418 6.0842 25.2112 6.09962 25.2804C6.12894 25.4122 6.17754 25.5434 6.2469 25.6706C6.30774 25.7856 6.38308 25.8967 6.47301 26.0025C6.47583 26.0058 6.47866 26.0092 6.48152 26.0124C6.59563 26.145 6.73278 26.2691 6.89306 26.3817C7.52297 26.8244 8.51049 27.0905 9.86401 26.9985C9.87417 26.9978 9.88433 26.9971 9.89441 26.9964C11.8512 26.8556 13.0894 26.009 13.4144 24.7323C13.489 24.439 13.5154 24.1229 13.4914 23.7876C13.4751 23.5626 13.4378 23.3554 13.3788 23.1652C13.2261 22.6728 12.9282 22.2942 12.4766 22.0148C12.325 21.9209 12.1558 21.8382 11.9691 21.7662C11.9666 21.7652 11.9641 21.7643 11.9616 21.7633C11.5931 21.6221 11.1562 21.5221 10.6483 21.4592C10.6094 21.4543 10.5699 21.4497 10.5301 21.4453L9.63505 21.3476C9.57801 21.3412 9.52297 21.3347 9.47001 21.3278C9.46737 21.3275 9.46465 21.3271 9.46201 21.3268C9.46001 21.3265 9.45793 21.3262 9.45593 21.326C9.23857 21.2973 9.05553 21.2634 8.90425 21.221C8.90313 21.2207 8.90201 21.2204 8.90089 21.22C8.59289 21.1331 8.41737 21.0108 8.35305 20.8265C8.34369 20.7998 8.33673 20.7719 8.33201 20.7425C8.32937 20.7262 8.32745 20.7095 8.32625 20.6923C8.29825 20.3034 8.63113 19.967 9.32953 19.9107C9.33961 19.9099 9.34977 19.9091 9.36001 19.9084C9.51241 19.898 9.65473 19.9008 9.78753 19.919C9.78817 19.9191 9.78873 19.9192 9.78929 19.9192C10.0291 19.9523 10.238 20.0356 10.4198 20.1823C10.4984 20.2456 10.5719 20.3208 10.6407 20.409C10.6411 20.4096 10.6415 20.41 10.6419 20.4105C10.6455 20.4152 10.649 20.4198 10.6526 20.4244C10.6577 20.431 10.6628 20.4375 10.6678 20.444C10.669 20.4455 10.6702 20.447 10.6714 20.4486C10.6934 20.4763 10.7155 20.5029 10.7377 20.5284C10.7672 20.5624 10.797 20.5945 10.8272 20.6246C11.1227 20.92 11.4495 21.029 11.9065 20.998C12.5521 20.948 12.9503 20.5244 12.9084 19.9417C12.894 19.7414 12.8456 19.58 12.7598 19.409C12.7586 19.4064 12.7574 19.404 12.7561 19.4016C12.6873 19.2664 12.6062 19.14 12.5134 19.0226C12.5102 19.0185 12.507 19.0144 12.5038 19.0104C12.3634 18.8352 12.1969 18.68 12.0062 18.5456C11.34 18.0762 10.3799 17.8616 9.21809 17.9357C9.20793 17.9364 9.19777 17.9371 9.18761 17.9377C7.47337 18.0543 6.19403 18.8918 5.85888 20.1601C5.78532 20.4385 5.75725 20.7376 5.78004 21.0544C5.79615 21.2784 5.8373 21.4876 5.90272 21.6817Z" fill="black"/>
<path fill-rule="evenodd" clip-rule="evenodd" d="M41.803 11.7644C41.7502 11.7224 41.7004 11.6761 41.6537 11.6251C41.6469 11.6176 41.6402 11.6101 41.6334 11.6024C41.6242 11.5919 41.6151 11.5811 41.6062 11.5701C41.2238 11.1082 40.8838 10.9788 40.3962 11.012C39.7563 11.0554 39.3176 11.5122 39.3622 12.1313C39.3671 12.2004 39.3772 12.2698 39.3926 12.339C39.4219 12.4708 39.4706 12.602 39.5399 12.7292C39.6007 12.8441 39.6761 12.9552 39.766 13.0611C39.7688 13.0644 39.7717 13.0677 39.7745 13.0711C39.8886 13.2036 40.0258 13.3276 40.1861 13.4403C40.816 13.883 41.8028 14.1487 43.1563 14.0567C43.1666 14.056 43.1773 14.0557 43.1874 14.055C45.1442 13.9141 46.3825 13.0676 46.7074 11.7908C46.782 11.4975 46.8085 11.1815 46.7843 10.8461C46.7682 10.6212 46.7308 10.414 46.6718 10.2238C46.519 9.7314 46.2213 9.35276 45.7697 9.0734C45.6179 8.97948 45.4489 8.89684 45.2621 8.82476C45.2596 8.8238 45.257 8.82284 45.2546 8.82188C44.8862 8.68068 44.4493 8.58076 43.9414 8.51772C43.9023 8.51292 43.863 8.50828 43.823 8.50388L42.928 8.40612C42.871 8.3998 42.816 8.39324 42.763 8.38636C42.7603 8.38604 42.7577 8.38572 42.755 8.38532C42.753 8.38508 42.751 8.38484 42.7489 8.38452C42.5316 8.35588 42.3486 8.32196 42.1973 8.27956C42.1962 8.27924 42.195 8.27892 42.1939 8.2786C41.8858 8.19172 41.7103 8.0694 41.646 7.88508C41.6367 7.85841 41.6298 7.83044 41.625 7.80111C41.6224 7.7848 41.6205 7.76807 41.6192 7.7509C41.5913 7.36196 41.9242 7.02556 42.6225 6.96925C42.6326 6.96844 42.6427 6.96768 42.653 6.96699C42.8054 6.95663 42.9478 6.9594 43.0806 6.97755C43.0811 6.97763 43.0817 6.97771 43.0822 6.97779C43.3222 7.01082 43.531 7.09411 43.7129 7.24084C43.7914 7.30422 43.865 7.37945 43.9338 7.4676C43.9342 7.46811 43.9346 7.46862 43.935 7.46913C43.9385 7.47372 43.9421 7.47834 43.9456 7.483C43.9507 7.48958 43.9558 7.4961 43.9609 7.50256C43.9621 7.50408 43.9633 7.50561 43.9645 7.50714C43.9864 7.53489 44.0085 7.56151 44.0306 7.58701C44.0602 7.62104 44.09 7.65308 44.1202 7.68319C44.4157 7.97855 44.7425 8.08764 45.1995 8.05652C45.8451 8.0066 46.2434 7.58303 46.2014 7.00031C46.187 6.8 46.1386 6.6386 46.0528 6.46754C46.0516 6.46506 46.0503 6.46257 46.049 6.4601C45.9803 6.32503 45.8992 6.19864 45.8064 6.08117C45.8032 6.07709 45.8 6.07303 45.7967 6.06897C45.6564 5.89373 45.4898 5.73856 45.2993 5.60424C44.633 5.13475 43.6729 4.92016 42.511 4.99432C42.5009 4.99496 42.4907 4.99564 42.4806 4.99632C40.7663 5.11283 39.487 5.95036 39.1518 7.2187C39.0783 7.49708 39.0502 7.79621 39.073 8.113C39.0891 8.337 39.1303 8.54628 39.1957 8.74036C39.3389 9.16508 39.5983 9.5174 39.9659 9.7934C40.076 9.87596 40.1957 9.9518 40.325 10.0206C40.7542 10.2493 41.288 10.4016 41.9186 10.4736C41.9332 10.4753 41.9478 10.4769 41.9625 10.4785L42.8575 10.5763C42.8848 10.5792 42.9115 10.5822 42.9378 10.5852C43.1985 10.6154 43.4126 10.6492 43.5866 10.6908C43.5876 10.691 43.5886 10.6912 43.5894 10.6914C43.9538 10.779 44.1414 10.9014 44.2109 11.098C44.2245 11.1364 44.2335 11.1776 44.2386 11.222C44.2396 11.2314 44.2405 11.241 44.2412 11.2508C44.2722 11.6817 43.8195 12.0297 43.0455 12.0823C43.0354 12.083 43.0252 12.0836 43.015 12.0842C42.9067 12.0904 42.8005 12.0902 42.6971 12.0829C42.6972 12.0829 42.697 12.0829 42.6971 12.0829C42.3703 12.06 42.0719 11.9672 41.8309 11.786C41.829 11.7846 41.8272 11.7832 41.8254 11.7818C41.8247 11.7813 41.8241 11.7808 41.8234 11.7804C41.8166 11.7752 41.8098 11.7698 41.803 11.7644ZM37.2373 10.4262C36.9618 10.9571 36.8194 11.58 36.8637 12.2707L37.7705 12.209C37.884 12.2013 37.9921 12.2043 38.0935 12.2176C38.5604 12.2788 38.8875 12.5592 38.9683 13.0278C38.9688 13.0305 38.9693 13.0333 38.9698 13.0361C38.9762 13.0752 38.981 13.1156 38.984 13.1574C39.0311 13.8129 38.6134 14.2138 37.9186 14.2611L37.565 14.2847C38.0484 15.0067 38.7112 15.5394 39.48 15.9076C39.5798 15.882 39.6881 15.8655 39.8034 15.8576C40.3564 15.82 40.765 16.0123 40.9926 16.4043C41.7438 16.5564 42.5405 16.5974 43.3358 16.5433C43.3498 16.5424 43.3638 16.5414 43.3778 16.5404C44.0774 15.8937 45.0418 15.5007 46.2187 15.4207C46.4751 15.4033 46.7242 15.4024 46.9643 15.4165C47.1896 15.2673 47.405 15.1018 47.6088 14.9188C48.8362 13.8162 49.3969 12.2909 49.2807 10.6765C49.22 9.833 48.9737 9.01332 48.493 8.29868C48.6674 7.82715 48.7334 7.32543 48.6978 6.83065C48.658 6.27815 48.5117 5.79983 48.2911 5.36015L48.2884 5.35468C47.0903 2.98076 44.4928 2.36116 42.3017 2.51008C40.8376 2.60958 39.3827 3.09752 38.2711 4.08989C37.109 5.12746 36.4565 6.61164 36.5766 8.28268C36.6322 9.05404 36.853 9.78236 37.2373 10.4262Z" fill="black"/>
<path fill-rule="evenodd" clip-rule="evenodd" d="M35.3372 12.3731L37.7691 12.2085C38.4516 12.1621 38.9354 12.5013 38.9826 13.1569C39.0297 13.8125 38.6114 14.2122 37.9166 14.2594L34.1924 14.5128C33.5772 14.5546 33.1405 14.3113 32.9332 13.8257C32.8632 13.6617 32.8195 13.4703 32.8038 13.2528L32.3566 7.0372C32.2946 6.17526 32.7289 5.65777 33.5517 5.60186C34.3745 5.54594 34.8787 5.99965 34.9408 6.86157L35.3372 12.3731ZM37.6548 9.71766C38.4164 9.6775 39.3305 9.83454 40.1265 10.4384C40.3558 10.6123 40.5539 10.8072 40.7224 11.0173C40.62 11.0041 40.5116 11.0035 40.3948 11.0115C39.7549 11.0549 39.3162 11.5117 39.3608 12.1309C39.3752 12.3312 39.4327 12.5347 39.5385 12.7288C39.6072 12.8585 39.6943 12.9827 39.8001 13.1006C40.1437 13.4836 40.6836 13.7926 41.4231 13.9533C41.3043 14.57 41.0183 15.1766 40.5158 15.6857C40.4437 15.7588 40.3697 15.8273 40.2941 15.8913C40.146 15.8559 39.9813 15.8437 39.8015 15.856C39.2017 15.8968 38.8084 16.1828 38.6632 16.6686C38.4686 16.7087 38.2779 16.7333 38.0956 16.7457L36.13 16.8793C35.616 16.6102 35.0128 16.4567 34.3303 16.4226C34.0914 16.4108 33.8424 16.4137 33.5845 16.4313L32.168 16.5273C31.9485 16.4031 31.7354 16.2514 31.5332 16.0684C31.1005 15.6769 30.8068 15.222 30.6144 14.7557L30.9879 14.7306C31.6827 14.6833 32.1013 14.2826 32.0542 13.627C32.0458 13.5106 32.0236 13.4042 31.9891 13.3082C31.829 12.8632 31.4021 12.6405 30.8407 12.6787L30.2568 12.7184L30.156 11.3162L30.6362 11.2836C31.264 11.2409 31.63 10.8805 31.5876 10.2917C31.5452 9.70294 31.119 9.39646 30.5034 9.4383L30.0232 9.47094L29.9219 8.0627L30.5057 8.02302C31.1269 7.98082 31.5392 7.64466 31.5729 7.09046C31.5762 7.03567 31.5758 6.97874 31.5716 6.91976C31.5244 6.26421 31.0528 5.92417 30.3581 5.9714L29.9374 5.99999C30.0508 5.46168 30.2833 4.91445 30.6952 4.42089C31.4404 3.52775 32.4659 3.17725 33.3728 3.11561C34.2798 3.05397 35.3456 3.26234 36.2114 4.04599C37.0609 4.81481 37.3749 5.8276 37.4371 6.69192L37.6548 9.71766Z" fill="black"/>
<path fill-rule="evenodd" clip-rule="evenodd" d="M26.4646 6.23643C25.8494 6.27824 25.4514 6.57808 25.3156 7.08701C25.2698 7.25875 25.2539 7.45429 25.2695 7.67176L25.7058 13.7357C25.7214 13.9531 25.7652 14.1446 25.8352 14.3085C26.0425 14.7941 26.4796 15.0372 27.0948 14.9953L30.9885 14.7309C31.6833 14.6837 32.102 14.2829 32.0548 13.6273C32.0514 13.5797 32.046 13.5339 32.038 13.4897C31.9367 12.9246 31.4744 12.636 30.8413 12.679L28.2392 12.8559L28.1384 11.4537L30.6368 11.2839C30.6721 11.2815 30.7069 11.2781 30.7405 11.2737C31.286 11.2025 31.6068 10.8708 31.5913 10.3466C31.5908 10.3287 31.5896 10.3105 31.5883 10.2921C31.5868 10.2716 31.5852 10.2514 31.5828 10.2316C31.5202 9.71495 31.1468 9.43295 30.6082 9.43487C30.5743 9.43503 30.5393 9.43623 30.504 9.43863L28.0056 9.60847L27.9043 8.20023L30.5064 8.02335C31.1366 7.98053 31.5522 7.63514 31.5751 7.06643C31.577 7.01918 31.5759 6.97037 31.5722 6.92008C31.5251 6.26453 31.0535 5.9245 30.3588 5.97172L26.4646 6.23643ZM32.8044 13.2531C32.8127 13.367 32.8289 13.4738 32.8523 13.5732C33.0056 14.2261 33.479 14.5617 34.1931 14.5131L34.4817 14.4933C34.3553 15.0862 34.0721 15.6668 33.5884 16.1569C33.4809 16.2658 33.3692 16.3645 33.2544 16.4539L31.1168 16.5993C30.5668 16.6367 30.1912 16.8801 30.0205 17.2949L28.8758 17.3727C28.6687 16.8863 28.2306 16.643 27.6149 16.6849C27.4715 16.6946 27.3406 16.7181 27.2214 16.7553C26.8536 16.87 26.6034 17.1122 26.4879 17.4638C25.7894 17.3829 25.0602 17.1169 24.4351 16.5512C24.0484 16.2013 23.7726 15.8007 23.5811 15.3866C23.5842 15.3864 23.5873 15.3862 23.5904 15.386C24.3034 15.3376 24.763 14.8305 24.7141 14.1507C24.7053 14.0292 24.6853 13.9161 24.651 13.8073C24.5845 13.5953 24.4644 13.3991 24.2712 13.1865L23.0621 11.8584L22.918 9.85423L23.9757 8.31479C24.116 8.11159 24.2004 7.9291 24.2412 7.74165C24.2697 7.61023 24.2768 7.47637 24.2663 7.33127C24.2222 6.7182 23.6026 6.27844 22.9322 6.324L22.9291 6.32422C23.0595 5.88827 23.2752 5.45434 23.608 5.05546C24.3532 4.16232 25.3788 3.81182 26.2857 3.75018L30.1802 3.4855C30.9512 3.43309 31.9028 3.57635 32.7287 4.20779C33.2349 4.59486 33.5834 5.08109 33.7994 5.60122C33.7207 5.59609 33.6381 5.59636 33.5524 5.60219C32.7853 5.65432 32.3562 6.10762 32.3518 6.86716C32.3515 6.92235 32.3531 6.97913 32.3573 7.03752L32.8044 13.2531Z" fill="black"/>
<path fill-rule="evenodd" clip-rule="evenodd" d="M20.6108 12.784L20.6657 12.7803L22.4236 14.8261C22.428 14.8312 22.4324 14.8364 22.4368 14.8414L22.4374 14.842C22.7994 15.2567 23.1275 15.4188 23.5908 15.3872C24.304 15.3388 24.7636 14.8318 24.7146 14.152C24.6899 13.8077 24.5738 13.5317 24.305 13.2252L24.3024 13.2223C24.2924 13.2108 24.2821 13.1993 24.2716 13.1878L22.2168 10.9304L22.2133 10.8818L23.9763 8.31605C24.0084 8.26949 24.0376 8.22396 24.064 8.17932C24.065 8.17772 24.0659 8.17613 24.0668 8.17453C24.2344 7.8894 24.2887 7.63548 24.2668 7.33253C24.2228 6.71947 23.6032 6.2797 22.9328 6.32527C22.4534 6.35784 22.2104 6.54272 21.9759 6.94382C21.9751 6.94522 21.9743 6.94662 21.9735 6.94802C21.9643 6.96375 21.9552 6.97981 21.946 6.99619L20.5726 9.44396L20.5239 9.44732L18.8931 7.29517C18.5612 6.85415 18.1728 6.64876 17.6914 6.68149C16.9356 6.73285 16.4295 7.27351 16.4806 7.98369C16.5059 8.33572 16.6244 8.62044 16.964 8.99996L18.836 11.0991L18.8395 11.1476L17.2172 13.71C17.192 13.7495 17.1687 13.7879 17.1469 13.8253L17.1447 13.8293C16.9544 14.1594 16.8946 14.4192 16.9157 14.7125C16.9612 15.3438 17.5206 15.7998 18.2032 15.7534C18.6908 15.7203 18.965 15.5308 19.2383 15.0732L20.6108 12.784ZM20.9931 16.9214C20.8188 17.1331 20.6066 17.347 20.3464 17.5404C20.1445 17.4179 19.8824 17.364 19.5773 17.3847L16.032 17.6256C15.4392 17.2384 14.9556 16.6824 14.6748 15.9923C14.6952 15.9916 14.7158 15.9904 14.7366 15.989C15.4849 15.9382 15.912 15.5055 15.9364 14.7791C15.9388 14.7068 15.9373 14.6316 15.9317 14.5537L15.706 11.4167L15.7359 11.3696L15.6997 11.3291L15.4736 8.18629C15.4704 8.14077 15.4658 8.09629 15.46 8.05309C15.3577 7.28024 14.8669 6.87615 14.0918 6.92613C14.5008 5.35528 15.9194 4.30351 17.5125 4.19523C18.6148 4.12033 19.5281 4.50045 20.2247 5.09202C20.4008 4.88183 20.6186 4.66794 20.8888 4.47669C21.518 4.03131 22.1858 3.87762 22.7539 3.83902C24.1876 3.74157 25.9806 4.53807 26.5732 6.23034L26.4652 6.23769C25.7824 6.28409 25.3671 6.64838 25.2809 7.26361C25.2633 7.38973 25.2595 7.5264 25.27 7.67303L25.4772 10.552L25.3771 10.6977L25.4972 10.8296L25.7063 13.7369C25.7152 13.86 25.7331 13.9748 25.7596 14.0809C25.9188 14.718 26.39 15.0445 27.0953 14.9966L27.148 14.993C27.0248 15.6054 26.744 16.1897 26.2968 16.6819C25.6139 17.4334 24.689 17.8111 23.7697 17.8736C23.7672 17.8737 23.7645 17.8739 23.762 17.874C23.5844 17.2889 23.1236 16.9912 22.448 17.0371C22.0872 17.0616 21.8012 17.1748 21.5989 17.3668C21.37 17.2304 21.1692 17.0776 20.9931 16.9214Z" fill="black"/>
<path fill-rule="evenodd" clip-rule="evenodd" d="M12.0758 17.5444C11.2263 16.7756 10.9123 15.7628 10.8502 14.8985L10.7439 13.4218C11.8812 12.8718 12.5298 11.7887 12.4299 10.3993C12.3726 9.60415 12.1046 8.94119 11.6744 8.44391C11.3444 8.06247 10.9189 7.77859 10.4199 7.60742C10.5062 6.9803 10.7425 6.32559 11.2269 5.74511C11.9721 4.85196 12.9976 4.50147 13.9046 4.43983C14.8115 4.37819 15.8773 4.58655 16.7431 5.37021C17.1758 5.76183 17.4697 6.21675 17.662 6.68311C16.9219 6.74589 16.429 7.28188 16.4794 7.98316C16.4827 8.02855 16.4875 8.07287 16.4942 8.11639C16.539 8.41023 16.667 8.66887 16.9629 8.99943L18.1341 10.3127L18.2598 12.0609L17.216 13.7094C17.0266 14.0071 16.9367 14.2443 16.9155 14.4862C16.909 14.5604 16.909 14.635 16.9146 14.712C16.96 15.3433 17.5195 15.7993 18.2021 15.7529C18.241 15.7502 18.2785 15.7466 18.3147 15.7419C18.1913 16.2308 17.9653 16.7221 17.5921 17.1695C17.4776 17.3067 17.3565 17.4311 17.2302 17.5436L14.3958 17.7362C13.9161 17.7689 13.5682 17.9698 13.4143 18.3069C12.9486 18.1617 12.4894 17.9187 12.0758 17.5444ZM13.3465 14.7288C13.4085 15.5907 13.9127 16.0444 14.7355 15.9885C15.5582 15.9325 15.9926 15.4151 15.9306 14.5532L15.4725 8.18583C15.4105 7.32386 14.9062 6.87015 14.0834 6.92607C13.2607 6.98199 12.8263 7.49948 12.8883 8.36143L13.3465 14.7288Z" fill="black"/>
<path fill-rule="evenodd" clip-rule="evenodd" d="M7.81691 11.9928L8.54216 11.9435C8.73752 11.9303 8.91328 11.8959 9.0676 11.841C9.43824 11.709 9.68512 11.458 9.7816 11.0938C9.82168 10.9425 9.83584 10.7717 9.82216 10.5818C9.80528 10.3466 9.74976 10.1463 9.65976 9.98121C9.53128 9.74553 9.33272 9.58161 9.07616 9.49065C8.87664 9.41985 8.64216 9.39321 8.37832 9.41113L7.6348 9.46169L7.81691 11.9928ZM5.05444 8.46377C5.19022 7.95483 5.58825 7.65498 6.20343 7.61317L8.92776 7.42802C9.97872 7.3566 10.8709 7.65685 11.4933 8.25217C12.0294 8.76497 12.3654 9.49713 12.4302 10.3988C12.4834 11.1391 12.3242 11.7921 11.9917 12.3242C11.4572 13.1795 10.4752 13.7214 9.20912 13.8074L7.95361 13.8927L8.03968 15.0885C8.10168 15.9504 7.66731 16.4679 6.84454 16.5239C6.02176 16.5798 5.51754 16.1261 5.45553 15.2642L5.00832 9.04849C4.99268 8.83105 5.00862 8.63553 5.05444 8.46377ZM10.4556 16.1411C10.341 16.6744 10.109 17.2159 9.70112 17.7048C9.63744 17.7812 9.5716 17.8536 9.504 17.9223C9.40032 17.9247 9.29488 17.9295 9.18776 17.9367C8.32536 17.9954 7.57299 18.2365 6.99558 18.6231C6.81994 18.7407 6.66048 18.8718 6.51904 19.0153C5.73834 18.9778 4.89449 18.7219 4.18484 18.0797C3.33535 17.3109 3.02136 16.2981 2.95917 15.4338L2.51197 9.21817C2.44979 8.35385 2.61568 7.30845 3.34683 6.43221C4.09207 5.53906 5.11758 5.18857 6.02455 5.12693L8.74888 4.94177C10.2631 4.83886 11.7782 5.22848 12.9706 6.23059C13.2462 6.46231 13.4926 6.71661 13.7098 6.98966C13.1316 7.16061 12.8369 7.64074 12.8886 8.36089L13.3388 14.6163C12.5373 15.4051 11.533 15.9019 10.4556 16.1411Z" fill="black"/>
<path d="M46.8733 24.4859C44.149 24.671 42.318 23.0571 42.1167 20.2588C41.9154 17.4606 43.503 15.6082 46.2213 15.4235C48.9394 15.2387 50.777 16.8583 50.9782 19.6566C51.1796 22.4548 49.5914 24.3011 46.8733 24.4859ZM46.7257 22.4342C47.8105 22.3605 48.4542 21.3469 48.3454 19.8355C48.2362 18.318 47.4476 17.4018 46.3689 17.4751C45.2901 17.5484 44.6404 18.5624 44.7496 20.0799C44.8583 21.5913 45.6408 22.5079 46.7257 22.4342Z" fill="white"/>
<path d="M40.4584 24.9205C39.6356 24.9765 39.1314 24.5228 39.0694 23.6609L38.6113 17.2935C38.5492 16.4315 38.9836 15.9141 39.8064 15.8581C40.6292 15.8022 41.1334 16.2559 41.1954 17.1178L41.6536 23.4852C41.7156 24.3472 41.2812 24.8646 40.4584 24.9205Z" fill="white"/>
<path d="M31.751 25.3603C30.9282 25.4161 30.4241 24.9624 30.362 24.1005L29.9258 18.0367C29.8638 17.1747 30.2981 16.6572 31.1209 16.6013L33.5892 16.4336C36.2586 16.2521 37.9337 17.6571 38.1354 20.4614C38.3372 23.2657 36.8827 25.0115 34.2194 25.1925L31.751 25.3603ZM32.8959 23.2268L33.7065 23.1718C34.9986 23.084 35.6187 22.2549 35.5026 20.6404C35.3965 19.1653 34.6078 18.4199 33.3706 18.504L32.5601 18.5591L32.8959 23.2268Z" fill="white"/>
<path d="M25.6871 25.9243C23.365 26.0821 21.7193 24.9131 21.5755 22.916L21.2558 18.4728C21.1938 17.6109 21.6282 17.0934 22.451 17.0375C23.2738 16.9816 23.778 17.4353 23.84 18.2972L24.1391 22.4551C24.2055 23.3778 24.6989 23.8505 25.5338 23.7938C26.3688 23.737 26.7897 23.2021 26.7233 22.2795L26.4241 18.1216C26.3621 17.2597 26.7965 16.7422 27.6192 16.6863C28.442 16.6303 28.9462 17.084 29.0082 17.9459L29.3279 22.3891C29.4716 24.3862 28.0092 25.7665 25.6871 25.9243Z" fill="white"/>
<path d="M17.631 26.4739C16.8082 26.5298 16.3039 26.0761 16.2419 25.2141L15.8454 19.7027L14.5472 19.7908C13.8646 19.8372 13.3809 19.498 13.3337 18.8425C13.2866 18.1869 13.7048 17.7864 14.3996 17.7392L19.58 17.3871C20.2748 17.3399 20.7463 17.6799 20.7935 18.3355C20.8407 18.9911 20.4102 19.3924 19.7276 19.4387L18.4295 19.527L18.826 25.0385C18.8881 25.9004 18.4537 26.4179 17.631 26.4739Z" fill="white"/>
<path d="M9.86903 27C7.88826 27.1346 6.69138 26.5023 6.25193 25.6721C6.1461 25.478 6.08859 25.2745 6.07418 25.0743C6.02963 24.4551 6.46835 23.9983 7.10828 23.9548C7.59585 23.9217 7.93588 24.0511 8.31823 24.5131C8.65391 24.9233 9.17855 25.0645 9.75751 25.0252C10.5316 24.9726 10.9842 24.6247 10.9532 24.1937C10.9235 23.7809 10.5696 23.6281 9.56959 23.5191L8.67447 23.4214C6.90307 23.2307 5.8829 22.4156 5.78507 21.0559C5.65842 19.2956 7.10215 18.0813 9.19263 17.9392C10.9357 17.8207 12.2292 18.3489 12.7649 19.4104C12.8507 19.5815 12.899 19.7429 12.9134 19.9432C12.9554 20.5259 12.5571 20.9495 11.9115 20.9995C11.363 21.0367 11.0021 20.8722 10.6577 20.4259C10.3398 20.0083 9.91959 19.8722 9.36503 19.9099C8.64583 19.9587 8.30287 20.2992 8.33127 20.6938C8.35967 21.0883 8.75103 21.2508 9.64007 21.349L10.5351 21.4467C12.4489 21.6583 13.3942 22.3687 13.4964 23.7891C13.6261 25.5918 12.2946 26.8351 9.86903 27Z" fill="white"/>
<path d="M43.16 14.0586C41.1793 14.1932 39.9824 13.5609 39.543 12.7307C39.4371 12.5366 39.3796 12.3332 39.3652 12.1328C39.3206 11.5137 39.7594 11.0569 40.3993 11.0134C40.8869 10.9803 41.2269 11.1096 41.6092 11.5716C41.945 11.9819 42.4696 12.1232 43.0486 12.0838C43.8226 12.0312 44.2752 11.6832 44.2442 11.2523C44.2146 10.8395 43.8606 10.6867 42.8606 10.5777L41.9655 10.48C40.1941 10.2893 39.1739 9.4742 39.0761 8.11452C38.9494 6.35424 40.3932 5.13988 42.4836 4.99781C44.2266 4.87935 45.5202 5.4075 46.0559 6.46903C46.1417 6.64008 46.1901 6.80148 46.2045 7.00179C46.2464 7.58451 45.8482 8.00803 45.2026 8.05803C44.654 8.09531 44.2931 7.93075 43.9486 7.48448C43.6307 7.06692 43.2106 6.93078 42.656 6.96848C41.9369 7.01735 41.5939 7.35784 41.6222 7.75238C41.6506 8.14692 42.0421 8.30939 42.931 8.40755L43.8261 8.50531C45.7399 8.71683 46.6852 9.42723 46.7874 10.8476C46.9171 12.6504 45.5857 13.8937 43.16 14.0586Z" fill="white"/>
<path d="M34.1975 14.5159C33.3747 14.5718 32.8705 14.1181 32.8085 13.2561L32.3613 7.04055C32.2993 6.17861 32.7336 5.66112 33.5564 5.6052C34.3792 5.54929 34.8835 6.00299 34.9455 6.86492L35.3419 12.3765L37.7737 12.2112C38.4563 12.1648 38.9401 12.504 38.9872 13.1595C39.0344 13.8151 38.6161 14.2156 37.9214 14.2628L34.1975 14.5159Z" fill="white"/>
<path d="M27.0987 14.9987C26.276 15.0546 25.7717 14.6009 25.7097 13.7389L25.2734 7.67505C25.2114 6.81312 25.6457 6.29563 26.4685 6.23971L30.363 5.97504C31.0578 5.92782 31.5293 6.26784 31.5765 6.9234C31.6237 7.57896 31.1932 7.98028 30.5106 8.02665L27.9082 8.20353L28.0095 9.61177L30.5083 9.44193C31.1239 9.40009 31.5501 9.70665 31.5925 10.2954C31.6349 10.8842 31.2689 11.2446 30.6411 11.2872L28.1423 11.4571L28.2432 12.8592L30.8456 12.6823C31.5281 12.6359 32.0119 12.9751 32.0591 13.6307C32.1062 14.2863 31.688 14.6867 30.9932 14.7339L27.0987 14.9987Z" fill="white"/>
<path d="M18.2067 15.7547C17.5241 15.8011 16.9646 15.345 16.9191 14.7137C16.8955 14.3859 16.973 14.1001 17.2206 13.7112L18.843 11.1489L18.8395 11.1003L16.9675 9.00121C16.6278 8.62169 16.5094 8.33697 16.484 7.98491C16.4329 7.27473 16.9391 6.73406 17.6948 6.6827C18.1763 6.64998 18.5647 6.85537 18.8965 7.29639L20.5273 9.44849L20.5761 9.44521L21.9495 6.99741C22.1935 6.55995 22.4364 6.36045 22.9362 6.32648C23.6066 6.28092 24.2262 6.72068 24.2703 7.33375C24.2956 7.6858 24.2182 7.97165 23.9797 8.31721L22.2167 10.883L22.2203 10.9315L24.2751 13.1891C24.5677 13.5107 24.6923 13.7951 24.7181 14.1532C24.767 14.8331 24.3074 15.34 23.5943 15.3885C23.125 15.4204 22.7946 15.2538 22.4271 14.8274L20.6691 12.7815L20.6143 12.7852L19.2418 15.0743C18.9684 15.5321 18.6943 15.7215 18.2067 15.7547Z" fill="white"/>
<path d="M14.7398 15.9909C13.917 16.0468 13.4127 15.5931 13.3507 14.7312L12.8926 8.36382C12.8306 7.50186 13.265 6.98437 14.0877 6.92845C14.9105 6.87253 15.4147 7.32623 15.4767 8.18814L15.9348 14.5555C15.9969 15.4175 15.5625 15.9349 14.7398 15.9909Z" fill="white"/>
<path d="M6.84791 16.5252C6.02514 16.5811 5.52091 16.1273 5.4589 15.2654L5.0117 9.04981C4.94968 8.18789 5.38403 7.67037 6.2068 7.61446L8.93113 7.42931C10.8874 7.29635 12.2934 8.45125 12.4336 10.3997C12.5725 12.3299 11.2663 13.6691 9.21249 13.8087L7.95698 13.8941L8.04305 15.0898C8.10505 15.9517 7.67068 16.4693 6.84791 16.5252ZM7.82029 11.9941L8.54553 11.9449C9.40489 11.8865 9.88585 11.4207 9.82553 10.583C9.76569 9.75141 9.22281 9.35525 8.38169 9.41245L7.63818 9.46293L7.82029 11.9941Z" fill="white"/>
</svg>
