<svg viewBox="0 0 662 93" fill="none" xmlns="http://www.w3.org/2000/svg">
<path d="M660.266 58.832C660.266 52.4258 658.977 46.8008 656.398 41.957C653.939 37.227 650.526 33.505 646.16 30.791L645.734 30.5312C641.307 27.8824 636.165 26.5164 630.308 26.4336L629.738 26.4297C623.684 26.4297 618.352 27.7969 613.742 30.5312C609.172 33.2656 605.598 37.0743 603.02 41.957C600.48 46.8008 599.211 52.4258 599.211 58.832L599.226 60.0244C599.374 65.9386 600.639 71.1661 603.02 75.707C605.598 80.5507 609.172 84.3399 613.742 87.0742C618.208 89.6853 623.351 91.0317 629.173 91.1133L629.738 91.1172C635.642 91.1172 640.83 89.8527 645.304 87.3232L645.734 87.0742C650.305 84.3398 653.859 80.5507 656.398 75.707C658.896 71.0148 660.184 65.5892 660.262 59.4307L660.266 58.832ZM644.266 58.832C644.266 55.0441 643.712 51.8083 642.637 49.1006L642.415 48.5664L642.411 48.5586L642.408 48.5518C641.221 45.6959 639.538 43.5558 637.377 42.0791L637.369 42.0742L637.361 42.0684C635.246 40.5625 632.72 39.793 629.738 39.793C626.757 39.793 624.208 40.5627 622.05 42.0732L622.04 42.0791C619.878 43.5566 618.174 45.6978 616.948 48.5547L616.949 48.5557C615.763 51.3719 615.152 54.7883 615.152 58.832L615.159 59.583C615.231 63.3005 615.838 66.4682 616.949 69.1084C618.097 71.7475 619.665 73.778 621.64 75.2402L622.041 75.5264C624.2 77.0013 626.752 77.7539 629.738 77.7539V78.7539L629.149 78.7441C626.426 78.6565 624.016 77.9562 621.921 76.6426L621.477 76.3516C619.133 74.75 617.316 72.4648 616.027 69.4961C614.855 66.7129 614.232 63.4147 614.159 59.6016L614.152 58.832C614.152 54.9502 614.701 51.5833 615.8 48.7314L616.027 48.168C617.236 45.3482 618.908 43.1463 621.043 41.5625L621.477 41.2539C623.82 39.6133 626.574 38.793 629.738 38.793L630.326 38.8027C633.242 38.8988 635.781 39.7158 637.941 41.2539C640.285 42.8555 642.082 45.1602 643.332 48.168C644.621 51.1367 645.266 54.6914 645.266 58.832L645.258 59.5947C645.182 63.3758 644.541 66.6763 643.332 69.4961C642.082 72.4648 640.285 74.75 637.941 76.3516C635.637 77.9531 632.902 78.7539 629.738 78.7539V77.7539C632.725 77.7539 635.254 77.0008 637.37 75.5303L637.377 75.5264C639.541 74.0474 641.224 71.9244 642.41 69.1084L642.413 69.1025C643.637 66.2464 644.266 62.8313 644.266 58.832ZM661.262 59.4434C661.182 65.7358 659.865 71.3226 657.281 76.1768C654.659 81.1763 650.979 85.1021 646.248 87.9326L646.242 87.9355C641.496 90.7344 635.984 92.1172 629.738 92.1172C623.724 92.1172 618.364 90.8188 613.688 88.1953L613.237 87.9375L613.229 87.9326C608.645 85.1903 605.029 81.4206 602.389 76.6426L602.137 76.1768L602.134 76.1709C599.508 71.1613 598.211 65.3722 598.211 58.832C598.211 52.2919 599.508 46.5028 602.134 41.4932L602.135 41.4902C604.795 36.4518 608.495 32.5048 613.229 29.6729L613.231 29.6709C618.015 26.8335 623.528 25.4297 629.738 25.4297C635.791 25.4297 641.156 26.7468 645.801 29.4111L646.248 29.6729C650.98 32.504 654.659 36.4502 657.28 41.4873H657.281C659.948 46.4981 661.266 52.2895 661.266 58.832L661.262 59.4434Z" fill="url(#paint0_linear_212_751)"/>
<path d="M576.59 27.8359V89.7109H591.355V27.8359H576.59ZM574.125 10.1992C574.125 7.55117 575.072 5.29491 576.955 3.49902C578.836 1.70579 581.179 0.820392 583.914 0.820312C586.511 0.820312 588.752 1.59565 590.574 3.17285L590.933 3.49902C592.82 5.29833 593.762 7.57585 593.762 10.2578C593.762 12.9058 592.816 15.1621 590.933 16.958C589.052 18.7514 586.708 19.6367 583.973 19.6367C581.376 19.6366 579.136 18.8612 577.313 17.2842L576.955 16.958L576.946 16.9502C575.071 15.1183 574.125 12.8468 574.125 10.1992ZM592.355 90.7109H575.59V26.8359H592.355V90.7109ZM575.125 10.1992C575.125 12.5819 575.965 14.5938 577.645 16.2344C579.324 17.8359 581.434 18.6366 583.973 18.6367C586.473 18.6367 588.563 17.8358 590.242 16.2344C591.922 14.6328 592.762 12.6406 592.762 10.2578C592.762 7.83594 591.922 5.82422 590.242 4.22266C588.563 2.62122 586.453 1.82031 583.914 1.82031C581.414 1.82039 579.324 2.62117 577.645 4.22266C575.965 5.82419 575.125 7.8165 575.125 10.1992Z" fill="url(#paint1_linear_212_751)"/>
<path d="M565.867 2.40625H551.102V36.625H550.984C549.656 34.3594 548.055 32.4844 546.18 31C544.305 29.5156 542.195 28.4219 539.852 27.7188C537.547 26.9766 535.047 26.6055 532.352 26.6055C527.078 26.6055 522.43 27.9531 518.406 30.6484C514.383 33.3438 511.258 37.1133 509.031 41.957C506.805 46.8008 505.691 52.3867 505.691 58.7148C505.691 65.1211 506.785 70.7461 508.973 75.5898C511.199 80.4336 514.324 84.2031 518.348 86.8984C522.41 89.5938 527.117 90.9414 532.469 90.9414C535.164 90.9414 537.684 90.5508 540.027 89.7695C542.41 88.9883 544.539 87.8164 546.414 86.2539C548.328 84.6523 549.93 82.6602 551.219 80.2773H551.336V89.7109H565.867V2.40625ZM550.922 58.7148C550.922 54.7997 550.275 51.4484 549.017 48.6348C547.754 45.8123 546.009 43.6597 543.796 42.1357C541.6 40.6238 538.991 39.8516 535.926 39.8516C533.101 39.8516 530.644 40.5823 528.519 42.0234L528.509 42.0293C526.392 43.4287 524.709 45.5099 523.483 48.332L523.481 48.3359C522.263 51.1042 521.633 54.5522 521.633 58.7148C521.633 62.8767 522.263 66.3462 523.483 69.1562C524.632 71.8019 526.183 73.7965 528.116 75.1885L528.509 75.459C530.635 76.8645 533.096 77.5781 535.926 77.5781V78.5781C532.918 78.5781 530.262 77.8164 527.957 76.293C525.652 74.7695 523.855 72.5234 522.566 69.5547C521.277 66.5859 520.633 62.9727 520.633 58.7148C520.633 54.457 521.277 50.8633 522.566 47.9336C523.855 44.9648 525.652 42.7188 527.957 41.1953C530.262 39.6328 532.918 38.8516 535.926 38.8516C539.168 38.8516 541.98 39.6719 544.363 41.3125C546.746 42.9531 548.602 45.2578 549.93 48.2266C551.258 51.1953 551.922 54.6914 551.922 58.7148C551.922 62.7383 551.258 66.2539 549.93 69.2617C548.602 72.2305 546.746 74.5352 544.363 76.1758C541.98 77.7773 539.168 78.5781 535.926 78.5781V77.5781C538.996 77.5781 541.609 76.8225 543.806 75.3457C546.015 73.8221 547.756 71.672 549.017 68.8535C550.276 65.999 550.922 62.6276 550.922 58.7148ZM566.867 90.7109H550.336V83.5273C549.365 84.8364 548.273 86.0023 547.056 87.0205L547.055 87.0225C545.08 88.6681 542.838 89.9002 540.339 90.7197L540.338 90.7188C537.885 91.5358 535.26 91.9414 532.469 91.9414C527.113 91.9414 522.344 90.632 518.194 87.9912L517.795 87.7314L517.791 87.7295C513.73 85.0092 510.563 81.2453 508.282 76.4727L508.064 76.0078L508.062 76.001C505.805 71.0042 504.691 65.2343 504.691 58.7148C504.691 52.2692 505.826 46.536 508.123 41.5391C510.419 36.5454 513.658 32.6254 517.85 29.8174C522.052 27.002 526.898 25.6055 532.352 25.6055C535.139 25.6055 537.744 25.9891 540.158 26.7666H540.157C542.458 27.4591 544.55 28.513 546.427 29.9277L546.801 30.2158C548.014 31.176 549.113 32.2882 550.102 33.5479V1.40625H566.867V90.7109Z" fill="url(#paint2_linear_212_751)"/>
<path d="M456.938 64.1641V27.8359H442.172V66.5078L442.183 67.4873C442.292 72.3373 443.227 76.4834 444.984 79.9258C446.859 83.5585 449.457 86.3125 452.777 88.1875C455.89 89.9085 459.432 90.823 463.402 90.9307L464.203 90.9414C469.425 90.9413 473.804 89.5849 477.34 86.8721L477.68 86.6055C479.82 84.8791 481.675 82.7045 483.246 80.083V89.7109H497.777V27.8359H482.953V62.8164L482.946 63.4688C482.878 66.6911 482.294 69.3644 481.195 71.4883C480.023 73.7147 478.422 75.3555 476.391 76.4102L476.006 76.6016C474.067 77.5285 471.871 77.9921 469.418 77.9922V76.9922C471.898 76.9921 474.06 76.4932 475.93 75.5225C477.762 74.5711 479.223 73.0871 480.31 71.0225C481.383 68.943 481.953 66.226 481.953 62.8164V26.8359H498.777V90.7109H482.246V83.3311C481.061 84.8684 479.749 86.2208 478.307 87.3838L478.306 87.3848C474.505 90.4414 469.781 91.9413 464.203 91.9414C459.76 91.9414 455.78 90.9907 452.293 89.0625L452.285 89.0586C449.002 87.2044 446.397 84.5364 444.472 81.085L444.096 80.3848L444.094 80.3809C442.13 76.5344 441.172 71.8965 441.172 66.5078V26.8359H457.938V64.1641L457.949 64.9717C458.073 68.9348 459.116 71.8279 460.946 73.791C462.945 75.8934 465.726 76.9922 469.418 76.9922V77.9922L468.695 77.9785C465.25 77.8458 462.495 76.7502 460.43 74.6924L460.219 74.4766C458.168 72.2793 457.078 69.1208 456.95 65.001L456.938 64.1641Z" fill="url(#paint3_linear_212_751)"/>
<path d="M435.258 77.8164H432.27V76.8164H436.258V90.7109H426.352C420.123 90.7109 415.284 89.5054 412.015 86.9209L411.703 86.666L411.697 86.6621L412.348 85.9023C415.355 88.4414 420.024 89.7109 426.352 89.7109H435.258V77.8164ZM432.27 76.8164V77.8164H428.93V76.8164H432.27ZM422.66 71.957V39.7305H435.258V27.8359H422.66V10.9609H407.836V27.8359H397.055V39.7305H407.836V74.125C407.836 79.3984 409.34 83.3242 412.348 85.9023L411.697 86.6611C408.4 83.8352 406.836 79.5878 406.836 74.125V40.7305H396.055V26.8359H406.836V9.96094H423.66V26.8359H436.258V40.7305H423.66V71.957C423.66 73.9325 424.05 75.0847 424.59 75.6904L424.699 75.8047C425.302 76.3812 426.597 76.8164 428.93 76.8164V77.8164C426.547 77.8164 424.906 77.3867 424.008 76.5273C423.109 75.668 422.66 74.1445 422.66 71.957Z" fill="url(#paint4_linear_212_751)"/>
<path d="M342.141 60.2344L342.152 61.2236C342.19 64.5877 342.953 67.4285 344.402 69.7861C345.852 72.1059 347.921 73.8942 350.646 75.1475C353.418 76.404 356.748 77.0508 360.664 77.0508V78.0508L359.916 78.043C356.455 77.9703 353.413 77.3893 350.79 76.2998L350.234 76.0586C347.524 74.8135 345.398 73.0533 343.855 70.7783L343.555 70.3164C341.992 67.7773 341.191 64.75 341.152 61.2344H325.977C325.977 67.4844 327.363 72.8359 330.137 77.2891C332.91 81.7421 336.875 85.1602 342.031 87.543C346.865 89.7768 352.592 90.9639 359.211 91.1035L360.547 91.1172C367.207 91.1172 373.005 90.1089 377.942 88.0928L378.418 87.8945C383.299 85.7754 387.1 82.8132 389.818 79.0078L390.078 78.6367C392.727 74.7769 394.093 70.2387 394.176 65.0225L394.18 64.5156C394.18 61.3125 393.652 58.4219 392.598 55.8438C391.646 53.4269 390.196 51.2672 388.248 49.3652L387.852 48.9883C385.837 47.1206 383.308 45.4935 380.264 44.1064L379.648 43.832C376.367 42.3477 372.461 41.0976 367.93 40.082L359.082 38.0312C355.53 37.2256 352.612 36.3174 350.33 35.3057L349.883 35.1016C347.578 34.0078 345.879 32.7578 344.785 31.3516C343.796 29.9966 343.271 28.4185 343.209 26.6172L343.203 26.2539C343.203 24.0202 343.821 22.044 345.057 20.3252L345.312 19.9844C346.631 18.2633 348.43 16.9025 350.709 15.9023L351.172 15.707C353.672 14.6524 356.524 14.125 359.727 14.125L360.203 14.1289C365.1 14.2081 369.062 15.5154 372.09 18.0508C375.117 20.5861 376.825 24.0562 377.213 28.4609L377.246 28.8906H391.953C391.797 23.1094 390.391 18.1484 387.734 14.0078C385.117 9.82817 381.426 6.625 376.66 4.39844C372.229 2.27447 367.008 1.14647 360.998 1.01367L359.785 1C353.379 1 347.754 2.0938 342.91 4.28125L342.021 4.69434C337.641 6.81148 334.187 9.7012 331.66 13.3633C329.004 17.2305 327.676 21.7812 327.676 27.0156L327.682 27.5869C327.807 33.4609 329.875 38.29 333.887 42.0742C338.027 45.9804 344.453 48.9297 353.164 50.9219L362.539 53.0312C366.445 53.9297 369.57 54.9453 371.914 56.0781C374.297 57.2109 376.035 58.5391 377.129 60.0625C378.223 61.5859 378.77 63.3829 378.77 65.4531L378.761 65.9258C378.671 68.2694 377.913 70.3385 376.484 72.1328C375 74.0078 372.891 75.4727 370.156 76.5273L369.646 76.7119C367.064 77.6046 364.07 78.0508 360.664 78.0508V77.0508C364.204 77.0508 367.242 76.5551 369.798 75.5928C372.402 74.588 374.35 73.2177 375.7 71.5117L375.702 71.5098C377.079 69.7799 377.77 67.7751 377.77 65.4531C377.77 63.6872 377.336 62.1813 376.491 60.8994L376.316 60.6455C375.413 59.3878 373.968 58.2237 371.905 57.1865L371.484 56.9814L371.479 56.9785C369.228 55.8908 366.182 54.8955 362.314 54.0059V54.0049L352.944 51.8975L352.941 51.8965C344.422 49.948 337.94 47.0676 333.612 43.1807L333.2 42.8018C328.843 38.6909 326.676 33.4 326.676 27.0156C326.676 21.6034 328.052 16.8497 330.836 12.7969L330.837 12.7949C333.647 8.72192 337.549 5.58296 342.502 3.36816C347.498 1.11261 353.267 0 359.785 0C366.418 2.11833e-05 372.194 1.15131 377.082 3.49219H377.083C382.008 5.79302 385.85 9.11819 388.576 13.4678C391.347 17.7868 392.792 22.9324 392.952 28.8633L392.98 29.8906H376.312L376.248 28.958C375.951 24.5807 374.335 21.2356 371.447 18.8174C368.545 16.3864 364.67 15.125 359.727 15.125C356.633 15.125 353.917 15.6337 351.561 16.6279L351.548 16.6338C349.185 17.5937 347.387 18.9204 346.106 20.5928L346.1 20.6006C344.837 22.2133 344.203 24.0839 344.203 26.2539L344.208 26.5811C344.263 28.1952 344.729 29.573 345.584 30.75C346.549 31.9856 348.096 33.1458 350.306 34.1953C352.561 35.2479 355.552 36.2051 359.303 37.0557L359.308 37.0566L368.155 39.1074H368.154C372.725 40.1323 376.693 41.3992 380.047 42.915C383.447 44.3951 386.283 46.1705 388.531 48.2549C390.78 50.3399 392.45 52.7443 393.523 55.4648C394.634 58.1798 395.18 61.2019 395.18 64.5156L395.176 65.0391C395.09 70.4274 393.675 75.1614 390.902 79.2021C388.048 83.3616 384.003 86.5597 378.816 88.8115L378.81 88.8145C373.619 91.0273 367.523 92.1172 360.547 92.1172C353.48 92.1172 347.326 90.9828 342.113 88.6777L341.611 88.4512C336.46 86.0704 332.431 82.6707 329.562 78.249L329.288 77.8174C326.398 73.1775 324.977 67.6351 324.977 61.2344V60.2344H342.141Z" fill="url(#paint5_linear_212_751)"/>
<path d="M257.85 69.6094L257.943 70.5059C258.232 73.2793 259.329 75.3624 261.198 76.8535C263.119 78.3155 265.788 79.1016 269.312 79.1016V80.1016C265.64 80.1016 262.729 79.2812 260.581 77.6406C258.472 75.9609 257.261 73.6172 256.948 70.6094H242.358C242.671 75.0234 244.038 78.7734 246.46 81.8594C248.882 84.9062 252.085 87.2305 256.069 88.832C260.054 90.3945 264.546 91.1758 269.546 91.1758C274.663 91.1758 279.194 90.375 283.14 88.7734C287.085 87.1719 290.171 84.9062 292.397 81.9766C294.663 79.0078 295.796 75.5117 295.796 71.4883C295.796 66.957 294.331 63.3047 291.401 60.5312C288.511 57.7578 283.999 55.7266 277.866 54.4375L266.733 52.1523C264.155 51.5664 262.144 50.707 260.698 49.5742C259.253 48.4023 258.53 46.8984 258.53 45.0625C258.53 42.9531 259.468 41.1758 261.343 39.7305C263.218 38.2852 265.776 37.5625 269.019 37.5625C272.378 37.5625 275.093 38.4609 277.163 40.2578C279.272 42.0547 280.347 44.3398 280.386 47.1133H294.272C294.155 42.8555 293.003 39.2031 290.815 36.1562C288.667 33.0703 285.679 30.6875 281.851 29.0078C278.062 27.3281 273.667 26.4883 268.667 26.4883C263.628 26.4883 259.233 27.2891 255.483 28.8906C251.772 30.4922 248.882 32.7188 246.812 35.5703C244.78 38.4219 243.765 41.7422 243.765 45.5312C243.765 50.1797 245.288 54.0078 248.335 57.0156C251.382 60.0234 255.874 62.1523 261.812 63.4023L272.358 65.5703C274.976 66.1172 277.026 66.957 278.511 68.0898C280.034 69.2227 280.796 70.7266 280.796 72.6016C280.796 74.7891 279.761 76.5859 277.69 77.9922C275.659 79.3984 272.866 80.1016 269.312 80.1016V79.1016C272.748 79.1016 275.316 78.4198 277.121 77.1699L277.129 77.165C278.971 75.9138 279.796 74.4058 279.796 72.6016C279.796 71.1447 279.261 69.9919 278.146 69.0732L277.914 68.8926L277.904 68.8848C276.579 67.8733 274.685 67.0774 272.157 66.5488V66.5498L261.61 64.3818L261.605 64.3809C255.744 63.1469 251.156 61.0513 247.939 58.0234L247.633 57.7275C244.378 54.5148 242.765 50.4218 242.765 45.5312C242.765 41.5523 243.835 38.0253 245.997 34.9902L246.002 34.9824C248.192 31.9654 251.236 29.6347 255.087 27.9727L255.091 27.9707C258.99 26.3053 263.524 25.4883 268.667 25.4883C273.776 25.4883 278.312 26.3465 282.251 28.0918H282.252C286.224 29.8348 289.362 32.3256 291.627 35.5732H291.628C293.802 38.6018 294.995 42.177 295.236 46.2617L295.272 47.0859L295.301 48.1133H279.399L279.386 47.127C279.353 44.7968 278.52 42.8818 276.858 41.3252L276.515 41.0195L276.508 41.0127C274.658 39.4072 272.194 38.5625 269.019 38.5625C265.917 38.5625 263.599 39.2541 261.953 40.5225C260.289 41.8049 259.53 43.3042 259.53 45.0625C259.53 46.5869 260.109 47.8039 261.315 48.7871C262.605 49.7978 264.462 50.6102 266.955 51.1768H266.954L278.067 53.458L278.072 53.459C284.29 54.7659 289.007 56.8506 292.089 59.8047C295.244 62.7912 296.796 66.7196 296.796 71.4883C296.796 75.7123 295.601 79.4245 293.192 82.5811L293.193 82.582C290.842 85.6756 287.601 88.0419 283.516 89.7002C279.429 91.3589 274.767 92.1758 269.546 92.1758C264.442 92.1758 259.823 91.3778 255.704 89.7627L255.696 89.7598C251.568 88.1004 248.217 85.6776 245.677 82.4814L245.673 82.4766C243.272 79.4178 241.868 75.7573 241.435 71.5322L241.361 70.6797L241.285 69.6094H257.85Z" fill="url(#paint6_linear_212_751)"/>
<path d="M219.797 2.40625V89.7109H234.562V2.40625H219.797ZM235.562 90.7109H218.797V1.40625H235.562V90.7109Z" fill="url(#paint7_linear_212_751)"/>
<path d="M212.121 58.5977C212.121 53.8711 211.418 49.5547 210.012 45.6484C208.605 41.7032 206.594 38.3047 203.977 35.4531C201.359 32.5625 198.234 30.3359 194.602 28.7734C190.969 27.211 186.926 26.4297 182.473 26.4297C176.691 26.4297 171.574 27.8164 167.121 30.5898C162.668 33.3633 159.172 37.1915 156.633 42.0742C154.133 46.957 152.883 52.543 152.883 58.832C152.883 65.082 154.094 70.6485 156.516 75.5312C158.977 80.3749 162.473 84.1836 167.004 86.957C171.535 89.7304 176.887 91.1172 183.059 91.1172C187.902 91.1172 192.316 90.2578 196.301 88.5391C200.285 86.7813 203.586 84.3593 206.203 81.2734C208.859 78.1875 210.578 74.6328 211.359 70.6094H197.531C196.984 72.3672 196.066 73.9102 194.777 75.2383C193.488 76.5664 191.887 77.6016 189.973 78.3438C188.059 79.0859 185.871 79.457 183.41 79.457V78.457C185.771 78.457 187.833 78.1007 189.611 77.4111C191.406 76.7153 192.881 75.7558 194.06 74.542C195.24 73.326 196.076 71.9194 196.576 70.3125L196.795 69.6094H212.572L212.341 70.7998C211.527 74.9928 209.731 78.7071 206.961 81.9258C204.239 85.1329 200.815 87.6411 196.705 89.4541L196.697 89.457C192.574 91.2357 188.023 92.1172 183.059 92.1172C176.93 92.1172 171.541 90.782 166.926 88.0762L166.482 87.8096C161.936 85.027 158.395 81.2345 155.866 76.4502L155.624 75.9844L155.62 75.9756C153.12 70.9357 151.883 65.2135 151.883 58.832C151.883 52.4078 153.161 46.6614 155.743 41.6182L155.746 41.6133C158.364 36.5797 161.98 32.6141 166.593 29.7412C171.22 26.8591 176.524 25.4297 182.473 25.4297C186.759 25.4297 190.701 26.1353 194.285 27.5605L194.997 27.8545C198.758 29.4719 201.999 31.7813 204.713 34.7773H204.714C207.428 37.7346 209.506 41.2501 210.953 45.3096C212.404 49.3384 213.121 53.7714 213.121 58.5977V63.6406H168.433C168.628 66.2245 169.201 68.5203 170.138 70.54C171.311 73.0697 173.001 75.0064 175.209 76.3818C177.444 77.7497 180.163 78.457 183.41 78.457V79.457C180.012 79.457 177.102 78.7148 174.68 77.2305C172.297 75.7461 170.48 73.6562 169.23 70.9609C168.106 68.5355 167.489 65.762 167.376 62.6406H212.121V58.5977ZM182.707 38.1484C185.871 38.1484 188.586 38.8516 190.852 40.2578C193.156 41.625 194.934 43.5782 196.184 46.1172C197.123 47.9672 197.718 50.0768 197.973 52.4453H167.495C167.742 50.0768 168.32 47.9673 169.23 46.1172C170.48 43.5782 172.258 41.625 174.562 40.2578C176.867 38.8516 179.582 38.1485 182.707 38.1484ZM182.707 39.1484C179.737 39.1485 177.208 39.8152 175.084 41.1113L175.073 41.1182C172.945 42.3807 171.297 44.1834 170.128 46.5586C169.418 48.0012 168.917 49.628 168.633 51.4453H196.831C196.568 49.8186 196.127 48.345 195.511 47.0195L195.292 46.5703L195.286 46.5586V46.5576C194.19 44.3315 192.674 42.6082 190.735 41.3613L190.342 41.1182L190.333 41.1123L190.324 41.1074C188.244 39.8165 185.72 39.1484 182.707 39.1484Z" fill="url(#paint8_linear_212_751)"/>
<path d="M111.35 26.8359L118.091 37.1318L118.098 37.1416L118.104 37.1523C118.906 38.442 119.692 39.7122 120.464 40.9629L122.736 44.6572C123.057 45.1803 123.376 45.7055 123.696 46.2305C124.019 45.7048 124.343 45.1811 124.664 44.6572C126.152 42.2302 127.717 39.7251 129.36 37.1426L136.231 26.8359H154.924L133.057 57.8965L155.908 90.7109H136.936L129.256 79.252L129.247 79.2393L129.238 79.2256C128.457 77.9763 127.687 76.7463 126.926 75.5361L124.672 71.9648L124.665 71.9551L125.517 71.4297C127.001 73.7734 128.524 76.1953 130.087 78.6953L137.47 89.7109H153.993L131.837 57.8936L152.997 27.8359H136.767L130.204 37.6797C128.563 40.2578 127.001 42.7578 125.517 45.1797L123.693 48.1445L121.884 45.1797C120.399 42.7578 118.856 40.2578 117.255 37.6797L110.81 27.8359H94.3447L115.322 58.1543L92.8799 89.7109H109.345L116.845 78.6953C118.485 76.1953 120.028 73.7734 121.474 71.4297C122.152 70.3583 122.835 69.2827 123.521 68.2031C124.19 69.2828 124.856 70.3582 125.517 71.4297L124.665 71.9551C124.282 71.3337 123.896 70.711 123.51 70.0869C123.111 70.7143 122.713 71.3393 122.317 71.9639C120.869 74.3132 119.324 76.7405 117.681 79.2441L117.671 79.2578L109.873 90.7109H90.9414L114.101 58.1465L92.4365 26.8359H111.35Z" fill="url(#paint9_linear_212_751)"/>
<path d="M72.8945 27.8359V89.7109H87.6602V27.8359H72.8945ZM70.4297 10.1992C70.4297 7.55117 71.3763 5.29491 73.2598 3.49902C75.1405 1.70579 77.4837 0.820396 80.2188 0.820312C82.8154 0.820312 85.0566 1.59566 86.8789 3.17285L87.2373 3.49902C89.1244 5.29833 90.0664 7.57585 90.0664 10.2578C90.0664 12.9058 89.1208 15.1621 87.2373 16.958C85.3565 18.7514 83.0126 19.6367 80.2773 19.6367C77.6809 19.6366 75.4403 18.8612 73.6182 17.2842L73.2598 16.958L73.251 16.9502C71.3754 15.1183 70.4297 12.8468 70.4297 10.1992ZM88.6602 90.7109H71.8945V26.8359H88.6602V90.7109ZM71.4297 10.1992C71.4297 12.5819 72.2697 14.5938 73.9492 16.2344C75.6288 17.8359 77.7385 18.6366 80.2773 18.6367C82.7772 18.6367 84.8672 17.8358 86.5469 16.2344C88.2266 14.6328 89.0664 12.6406 89.0664 10.2578C89.0664 7.83594 88.2266 5.82422 86.5469 4.22266C84.8672 2.62122 82.7577 1.82031 80.2188 1.82031C77.7189 1.8204 75.6288 2.62118 73.9492 4.22266C72.2697 5.82419 71.4297 7.8165 71.4297 10.1992Z" fill="url(#paint10_linear_212_751)"/>
<path d="M0 1.40625H34.3398V2.40625H1V89.7109H16.4688V58.3047H34.0469C40.4531 58.3047 46 57.1719 50.6875 54.9062C55.4141 52.6016 59.0664 49.3594 61.6445 45.1797C64.2227 41 65.5117 36.0391 65.5117 30.2969C65.5117 24.5938 64.2422 19.6523 61.7031 15.4727C59.2031 11.293 55.6094 8.07031 50.9219 5.80469C46.2734 3.53906 40.7461 2.40625 34.3398 2.40625V1.40625C40.8609 1.40625 46.5436 2.55932 51.3564 4.9043C56.2047 7.24762 59.9506 10.5972 62.5576 14.9531C65.2066 19.3137 66.5117 24.4415 66.5117 30.2969C66.5117 36.1926 65.187 41.3425 62.4961 45.7051C59.8115 50.0573 56.01 53.4232 51.126 55.8047L51.123 55.8066C46.2722 58.1512 40.5698 59.3047 34.0469 59.3047H17.4688V90.7109H0V1.40625ZM49.2773 30.2969C49.2773 27.5832 48.7078 25.3017 47.6094 23.4131L47.3828 23.041L47.377 23.0322L47.3721 23.0225C46.2328 21.1461 44.6021 19.6653 42.4453 18.584L42.0068 18.373L41.998 18.3691L41.9902 18.3652C39.6559 17.2345 36.8235 16.6484 33.4609 16.6484H17.4688V44.0625H33.4609V45.0625H16.4688V15.6484H33.4609C36.9375 15.6484 39.9258 16.2539 42.4258 17.4648C44.9648 18.6367 46.8984 20.3164 48.2266 22.5039C49.5938 24.6523 50.2773 27.25 50.2773 30.2969C50.2773 33.3438 49.5938 35.9805 48.2266 38.207C46.8984 40.3945 44.9648 42.0938 42.4258 43.3047C39.9258 44.4766 36.9375 45.0625 33.4609 45.0625V44.0625C36.8275 44.0625 39.6637 43.4949 42.001 42.3994C44.3795 41.2639 46.1559 39.6915 47.3721 37.6885L47.374 37.6836C48.6294 35.639 49.2773 33.1902 49.2773 30.2969Z" fill="url(#paint11_linear_212_751)"/>
<defs>
<linearGradient id="paint0_linear_212_751" x1="629.738" y1="25.4297" x2="629.738" y2="92.1172" gradientUnits="userSpaceOnUse">
<stop stop-color="white" stop-opacity="0.5"/>
<stop offset="1" stop-color="white" stop-opacity="0"/>
</linearGradient>
<linearGradient id="paint1_linear_212_751" x1="583.943" y1="0.820312" x2="583.943" y2="90.7109" gradientUnits="userSpaceOnUse">
<stop stop-color="white" stop-opacity="0.5"/>
<stop offset="1" stop-color="white" stop-opacity="0"/>
</linearGradient>
<linearGradient id="paint2_linear_212_751" x1="535.779" y1="1.40625" x2="535.779" y2="91.9414" gradientUnits="userSpaceOnUse">
<stop stop-color="white" stop-opacity="0.5"/>
<stop offset="1" stop-color="white" stop-opacity="0"/>
</linearGradient>
<linearGradient id="paint3_linear_212_751" x1="469.975" y1="26.8359" x2="469.975" y2="91.9414" gradientUnits="userSpaceOnUse">
<stop stop-color="white" stop-opacity="0.5"/>
<stop offset="1" stop-color="white" stop-opacity="0"/>
</linearGradient>
<linearGradient id="paint4_linear_212_751" x1="416.156" y1="9.96094" x2="416.156" y2="90.7109" gradientUnits="userSpaceOnUse">
<stop stop-color="white" stop-opacity="0.5"/>
<stop offset="1" stop-color="white" stop-opacity="0"/>
</linearGradient>
<linearGradient id="paint5_linear_212_751" x1="360.078" y1="0" x2="360.078" y2="92.1172" gradientUnits="userSpaceOnUse">
<stop stop-color="white" stop-opacity="0.5"/>
<stop offset="1" stop-color="white" stop-opacity="0"/>
</linearGradient>
<linearGradient id="paint6_linear_212_751" x1="269.041" y1="25.4883" x2="269.041" y2="92.1758" gradientUnits="userSpaceOnUse">
<stop stop-color="white" stop-opacity="0.5"/>
<stop offset="1" stop-color="white" stop-opacity="0"/>
</linearGradient>
<linearGradient id="paint7_linear_212_751" x1="227.18" y1="1.40625" x2="227.18" y2="90.7109" gradientUnits="userSpaceOnUse">
<stop stop-color="white" stop-opacity="0.5"/>
<stop offset="1" stop-color="white" stop-opacity="0"/>
</linearGradient>
<linearGradient id="paint8_linear_212_751" x1="182.502" y1="25.4297" x2="182.502" y2="92.1172" gradientUnits="userSpaceOnUse">
<stop stop-color="white" stop-opacity="0.5"/>
<stop offset="1" stop-color="white" stop-opacity="0"/>
</linearGradient>
<linearGradient id="paint9_linear_212_751" x1="123.425" y1="26.8359" x2="123.425" y2="90.7109" gradientUnits="userSpaceOnUse">
<stop stop-color="white" stop-opacity="0.5"/>
<stop offset="1" stop-color="white" stop-opacity="0"/>
</linearGradient>
<linearGradient id="paint10_linear_212_751" x1="80.248" y1="0.820312" x2="80.248" y2="90.7109" gradientUnits="userSpaceOnUse">
<stop stop-color="white" stop-opacity="0.5"/>
<stop offset="1" stop-color="white" stop-opacity="0"/>
</linearGradient>
<linearGradient id="paint11_linear_212_751" x1="33.2559" y1="1.40625" x2="33.2559" y2="90.7109" gradientUnits="userSpaceOnUse">
<stop stop-color="white" stop-opacity="0.5"/>
<stop offset="1" stop-color="white" stop-opacity="0"/>
</linearGradient>
</defs>
</svg>
